<svg width="48" height="48" viewBox="0 0 24 24" fill="none" xmlns="http://www.w3.org/2000/svg">
<path d="M11.9998 15.0002C12.1314 15.0009 12.2619 14.9757 12.3837 14.926C12.5056 14.8762 12.6164 14.8029 12.7098 14.7102L16.7098 10.7102C16.8981 10.5219 17.0039 10.2665 17.0039 10.0002C17.0039 9.73388 16.8981 9.47849 16.7098 9.29018C16.5215 9.10188 16.2661 8.99609 15.9998 8.99609C15.7335 8.99609 15.4781 9.10188 15.2898 9.29018L11.9998 12.5902L8.70981 9.29018C8.52151 9.10188 8.26612 8.99609 7.99981 8.99609C7.73351 8.99609 7.47812 9.10188 7.28982 9.29018C7.10151 9.47849 6.99572 9.73388 6.99572 10.0002C6.99572 10.2665 7.10151 10.5219 7.28982 10.7102L11.2898 14.7102C11.3833 14.8029 11.4941 14.8762 11.6159 14.926C11.7377 14.9757 11.8682 15.0009 11.9998 15.0002Z" fill="#141414"/>
</svg>
