<svg width="48" height="48" viewBox="0 0 24 24" fill="none" xmlns="http://www.w3.org/2000/svg">
<path d="M7.99981 14.9999C8.13142 15.0007 8.26188 14.9755 8.38372 14.9257C8.50556 14.8759 8.61637 14.8026 8.70981 14.7099L11.9998 11.4099L15.2898 14.7099C15.4781 14.8982 15.7335 15.004 15.9998 15.004C16.2661 15.004 16.5215 14.8982 16.7098 14.7099C16.8981 14.5216 17.0039 14.2662 17.0039 13.9999C17.0039 13.8681 16.9779 13.7375 16.9275 13.6157C16.877 13.4939 16.8031 13.3832 16.7098 13.2899L12.7098 9.28994C12.6169 9.19621 12.5063 9.12182 12.3844 9.07105C12.2625 9.02028 12.1318 8.99414 11.9998 8.99414C11.8678 8.99414 11.7371 9.02028 11.6152 9.07105C11.4934 9.12182 11.3828 9.19621 11.2898 9.28994L7.28982 13.2899C7.19609 13.3829 7.12169 13.4935 7.07092 13.6154C7.02015 13.7372 6.99402 13.8679 6.99402 13.9999C6.99402 14.1319 7.02015 14.2627 7.07092 14.3845C7.12169 14.5064 7.19609 14.617 7.28982 14.7099C7.38326 14.8026 7.49407 14.8759 7.61591 14.9257C7.73774 14.9755 7.86821 15.0007 7.99981 14.9999Z" fill="#3E0084"/>
</svg>
