<svg width="69" height="69" viewBox="0 0 69 69" fill="none" xmlns="http://www.w3.org/2000/svg">
<g clip-path="url(#clip0_1_15086)">
<path d="M60.4581 4.71957H43.2057C43.2057 4.71957 44.9172 0 47.5488 0C50.1804 0 51.0057 3.25741 51.0057 3.25741C51.0057 3.25741 52.7815 1.48778 54.2411 1.48778C55.7006 1.48778 56.9691 3.82622 56.9691 3.82622C56.9691 3.82622 59.0307 2.56903 60.4581 4.71957Z" fill="#EBEBEB"/>
<path opacity="0.5" d="M68.5 9.75528H60.4379C60.4379 9.75528 62.239 7.11963 63.658 7.11963C65.077 7.11963 65.4964 8.8773 65.4964 8.8773C65.4964 8.8773 66.4976 8.05739 67.4261 8.20429C68.3546 8.35119 68.4984 9.75698 68.4984 9.75698L68.5 9.75528Z" fill="#EBEBEB"/>
<path opacity="0.5" d="M52.149 19.5614H44.0868C44.0868 19.5614 45.888 16.9258 47.3069 16.9258C48.7259 16.9258 49.1453 18.6834 49.1453 18.6834C49.1453 18.6834 50.1465 17.8635 51.075 18.0104C52.0035 18.1573 52.1473 19.5631 52.1473 19.5631L52.149 19.5614Z" fill="#EBEBEB"/>
<path d="M16.2032 21.5874H0.5C0.5 21.5874 2.65127 16.738 4.95136 16.4356C7.25146 16.1333 8.35246 20.0381 8.35246 20.0381C8.35246 20.0381 9.83569 18.6579 11.0026 18.6579C12.1696 18.6579 13.0694 20.4771 13.0694 20.4771C13.0694 20.4771 15.4033 19.2319 16.2032 21.5891V21.5874Z" fill="#EBEBEB"/>
<path opacity="0.5" d="M23.3758 7.33659H12.7683C12.7683 7.33659 14.5898 3.82296 16.5669 3.77171C18.5439 3.72047 19.5823 6.43128 19.5823 6.43128C19.5823 6.43128 22.657 3.93911 23.3758 7.33659Z" fill="#EBEBEB"/>
<path d="M40.4202 24.0508H34.1152V57.4345H40.4202V24.0508Z" fill="#DBDBDB"/>
<path d="M36.3206 25.1353H35.0945V26.4095H36.3206V25.1353Z" fill="#EBEBEB"/>
<path d="M37.8884 25.1353H36.6622V26.4095H37.8884V25.1353Z" fill="#EBEBEB"/>
<path d="M36.3206 27.2993H35.0945V28.5736H36.3206V27.2993Z" fill="#EBEBEB"/>
<path d="M37.8884 27.2993H36.6622V28.5736H37.8884V27.2993Z" fill="#EBEBEB"/>
<path d="M36.3206 29.4639H35.0945V30.7381H36.3206V29.4639Z" fill="#EBEBEB"/>
<path d="M37.8884 29.4639H36.6622V30.7381H37.8884V29.4639Z" fill="#EBEBEB"/>
<path d="M36.3206 31.6279H35.0945V32.9022H36.3206V31.6279Z" fill="#EBEBEB"/>
<path d="M37.8884 31.6279H36.6622V32.9022H37.8884V31.6279Z" fill="#EBEBEB"/>
<path d="M36.3206 33.792H35.0945V35.0663H36.3206V33.792Z" fill="#EBEBEB"/>
<path d="M37.8884 33.792H36.6622V35.0663H37.8884V33.792Z" fill="#EBEBEB"/>
<path d="M36.3206 35.9561H35.0945V37.2303H36.3206V35.9561Z" fill="#EBEBEB"/>
<path d="M37.8884 35.9561H36.6622V37.2303H37.8884V35.9561Z" fill="#EBEBEB"/>
<path d="M36.3206 38.1206H35.0945V39.3949H36.3206V38.1206Z" fill="#EBEBEB"/>
<path d="M37.8884 38.1206H36.6622V39.3949H37.8884V38.1206Z" fill="#EBEBEB"/>
<path d="M36.3206 40.2847H35.0945V41.5589H36.3206V40.2847Z" fill="#EBEBEB"/>
<path d="M37.8884 40.2847H36.6622V41.5589H37.8884V40.2847Z" fill="#EBEBEB"/>
<path d="M36.3206 42.4487H35.0945V43.723H36.3206V42.4487Z" fill="#EBEBEB"/>
<path d="M37.8884 42.4487H36.6622V43.723H37.8884V42.4487Z" fill="#EBEBEB"/>
<path d="M36.3206 44.6133H35.0945V45.8876H36.3206V44.6133Z" fill="#EBEBEB"/>
<path d="M37.8884 44.6133H36.6622V45.8876H37.8884V44.6133Z" fill="#EBEBEB"/>
<path d="M36.3206 46.7773H35.0945V48.0516H36.3206V46.7773Z" fill="#EBEBEB"/>
<path d="M37.8884 46.7773H36.6622V48.0516H37.8884V46.7773Z" fill="#EBEBEB"/>
<path d="M36.3206 48.9414H35.0945V50.2157H36.3206V48.9414Z" fill="#EBEBEB"/>
<path d="M37.8884 48.9414H36.6622V50.2157H37.8884V48.9414Z" fill="#EBEBEB"/>
<path d="M36.3206 51.1055H35.0945V52.3797H36.3206V51.1055Z" fill="#EBEBEB"/>
<path d="M37.8884 51.1055H36.6622V52.3797H37.8884V51.1055Z" fill="#EBEBEB"/>
<path d="M36.3206 53.27H35.0945V54.5443H36.3206V53.27Z" fill="#EBEBEB"/>
<path d="M38.2165 54.5425H39.4426V53.2682H38.2165V54.5425Z" fill="#EBEBEB"/>
<path d="M38.2165 52.3784H39.4426V51.1042H38.2165V52.3784Z" fill="#EBEBEB"/>
<path d="M38.2165 50.2139H39.4426V48.9396H38.2165V50.2139Z" fill="#EBEBEB"/>
<path d="M38.2165 48.0518H39.4426V46.7775H38.2165V48.0518Z" fill="#EBEBEB"/>
<path d="M38.2165 45.8872H39.4426V44.6129H38.2165V45.8872Z" fill="#EBEBEB"/>
<path d="M38.2165 43.7231H39.4426V42.4489H38.2165V43.7231Z" fill="#EBEBEB"/>
<path d="M38.2165 41.5591H39.4426V40.2848H38.2165V41.5591Z" fill="#EBEBEB"/>
<path d="M38.2165 39.3945H39.4426V38.1203H38.2165V39.3945Z" fill="#EBEBEB"/>
<path d="M38.2165 37.2305H39.4426V35.9562H38.2165V37.2305Z" fill="#EBEBEB"/>
<path d="M38.2165 35.0664H39.4426V33.7921H38.2165V35.0664Z" fill="#EBEBEB"/>
<path d="M38.2165 32.9023H39.4426V31.6281H38.2165V32.9023Z" fill="#EBEBEB"/>
<path d="M38.2165 30.7378H39.4426V29.4635H38.2165V30.7378Z" fill="#EBEBEB"/>
<path d="M38.2165 28.5737H39.4426V27.2995H38.2165V28.5737Z" fill="#EBEBEB"/>
<path d="M38.2165 26.4097H39.4426V25.1354H38.2165V26.4097Z" fill="#EBEBEB"/>
<path d="M37.8884 53.27H36.6622V54.5443H37.8884V53.27Z" fill="#EBEBEB"/>
<path d="M45.3941 24.0508H40.4219V57.4345H45.3941V24.0508Z" fill="#A6A6A6"/>
<path d="M43.8669 54.5425H44.88V53.2682H43.8669V54.5425Z" fill="#C7C7C7"/>
<path d="M42.5748 54.5425H43.5862V53.2682H42.5748V54.5425Z" fill="#C7C7C7"/>
<path d="M43.8669 52.3784H44.88V51.1042H43.8669V52.3784Z" fill="#C7C7C7"/>
<path d="M42.5748 52.3784H43.5862V51.1042H42.5748V52.3784Z" fill="#C7C7C7"/>
<path d="M43.8669 50.2139H44.88V48.9396H43.8669V50.2139Z" fill="#C7C7C7"/>
<path d="M42.5748 50.2139H43.5862V48.9396H42.5748V50.2139Z" fill="#C7C7C7"/>
<path d="M43.8669 48.0518H44.88V46.7775H43.8669V48.0518Z" fill="#C7C7C7"/>
<path d="M42.5748 48.0518H43.5862V46.7775H42.5748V48.0518Z" fill="#C7C7C7"/>
<path d="M43.8669 45.8872H44.88V44.6129H43.8669V45.8872Z" fill="#C7C7C7"/>
<path d="M42.5748 45.8872H43.5862V44.6129H42.5748V45.8872Z" fill="#C7C7C7"/>
<path d="M43.8669 43.7231H44.88V42.4489H43.8669V43.7231Z" fill="#C7C7C7"/>
<path d="M42.5748 43.7231H43.5862V42.4489H42.5748V43.7231Z" fill="#C7C7C7"/>
<path d="M43.8669 41.5591H44.88V40.2848H43.8669V41.5591Z" fill="#C7C7C7"/>
<path d="M42.5748 41.5591H43.5862V40.2848H42.5748V41.5591Z" fill="#C7C7C7"/>
<path d="M43.8669 39.3945H44.88V38.1203H43.8669V39.3945Z" fill="#C7C7C7"/>
<path d="M42.5748 39.3945H43.5862V38.1203H42.5748V39.3945Z" fill="#C7C7C7"/>
<path d="M43.8669 37.2305H44.88V35.9562H43.8669V37.2305Z" fill="#C7C7C7"/>
<path d="M42.5748 37.2305H43.5862V35.9562H42.5748V37.2305Z" fill="#C7C7C7"/>
<path d="M43.8669 35.0664H44.88V33.7921H43.8669V35.0664Z" fill="#C7C7C7"/>
<path d="M42.5748 35.0664H43.5862V33.7921H42.5748V35.0664Z" fill="#C7C7C7"/>
<path d="M43.8669 32.9023H44.88V31.6281H43.8669V32.9023Z" fill="#C7C7C7"/>
<path d="M42.5748 32.9023H43.5862V31.6281H42.5748V32.9023Z" fill="#C7C7C7"/>
<path d="M43.8669 30.7378H44.88V29.4635H43.8669V30.7378Z" fill="#C7C7C7"/>
<path d="M42.5748 30.7378H43.5862V29.4635H42.5748V30.7378Z" fill="#C7C7C7"/>
<path d="M43.8669 28.5737H44.88V27.2995H43.8669V28.5737Z" fill="#C7C7C7"/>
<path d="M42.5748 28.5737H43.5862V27.2995H42.5748V28.5737Z" fill="#C7C7C7"/>
<path d="M43.8669 26.4097H44.88V25.1354H43.8669V26.4097Z" fill="#C7C7C7"/>
<path d="M42.3008 25.1353H41.2894V26.4095H42.3008V25.1353Z" fill="#C7C7C7"/>
<path d="M42.3008 27.2993H41.2894V28.5736H42.3008V27.2993Z" fill="#C7C7C7"/>
<path d="M42.3008 29.4639H41.2894V30.7381H42.3008V29.4639Z" fill="#C7C7C7"/>
<path d="M42.3008 31.6279H41.2894V32.9022H42.3008V31.6279Z" fill="#C7C7C7"/>
<path d="M42.3008 33.792H41.2894V35.0663H42.3008V33.792Z" fill="#C7C7C7"/>
<path d="M42.3008 35.9561H41.2894V37.2303H42.3008V35.9561Z" fill="#C7C7C7"/>
<path d="M42.3008 38.1206H41.2894V39.3949H42.3008V38.1206Z" fill="#C7C7C7"/>
<path d="M42.3008 40.2847H41.2894V41.5589H42.3008V40.2847Z" fill="#C7C7C7"/>
<path d="M42.3008 42.4487H41.2894V43.723H42.3008V42.4487Z" fill="#C7C7C7"/>
<path d="M42.3008 44.6133H41.2894V45.8876H42.3008V44.6133Z" fill="#C7C7C7"/>
<path d="M42.3008 46.7773H41.2894V48.0516H42.3008V46.7773Z" fill="#C7C7C7"/>
<path d="M42.3008 48.9414H41.2894V50.2157H42.3008V48.9414Z" fill="#C7C7C7"/>
<path d="M42.3008 51.1055H41.2894V52.3797H42.3008V51.1055Z" fill="#C7C7C7"/>
<path d="M42.3008 53.27H41.2894V54.5443H42.3008V53.27Z" fill="#C7C7C7"/>
<path d="M42.5748 26.4097H43.5862V25.1354H42.5748V26.4097Z" fill="#C7C7C7"/>
<path d="M17.7507 23.3228H11.1735V57.4342H17.7507V23.3228Z" fill="#EBEBEB"/>
<path d="M17.7508 22.6431H11.0145V23.3229H17.7508V22.6431Z" fill="#C7C7C7"/>
<path d="M12.4334 24.3237H11.7671V57.4342H12.4334V24.3237Z" fill="white"/>
<path d="M13.614 24.3237H12.9476V57.4342H13.614V24.3237Z" fill="white"/>
<path d="M14.7944 24.3237H14.1281V57.4342H14.7944V24.3237Z" fill="white"/>
<path d="M15.9749 24.3237H15.3086V57.4342H15.9749V24.3237Z" fill="white"/>
<path d="M17.1554 24.3237H16.489V57.4342H17.1554V24.3237Z" fill="white"/>
<path d="M12.4334 25.1812H11.7671V26.522H12.4334V25.1812Z" fill="#EBEBEB"/>
<path d="M13.614 25.1812H12.9476V26.522H13.614V25.1812Z" fill="#EBEBEB"/>
<path d="M14.7944 25.1812H14.1281V26.522H14.7944V25.1812Z" fill="#EBEBEB"/>
<path d="M15.9749 25.1812H15.3086V26.522H15.9749V25.1812Z" fill="#EBEBEB"/>
<path d="M17.1554 25.1812H16.489V26.522H17.1554V25.1812Z" fill="#EBEBEB"/>
<path d="M12.4334 27.3608H11.7671V28.7017H12.4334V27.3608Z" fill="#EBEBEB"/>
<path d="M13.614 27.3608H12.9476V28.7017H13.614V27.3608Z" fill="#EBEBEB"/>
<path d="M14.7944 27.3608H14.1281V28.7017H14.7944V27.3608Z" fill="#EBEBEB"/>
<path d="M15.9749 27.3608H15.3086V28.7017H15.9749V27.3608Z" fill="#EBEBEB"/>
<path d="M17.1554 27.3608H16.489V28.7017H17.1554V27.3608Z" fill="#EBEBEB"/>
<path d="M12.4334 29.5405H11.7671V30.8814H12.4334V29.5405Z" fill="#EBEBEB"/>
<path d="M13.614 29.5405H12.9476V30.8814H13.614V29.5405Z" fill="#EBEBEB"/>
<path d="M14.7944 29.5405H14.1281V30.8814H14.7944V29.5405Z" fill="#EBEBEB"/>
<path d="M15.9749 29.5405H15.3086V30.8814H15.9749V29.5405Z" fill="#EBEBEB"/>
<path d="M17.1554 29.5405H16.489V30.8814H17.1554V29.5405Z" fill="#EBEBEB"/>
<path d="M12.4334 31.7197H11.7671V33.0606H12.4334V31.7197Z" fill="#EBEBEB"/>
<path d="M13.614 31.7197H12.9476V33.0606H13.614V31.7197Z" fill="#EBEBEB"/>
<path d="M14.7944 31.7197H14.1281V33.0606H14.7944V31.7197Z" fill="#EBEBEB"/>
<path d="M15.9749 31.7197H15.3086V33.0606H15.9749V31.7197Z" fill="#EBEBEB"/>
<path d="M17.1554 31.7197H16.489V33.0606H17.1554V31.7197Z" fill="#EBEBEB"/>
<path d="M12.4334 33.8994H11.7671V35.2403H12.4334V33.8994Z" fill="#EBEBEB"/>
<path d="M13.614 33.8994H12.9476V35.2403H13.614V33.8994Z" fill="#EBEBEB"/>
<path d="M14.7944 33.8994H14.1281V35.2403H14.7944V33.8994Z" fill="#EBEBEB"/>
<path d="M15.9749 33.8994H15.3086V35.2403H15.9749V33.8994Z" fill="#EBEBEB"/>
<path d="M17.1554 33.8994H16.489V35.2403H17.1554V33.8994Z" fill="#EBEBEB"/>
<path d="M12.4334 36.0771H11.7671V37.418H12.4334V36.0771Z" fill="#EBEBEB"/>
<path d="M13.614 36.0771H12.9476V37.418H13.614V36.0771Z" fill="#EBEBEB"/>
<path d="M14.7944 36.0771H14.1281V37.418H14.7944V36.0771Z" fill="#EBEBEB"/>
<path d="M15.9749 36.0771H15.3086V37.418H15.9749V36.0771Z" fill="#EBEBEB"/>
<path d="M17.1554 36.0771H16.489V37.418H17.1554V36.0771Z" fill="#EBEBEB"/>
<path d="M12.4334 38.2568H11.7671V39.5977H12.4334V38.2568Z" fill="#EBEBEB"/>
<path d="M13.614 38.2568H12.9476V39.5977H13.614V38.2568Z" fill="#EBEBEB"/>
<path d="M14.7944 38.2568H14.1281V39.5977H14.7944V38.2568Z" fill="#EBEBEB"/>
<path d="M15.9749 38.2568H15.3086V39.5977H15.9749V38.2568Z" fill="#EBEBEB"/>
<path d="M17.1554 38.2568H16.489V39.5977H17.1554V38.2568Z" fill="#EBEBEB"/>
<path d="M12.4334 40.4365H11.7671V41.7774H12.4334V40.4365Z" fill="#EBEBEB"/>
<path d="M13.614 40.4365H12.9476V41.7774H13.614V40.4365Z" fill="#EBEBEB"/>
<path d="M14.7944 40.4365H14.1281V41.7774H14.7944V40.4365Z" fill="#EBEBEB"/>
<path d="M15.9749 40.4365H15.3086V41.7774H15.9749V40.4365Z" fill="#EBEBEB"/>
<path d="M17.1554 40.4365H16.489V41.7774H17.1554V40.4365Z" fill="#EBEBEB"/>
<path d="M12.4334 42.6162H11.7671V43.9571H12.4334V42.6162Z" fill="#EBEBEB"/>
<path d="M13.614 42.6162H12.9476V43.9571H13.614V42.6162Z" fill="#EBEBEB"/>
<path d="M14.7944 42.6162H14.1281V43.9571H14.7944V42.6162Z" fill="#EBEBEB"/>
<path d="M15.9749 42.6162H15.3086V43.9571H15.9749V42.6162Z" fill="#EBEBEB"/>
<path d="M17.1554 42.6162H16.489V43.9571H17.1554V42.6162Z" fill="#EBEBEB"/>
<path d="M12.4334 44.7959H11.7671V46.1368H12.4334V44.7959Z" fill="#EBEBEB"/>
<path d="M13.614 44.7959H12.9476V46.1368H13.614V44.7959Z" fill="#EBEBEB"/>
<path d="M14.7944 44.7959H14.1281V46.1368H14.7944V44.7959Z" fill="#EBEBEB"/>
<path d="M15.9749 44.7959H15.3086V46.1368H15.9749V44.7959Z" fill="#EBEBEB"/>
<path d="M17.1554 44.7959H16.489V46.1368H17.1554V44.7959Z" fill="#EBEBEB"/>
<path d="M12.4334 46.9751H11.7671V48.316H12.4334V46.9751Z" fill="#EBEBEB"/>
<path d="M13.614 46.9751H12.9476V48.316H13.614V46.9751Z" fill="#EBEBEB"/>
<path d="M14.7944 46.9751H14.1281V48.316H14.7944V46.9751Z" fill="#EBEBEB"/>
<path d="M15.9749 46.9751H15.3086V48.316H15.9749V46.9751Z" fill="#EBEBEB"/>
<path d="M17.1554 46.9751H16.489V48.316H17.1554V46.9751Z" fill="#EBEBEB"/>
<path d="M12.4334 49.1533H11.7671V50.4942H12.4334V49.1533Z" fill="#EBEBEB"/>
<path d="M13.614 49.1533H12.9476V50.4942H13.614V49.1533Z" fill="#EBEBEB"/>
<path d="M14.7944 49.1533H14.1281V50.4942H14.7944V49.1533Z" fill="#EBEBEB"/>
<path d="M15.9749 49.1533H15.3086V50.4942H15.9749V49.1533Z" fill="#EBEBEB"/>
<path d="M17.1554 49.1533H16.489V50.4942H17.1554V49.1533Z" fill="#EBEBEB"/>
<path d="M12.4334 51.3325H11.7671V52.6734H12.4334V51.3325Z" fill="#EBEBEB"/>
<path d="M13.614 51.3325H12.9476V52.6734H13.614V51.3325Z" fill="#EBEBEB"/>
<path d="M14.7944 51.3325H14.1281V52.6734H14.7944V51.3325Z" fill="#EBEBEB"/>
<path d="M15.9749 51.3325H15.3086V52.6734H15.9749V51.3325Z" fill="#EBEBEB"/>
<path d="M17.1554 51.3325H16.489V52.6734H17.1554V51.3325Z" fill="#EBEBEB"/>
<path d="M12.4334 53.5122H11.7671V57.4341H12.4334V53.5122Z" fill="#EBEBEB"/>
<path d="M13.614 53.5122H12.9476V57.4341H13.614V53.5122Z" fill="#EBEBEB"/>
<path d="M14.7944 53.5122H14.1281V57.4341H14.7944V53.5122Z" fill="#EBEBEB"/>
<path d="M15.9749 53.5122H15.3086V57.4341H15.9749V53.5122Z" fill="#EBEBEB"/>
<path d="M17.1554 53.5122H16.489V57.4341H17.1554V53.5122Z" fill="#EBEBEB"/>
<path d="M21.9738 23.3228H17.7507V57.4342H21.9738V23.3228Z" fill="#DBDBDB"/>
<path d="M22.1564 22.6431H17.7507V23.3229H22.1564V22.6431Z" fill="#C7C7C7"/>
<path d="M19.0124 24.3237H18.3461V57.4342H19.0124V24.3237Z" fill="#C7C7C7"/>
<path d="M20.193 24.3237H19.5266V57.4342H20.193V24.3237Z" fill="#C7C7C7"/>
<path d="M21.3734 24.3237H20.707V57.4342H21.3734V24.3237Z" fill="#C7C7C7"/>
<path d="M19.0124 25.1812H18.3461V26.522H19.0124V25.1812Z" fill="#DBDBDB"/>
<path d="M20.193 25.1812H19.5266V26.522H20.193V25.1812Z" fill="#DBDBDB"/>
<path d="M21.3734 25.1812H20.707V26.522H21.3734V25.1812Z" fill="#DBDBDB"/>
<path d="M19.0124 27.3608H18.3461V28.7017H19.0124V27.3608Z" fill="#DBDBDB"/>
<path d="M20.193 27.3608H19.5266V28.7017H20.193V27.3608Z" fill="#DBDBDB"/>
<path d="M21.3734 27.3608H20.707V28.7017H21.3734V27.3608Z" fill="#DBDBDB"/>
<path d="M19.0124 29.5405H18.3461V30.8814H19.0124V29.5405Z" fill="#DBDBDB"/>
<path d="M20.193 29.5405H19.5266V30.8814H20.193V29.5405Z" fill="#DBDBDB"/>
<path d="M21.3734 29.5405H20.707V30.8814H21.3734V29.5405Z" fill="#DBDBDB"/>
<path d="M19.0124 31.7197H18.3461V33.0606H19.0124V31.7197Z" fill="#DBDBDB"/>
<path d="M20.193 31.7197H19.5266V33.0606H20.193V31.7197Z" fill="#DBDBDB"/>
<path d="M21.3734 31.7197H20.707V33.0606H21.3734V31.7197Z" fill="#DBDBDB"/>
<path d="M19.0124 33.8994H18.3461V35.2403H19.0124V33.8994Z" fill="#DBDBDB"/>
<path d="M20.193 33.8994H19.5266V35.2403H20.193V33.8994Z" fill="#DBDBDB"/>
<path d="M21.3734 33.8994H20.707V35.2403H21.3734V33.8994Z" fill="#DBDBDB"/>
<path d="M19.0124 36.0771H18.3461V37.418H19.0124V36.0771Z" fill="#DBDBDB"/>
<path d="M20.193 36.0771H19.5266V37.418H20.193V36.0771Z" fill="#DBDBDB"/>
<path d="M21.3734 36.0771H20.707V37.418H21.3734V36.0771Z" fill="#DBDBDB"/>
<path d="M19.0124 38.2568H18.3461V39.5977H19.0124V38.2568Z" fill="#DBDBDB"/>
<path d="M20.193 38.2568H19.5266V39.5977H20.193V38.2568Z" fill="#DBDBDB"/>
<path d="M21.3734 38.2568H20.707V39.5977H21.3734V38.2568Z" fill="#DBDBDB"/>
<path d="M19.0124 40.4365H18.3461V41.7774H19.0124V40.4365Z" fill="#DBDBDB"/>
<path d="M20.193 40.4365H19.5266V41.7774H20.193V40.4365Z" fill="#DBDBDB"/>
<path d="M21.3734 40.4365H20.707V41.7774H21.3734V40.4365Z" fill="#DBDBDB"/>
<path d="M19.0124 42.6162H18.3461V43.9571H19.0124V42.6162Z" fill="#DBDBDB"/>
<path d="M20.193 42.6162H19.5266V43.9571H20.193V42.6162Z" fill="#DBDBDB"/>
<path d="M21.3734 42.6162H20.707V43.9571H21.3734V42.6162Z" fill="#DBDBDB"/>
<path d="M19.0124 44.7959H18.3461V46.1368H19.0124V44.7959Z" fill="#DBDBDB"/>
<path d="M20.193 44.7959H19.5266V46.1368H20.193V44.7959Z" fill="#DBDBDB"/>
<path d="M21.3734 44.7959H20.707V46.1368H21.3734V44.7959Z" fill="#DBDBDB"/>
<path d="M19.0124 46.9751H18.3461V48.316H19.0124V46.9751Z" fill="#DBDBDB"/>
<path d="M20.193 46.9751H19.5266V48.316H20.193V46.9751Z" fill="#DBDBDB"/>
<path d="M21.3734 46.9751H20.707V48.316H21.3734V46.9751Z" fill="#DBDBDB"/>
<path d="M19.0124 49.1533H18.3461V50.4942H19.0124V49.1533Z" fill="#DBDBDB"/>
<path d="M20.193 49.1533H19.5266V50.4942H20.193V49.1533Z" fill="#DBDBDB"/>
<path d="M21.3734 49.1533H20.707V50.4942H21.3734V49.1533Z" fill="#DBDBDB"/>
<path d="M19.0124 51.3325H18.3461V52.6734H19.0124V51.3325Z" fill="#DBDBDB"/>
<path d="M20.193 51.3325H19.5266V52.6734H20.193V51.3325Z" fill="#DBDBDB"/>
<path d="M21.3734 51.3325H20.707V52.6734H21.3734V51.3325Z" fill="#DBDBDB"/>
<path d="M19.0124 53.5122H18.3461V57.4341H19.0124V53.5122Z" fill="#DBDBDB"/>
<path d="M20.193 53.5122H19.5266V57.4341H20.193V53.5122Z" fill="#DBDBDB"/>
<path d="M21.3734 53.5122H20.707V57.4341H21.3734V53.5122Z" fill="#DBDBDB"/>
<path d="M8.20532 33.5391H1.96631V57.4341H8.20532V33.5391Z" fill="#EBEBEB"/>
<path d="M8.20536 31.9541H2.85425V33.5392H8.20536V31.9541Z" fill="#C7C7C7"/>
<path d="M7.52204 34.3662H2.65125V52.2299H7.52204V34.3662Z" fill="#DBDBDB"/>
<path d="M7.52204 36.0708H2.65125V36.4927H7.52204V36.0708Z" fill="white"/>
<path d="M7.52204 37.8198H2.65125V38.2417H7.52204V37.8198Z" fill="white"/>
<path d="M7.52204 39.5674H2.65125V39.9893H7.52204V39.5674Z" fill="white"/>
<path d="M7.52204 41.3164H2.65125V41.7383H7.52204V41.3164Z" fill="white"/>
<path d="M7.52204 43.0654H2.65125V43.4873H7.52204V43.0654Z" fill="white"/>
<path d="M7.52204 44.813H2.65125V45.2349H7.52204V44.813Z" fill="white"/>
<path d="M7.52204 46.562H2.65125V46.9839H7.52204V46.562Z" fill="white"/>
<path d="M7.52204 48.311H2.65125V48.7329H7.52204V48.311Z" fill="white"/>
<path d="M7.52204 50.0586H2.65125V50.4805H7.52204V50.0586Z" fill="white"/>
<path d="M7.52204 51.8076H2.65125V52.2295H7.52204V51.8076Z" fill="white"/>
<path d="M12.1121 33.5391H8.20532V57.4341H12.1121V33.5391Z" fill="#DBDBDB"/>
<path d="M11.5269 31.9541H8.20532V33.5392H11.5269V31.9541Z" fill="#A6A6A6"/>
<path d="M11.7485 34.3662H8.74487V52.2299H11.7485V34.3662Z" fill="#C7C7C7"/>
<path d="M11.7485 36.0708H8.74487V36.4927H11.7485V36.0708Z" fill="white"/>
<path d="M11.7485 37.8198H8.74487V38.2417H11.7485V37.8198Z" fill="white"/>
<path d="M11.7485 39.5674H8.74487V39.9893H11.7485V39.5674Z" fill="white"/>
<path d="M11.7485 41.3164H8.74487V41.7383H11.7485V41.3164Z" fill="white"/>
<path d="M11.7485 43.0654H8.74487V43.4873H11.7485V43.0654Z" fill="white"/>
<path d="M11.7485 44.813H8.74487V45.2349H11.7485V44.813Z" fill="white"/>
<path d="M11.7485 46.562H8.74487V46.9839H11.7485V46.562Z" fill="white"/>
<path d="M11.7485 48.311H8.74487V48.7329H11.7485V48.311Z" fill="white"/>
<path d="M11.7485 50.0586H8.74487V50.4805H11.7485V50.0586Z" fill="white"/>
<path d="M11.7485 51.8076H8.74487V52.2295H11.7485V51.8076Z" fill="white"/>
<path d="M61.0416 33.9424H57.7098V37.9172H61.0416V33.9424Z" fill="#DBDBDB"/>
<path d="M63.154 33.9424H61.0416V38.0641H63.154V33.9424Z" fill="#C7C7C7"/>
<path d="M63.2961 35.6968H61.199V38.0625H63.2961V35.6968Z" fill="#DBDBDB"/>
<path d="M64.6018 35.6968H63.2944V38.0625H64.6018V35.6968Z" fill="#C7C7C7"/>
<path d="M61.8213 37.6592H56.433V57.4359H61.8213V37.6592Z" fill="#EBEBEB"/>
<path d="M58.7432 38.5083H57.0486V39.2069H58.7432V38.5083Z" fill="white"/>
<path d="M60.9097 38.5083H59.2151V39.2069H60.9097V38.5083Z" fill="white"/>
<path d="M58.7432 39.6953H57.0486V40.3939H58.7432V39.6953Z" fill="white"/>
<path d="M60.9097 39.6953H59.2151V40.3939H60.9097V39.6953Z" fill="white"/>
<path d="M58.7432 40.8828H57.0486V41.5814H58.7432V40.8828Z" fill="white"/>
<path d="M60.9097 40.8828H59.2151V41.5814H60.9097V40.8828Z" fill="white"/>
<path d="M58.7432 42.0698H57.0486V42.7685H58.7432V42.0698Z" fill="white"/>
<path d="M60.9097 42.0698H59.2151V42.7685H60.9097V42.0698Z" fill="white"/>
<path d="M58.7432 43.2568H57.0486V43.9555H58.7432V43.2568Z" fill="white"/>
<path d="M60.9097 43.2568H59.2151V43.9555H60.9097V43.2568Z" fill="white"/>
<path d="M58.7432 44.4438H57.0486V45.1425H58.7432V44.4438Z" fill="white"/>
<path d="M60.9097 44.4438H59.2151V45.1425H60.9097V44.4438Z" fill="white"/>
<path d="M58.7432 45.6313H57.0486V46.33H58.7432V45.6313Z" fill="white"/>
<path d="M60.9097 45.6313H59.2151V46.33H60.9097V45.6313Z" fill="white"/>
<path d="M58.7432 46.8184H57.0486V47.517H58.7432V46.8184Z" fill="white"/>
<path d="M60.9097 46.8184H59.2151V47.517H60.9097V46.8184Z" fill="white"/>
<path d="M58.7432 48.0054H57.0486V48.704H58.7432V48.0054Z" fill="white"/>
<path d="M60.9097 48.0054H59.2151V48.704H60.9097V48.0054Z" fill="white"/>
<path d="M58.7432 49.1929H57.0486V49.8915H58.7432V49.1929Z" fill="white"/>
<path d="M60.9097 49.1929H59.2151V49.8915H60.9097V49.1929Z" fill="white"/>
<path d="M58.7432 50.3779H57.0486V51.0766H58.7432V50.3779Z" fill="white"/>
<path d="M60.9097 50.3779H59.2151V51.0766H60.9097V50.3779Z" fill="white"/>
<path d="M58.7432 51.5654H57.0486V52.2641H58.7432V51.5654Z" fill="white"/>
<path d="M60.9097 51.5654H59.2151V52.2641H60.9097V51.5654Z" fill="white"/>
<path d="M58.7432 52.7524H57.0486V53.4511H58.7432V52.7524Z" fill="white"/>
<path d="M60.9097 52.7524H59.2151V53.4511H60.9097V52.7524Z" fill="white"/>
<path d="M58.7432 53.9395H57.0486V54.6381H58.7432V53.9395Z" fill="white"/>
<path d="M60.9097 53.9395H59.2151V54.6381H60.9097V53.9395Z" fill="white"/>
<path d="M66.1847 37.6592H61.8196V57.4359H66.1847V37.6592Z" fill="#C7C7C7"/>
<path d="M64.3582 54.6396H65.7484V53.941H64.3582V54.6396Z" fill="#EBEBEB"/>
<path d="M62.579 54.6396H63.9692V53.941H62.579V54.6396Z" fill="#EBEBEB"/>
<path d="M64.3582 53.4526H65.7484V52.754H64.3582V53.4526Z" fill="#EBEBEB"/>
<path d="M62.579 53.4526H63.9692V52.754H62.579V53.4526Z" fill="#EBEBEB"/>
<path d="M64.3582 52.2651H65.7484V51.5665H64.3582V52.2651Z" fill="#EBEBEB"/>
<path d="M62.579 52.2651H63.9692V51.5665H62.579V52.2651Z" fill="#EBEBEB"/>
<path d="M64.3582 51.0781H65.7484V50.3795H64.3582V51.0781Z" fill="#EBEBEB"/>
<path d="M62.579 51.0781H63.9692V50.3795H62.579V51.0781Z" fill="#EBEBEB"/>
<path d="M64.3582 49.8892H65.7484V49.1905H64.3582V49.8892Z" fill="#EBEBEB"/>
<path d="M62.579 49.8892H63.9692V49.1905H62.579V49.8892Z" fill="#EBEBEB"/>
<path d="M64.3582 48.7041H65.7484V48.0055H64.3582V48.7041Z" fill="#EBEBEB"/>
<path d="M62.579 48.7041H63.9692V48.0055H62.579V48.7041Z" fill="#EBEBEB"/>
<path d="M64.3582 47.5166H65.7484V46.818H64.3582V47.5166Z" fill="#EBEBEB"/>
<path d="M62.579 47.5166H63.9692V46.818H62.579V47.5166Z" fill="#EBEBEB"/>
<path d="M64.3582 46.3296H65.7484V45.631H64.3582V46.3296Z" fill="#EBEBEB"/>
<path d="M62.579 46.3296H63.9692V45.631H62.579V46.3296Z" fill="#EBEBEB"/>
<path d="M64.3582 45.1426H65.7484V44.444H64.3582V45.1426Z" fill="#EBEBEB"/>
<path d="M62.579 45.1426H63.9692V44.444H62.579V45.1426Z" fill="#EBEBEB"/>
<path d="M64.3582 43.9551H65.7484V43.2565H64.3582V43.9551Z" fill="#EBEBEB"/>
<path d="M62.579 43.9551H63.9692V43.2565H62.579V43.9551Z" fill="#EBEBEB"/>
<path d="M64.3582 42.7681H65.7484V42.0694H64.3582V42.7681Z" fill="#EBEBEB"/>
<path d="M62.579 42.7681H63.9692V42.0694H62.579V42.7681Z" fill="#EBEBEB"/>
<path d="M64.3582 41.5825H65.7484V40.8839H64.3582V41.5825Z" fill="#EBEBEB"/>
<path d="M62.579 41.5825H63.9692V40.8839H62.579V41.5825Z" fill="#EBEBEB"/>
<path d="M64.3582 40.3955H65.7484V39.6969H64.3582V40.3955Z" fill="#EBEBEB"/>
<path d="M62.579 40.3955H63.9692V39.6969H62.579V40.3955Z" fill="#EBEBEB"/>
<path d="M64.3582 39.2085H65.7484V38.5099H64.3582V39.2085Z" fill="#EBEBEB"/>
<path d="M62.579 39.2085H63.9692V38.5099H62.579V39.2085Z" fill="#EBEBEB"/>
<path d="M25.0196 33.9424H21.6879V37.9172H25.0196V33.9424Z" fill="#DBDBDB"/>
<path d="M27.132 33.9424H25.0197V38.0641H27.132V33.9424Z" fill="#C7C7C7"/>
<path d="M27.2741 35.6968H25.177V38.0625H27.2741V35.6968Z" fill="#DBDBDB"/>
<path d="M28.5814 35.6968H27.274V38.0625H28.5814V35.6968Z" fill="#C7C7C7"/>
<path d="M25.7993 37.6592H20.411V57.4359H25.7993V37.6592Z" fill="#EBEBEB"/>
<path d="M22.7212 38.5083H21.0266V39.2069H22.7212V38.5083Z" fill="white"/>
<path d="M24.8877 38.5083H23.1931V39.2069H24.8877V38.5083Z" fill="white"/>
<path d="M22.7212 39.6953H21.0266V40.3939H22.7212V39.6953Z" fill="white"/>
<path d="M24.8877 39.6953H23.1931V40.3939H24.8877V39.6953Z" fill="white"/>
<path d="M22.7212 40.8828H21.0266V41.5814H22.7212V40.8828Z" fill="white"/>
<path d="M24.8877 40.8828H23.1931V41.5814H24.8877V40.8828Z" fill="white"/>
<path d="M22.7212 42.0698H21.0266V42.7685H22.7212V42.0698Z" fill="white"/>
<path d="M24.8877 42.0698H23.1931V42.7685H24.8877V42.0698Z" fill="white"/>
<path d="M22.7212 43.2568H21.0266V43.9555H22.7212V43.2568Z" fill="white"/>
<path d="M24.8877 43.2568H23.1931V43.9555H24.8877V43.2568Z" fill="white"/>
<path d="M22.7212 44.4438H21.0266V45.1425H22.7212V44.4438Z" fill="white"/>
<path d="M24.8877 44.4438H23.1931V45.1425H24.8877V44.4438Z" fill="white"/>
<path d="M22.7212 45.6313H21.0266V46.33H22.7212V45.6313Z" fill="white"/>
<path d="M24.8877 45.6313H23.1931V46.33H24.8877V45.6313Z" fill="white"/>
<path d="M22.7212 46.8184H21.0266V47.517H22.7212V46.8184Z" fill="white"/>
<path d="M24.8877 46.8184H23.1931V47.517H24.8877V46.8184Z" fill="white"/>
<path d="M22.7212 48.0054H21.0266V48.704H22.7212V48.0054Z" fill="white"/>
<path d="M24.8877 48.0054H23.1931V48.704H24.8877V48.0054Z" fill="white"/>
<path d="M22.7212 49.1929H21.0266V49.8915H22.7212V49.1929Z" fill="white"/>
<path d="M24.8877 49.1929H23.1931V49.8915H24.8877V49.1929Z" fill="white"/>
<path d="M22.7212 50.3779H21.0266V51.0766H22.7212V50.3779Z" fill="white"/>
<path d="M24.8877 50.3779H23.1931V51.0766H24.8877V50.3779Z" fill="white"/>
<path d="M22.7212 51.5654H21.0266V52.2641H22.7212V51.5654Z" fill="white"/>
<path d="M24.8877 51.5654H23.1931V52.2641H24.8877V51.5654Z" fill="white"/>
<path d="M22.7212 52.7524H21.0266V53.4511H22.7212V52.7524Z" fill="white"/>
<path d="M24.8877 52.7524H23.1931V53.4511H24.8877V52.7524Z" fill="white"/>
<path d="M22.7212 53.9395H21.0266V54.6381H22.7212V53.9395Z" fill="white"/>
<path d="M24.8877 53.9395H23.1931V54.6381H24.8877V53.9395Z" fill="white"/>
<path d="M30.1627 37.6592H25.7976V57.4359H30.1627V37.6592Z" fill="#C7C7C7"/>
<path d="M28.3362 54.6396H29.7264V53.941H28.3362V54.6396Z" fill="#EBEBEB"/>
<path d="M26.5571 54.6396H27.9473V53.941H26.5571V54.6396Z" fill="#EBEBEB"/>
<path d="M28.3362 53.4526H29.7264V52.754H28.3362V53.4526Z" fill="#EBEBEB"/>
<path d="M26.5571 53.4526H27.9473V52.754H26.5571V53.4526Z" fill="#EBEBEB"/>
<path d="M28.3362 52.2651H29.7264V51.5665H28.3362V52.2651Z" fill="#EBEBEB"/>
<path d="M26.5571 52.2651H27.9473V51.5665H26.5571V52.2651Z" fill="#EBEBEB"/>
<path d="M28.3362 51.0781H29.7264V50.3795H28.3362V51.0781Z" fill="#EBEBEB"/>
<path d="M26.5571 51.0781H27.9473V50.3795H26.5571V51.0781Z" fill="#EBEBEB"/>
<path d="M28.3362 49.8892H29.7264V49.1905H28.3362V49.8892Z" fill="#EBEBEB"/>
<path d="M26.5571 49.8892H27.9473V49.1905H26.5571V49.8892Z" fill="#EBEBEB"/>
<path d="M28.3362 48.7041H29.7264V48.0055H28.3362V48.7041Z" fill="#EBEBEB"/>
<path d="M26.5571 48.7041H27.9473V48.0055H26.5571V48.7041Z" fill="#EBEBEB"/>
<path d="M28.3362 47.5166H29.7264V46.818H28.3362V47.5166Z" fill="#EBEBEB"/>
<path d="M26.5571 47.5166H27.9473V46.818H26.5571V47.5166Z" fill="#EBEBEB"/>
<path d="M28.3362 46.3296H29.7264V45.631H28.3362V46.3296Z" fill="#EBEBEB"/>
<path d="M26.5571 46.3296H27.9473V45.631H26.5571V46.3296Z" fill="#EBEBEB"/>
<path d="M28.3362 45.1426H29.7264V44.444H28.3362V45.1426Z" fill="#EBEBEB"/>
<path d="M26.5571 45.1426H27.9473V44.444H26.5571V45.1426Z" fill="#EBEBEB"/>
<path d="M28.3362 43.9551H29.7264V43.2565H28.3362V43.9551Z" fill="#EBEBEB"/>
<path d="M26.5571 43.9551H27.9473V43.2565H26.5571V43.9551Z" fill="#EBEBEB"/>
<path d="M28.3362 42.7681H29.7264V42.0694H28.3362V42.7681Z" fill="#EBEBEB"/>
<path d="M26.5571 42.7681H27.9473V42.0694H26.5571V42.7681Z" fill="#EBEBEB"/>
<path d="M28.3362 41.5825H29.7264V40.8839H28.3362V41.5825Z" fill="#EBEBEB"/>
<path d="M26.5571 41.5825H27.9473V40.8839H26.5571V41.5825Z" fill="#EBEBEB"/>
<path d="M28.3362 40.3955H29.7264V39.6969H28.3362V40.3955Z" fill="#EBEBEB"/>
<path d="M26.5571 40.3955H27.9473V39.6969H26.5571V40.3955Z" fill="#EBEBEB"/>
<path d="M28.3362 39.2085H29.7264V38.5099H28.3362V39.2085Z" fill="#EBEBEB"/>
<path d="M26.5571 39.2085H27.9473V38.5099H26.5571V39.2085Z" fill="#EBEBEB"/>
<path d="M34.4992 68.9985C50.5807 68.9985 63.6174 67.6831 63.6174 66.0605C63.6174 64.4379 50.5807 63.1226 34.4992 63.1226C18.4176 63.1226 5.38098 64.4379 5.38098 66.0605C5.38098 67.6831 18.4176 68.9985 34.4992 68.9985Z" fill="#EBEBEB"/>
<path d="M50.9246 44.5479H44.5706V57.434H50.9246V44.5479Z" fill="#37474F"/>
<path d="M46.6948 45.6636H45.5701V46.4527H46.6948V45.6636Z" fill="#455A64"/>
<path d="M46.6948 47.3496H45.5701V48.1388H46.6948V47.3496Z" fill="#455A64"/>
<path d="M46.6948 49.0356H45.5701V49.8248H46.6948V49.0356Z" fill="#455A64"/>
<path d="M46.6948 50.7231H45.5701V51.5123H46.6948V50.7231Z" fill="#455A64"/>
<path d="M46.6948 52.4092H45.5701V53.1983H46.6948V52.4092Z" fill="#455A64"/>
<path d="M46.6948 54.0947H45.5701V54.8839H46.6948V54.0947Z" fill="#455A64"/>
<path d="M46.6948 55.7808H45.5701V56.5699H46.6948V55.7808Z" fill="#455A64"/>
<path d="M48.3133 45.6636H47.1886V46.4527H48.3133V45.6636Z" fill="#455A64"/>
<path d="M48.3133 47.3496H47.1886V48.1388H48.3133V47.3496Z" fill="#455A64"/>
<path d="M48.3133 49.0356H47.1886V49.8248H48.3133V49.0356Z" fill="#455A64"/>
<path d="M48.3133 50.7231H47.1886V51.5123H48.3133V50.7231Z" fill="#455A64"/>
<path d="M48.3133 52.4092H47.1886V53.1983H48.3133V52.4092Z" fill="#455A64"/>
<path d="M48.3133 54.0947H47.1886V54.8839H48.3133V54.0947Z" fill="#455A64"/>
<path d="M48.3133 55.7808H47.1886V56.5699H48.3133V55.7808Z" fill="#455A64"/>
<path d="M49.9267 45.6636H48.802V46.4527H49.9267V45.6636Z" fill="#455A64"/>
<path d="M49.9267 47.3496H48.802V48.1388H49.9267V47.3496Z" fill="#455A64"/>
<path d="M49.9267 49.0356H48.802V49.8248H49.9267V49.0356Z" fill="#455A64"/>
<path d="M49.9267 50.7231H48.802V51.5123H49.9267V50.7231Z" fill="#455A64"/>
<path d="M49.9267 52.4092H48.802V53.1983H49.9267V52.4092Z" fill="#455A64"/>
<path d="M49.9267 54.0947H48.802V54.8839H49.9267V54.0947Z" fill="#455A64"/>
<path d="M49.9267 55.7808H48.802V56.5699H49.9267V55.7808Z" fill="#455A64"/>
<path d="M50.9263 43.2056H46.6948V44.5482H50.9263V43.2056Z" fill="#455A64"/>
<path d="M50.9262 42.3735H48.2439V43.2054H50.9262V42.3735Z" fill="#37474F"/>
<path d="M55.3844 44.5479H50.9263V57.434H55.3844V44.5479Z" fill="#263238"/>
<path d="M54.0128 56.4434H54.9277V55.6542H54.0128V56.4434Z" fill="#37474F"/>
<path d="M54.0128 54.7593H54.9277V53.9701H54.0128V54.7593Z" fill="#37474F"/>
<path d="M54.0128 53.0732H54.9277V52.2841H54.0128V53.0732Z" fill="#37474F"/>
<path d="M54.0128 51.3857H54.9277V50.5966H54.0128V51.3857Z" fill="#37474F"/>
<path d="M54.0128 49.6997H54.9277V48.9106H54.0128V49.6997Z" fill="#37474F"/>
<path d="M54.0128 48.0117H54.9277V47.2226H54.0128V48.0117Z" fill="#37474F"/>
<path d="M54.0128 46.3276H54.9277V45.5385H54.0128V46.3276Z" fill="#37474F"/>
<path d="M52.697 56.4434H53.6119V55.6542H52.697V56.4434Z" fill="#37474F"/>
<path d="M52.697 54.7593H53.6119V53.9701H52.697V54.7593Z" fill="#37474F"/>
<path d="M52.697 53.0732H53.6119V52.2841H52.697V53.0732Z" fill="#37474F"/>
<path d="M52.697 51.3857H53.6119V50.5966H52.697V51.3857Z" fill="#37474F"/>
<path d="M52.697 49.6997H53.6119V48.9106H52.697V49.6997Z" fill="#37474F"/>
<path d="M52.697 48.0117H53.6119V47.2226H52.697V48.0117Z" fill="#37474F"/>
<path d="M52.697 46.3276H53.6119V45.5385H52.697V46.3276Z" fill="#37474F"/>
<path d="M51.3812 56.4434H52.2961V55.6542H51.3812V56.4434Z" fill="#37474F"/>
<path d="M51.3812 54.7593H52.2961V53.9701H51.3812V54.7593Z" fill="#37474F"/>
<path d="M51.3812 53.0732H52.2961V52.2841H51.3812V53.0732Z" fill="#37474F"/>
<path d="M51.3812 51.3857H52.2961V50.5966H51.3812V51.3857Z" fill="#37474F"/>
<path d="M51.3812 49.6997H52.2961V48.9106H51.3812V49.6997Z" fill="#37474F"/>
<path d="M51.3812 48.0117H52.2961V47.2226H51.3812V48.0117Z" fill="#37474F"/>
<path d="M51.3812 46.3276H52.2961V45.5385H51.3812V46.3276Z" fill="#37474F"/>
<path d="M54.7096 43.2056H50.9263V44.5482H54.7096V43.2056Z" fill="#37474F"/>
<path d="M52.9761 42.3735H50.9263V43.2054H52.9761V42.3735Z" fill="#263238"/>
<path d="M49.1961 7.625H50.911C47.1514 7.625 44.1054 10.7492 44.1054 14.6027C44.1054 18.4563 47.1514 21.5821 50.911 21.5821H49.1961C45.4364 21.5821 42.3905 18.458 42.3905 14.6027C42.3905 10.7475 45.4364 7.625 49.1961 7.625Z" fill="#FFC727"/>
<g opacity="0.1">
<path d="M49.1961 7.625H50.911C47.1514 7.625 44.1054 10.7492 44.1054 14.6027C44.1054 18.4563 47.1514 21.5821 50.911 21.5821H49.1961C45.4364 21.5821 42.3905 18.458 42.3905 14.6027C42.3905 10.7475 45.4364 7.625 49.1961 7.625Z" fill="black"/>
</g>
<path d="M50.9111 41.3862H49.1962C56.1049 33.2555 62.5756 24.3459 61.6252 14.5071C61.0078 8.13404 56.7239 1.78662 49.1962 1.78662H50.9111C58.4371 1.78662 62.7211 8.13404 63.3384 14.5071C64.2906 24.3459 57.8198 33.2572 50.9111 41.3862Z" fill="#FFC727"/>
<g opacity="0.1">
<path d="M50.9111 41.3862H49.1962C56.1049 33.2555 62.5756 24.3459 61.6252 14.5071C61.0078 8.13404 56.7239 1.78662 49.1962 1.78662H50.9111C58.4371 1.78662 62.7211 8.13404 63.3384 14.5071C64.2906 24.3459 57.8198 33.2572 50.9111 41.3862Z" fill="black"/>
</g>
<path d="M61.6251 14.5073C62.5773 24.3462 56.1066 33.2575 49.1978 41.3882C42.2975 33.2575 35.8268 24.3462 36.7773 14.5073C37.3963 8.13428 41.6785 1.78857 49.1978 1.78857C56.7171 1.78857 61.0078 8.13428 61.6251 14.5073ZM49.1978 21.5841C52.9659 21.5841 56.0119 18.4599 56.0119 14.6047C56.0119 10.7494 52.9659 7.62697 49.1978 7.62697C45.4297 7.62697 42.3923 10.7511 42.3923 14.6047C42.3923 18.4582 45.4382 21.5841 49.1978 21.5841Z" fill="#FFC727"/>
<path d="M0.822998 58.2268L9.24203 58.1858L17.6611 58.1704L34.4991 58.1431L51.3372 58.1704L59.7562 58.1858L68.1752 58.2268L59.7562 58.2695L51.3372 58.2848L34.4991 58.3122L17.6611 58.2848L9.24203 58.2695L0.822998 58.2268Z" fill="#263238"/>
<path d="M68.2057 57.4341H0.792603V58.2267H68.2057V57.4341Z" fill="#C7C7C7"/>
<path d="M2.74257 57.4341C2.76963 57.5656 2.7747 57.6988 2.77639 57.8304C2.77639 57.9619 2.76963 58.0951 2.74257 58.2267C2.71551 58.0951 2.71043 57.9619 2.70874 57.8304C2.70874 57.6988 2.71551 57.5656 2.74257 57.4341Z" fill="#263238"/>
<path d="M5.01051 57.4341C5.03757 57.5656 5.04264 57.6988 5.04433 57.8304C5.04433 57.9619 5.03757 58.0951 5.01051 58.2267C4.98345 58.0951 4.97838 57.9619 4.97668 57.8304C4.97668 57.6988 4.98345 57.5656 5.01051 57.4341Z" fill="#263238"/>
<path d="M7.27845 57.4341C7.30551 57.5656 7.31059 57.6988 7.31228 57.8304C7.31228 57.9619 7.30551 58.0951 7.27845 58.2267C7.25139 58.0951 7.24632 57.9619 7.24463 57.8304C7.24463 57.6988 7.25139 57.5656 7.27845 57.4341Z" fill="#263238"/>
<path d="M9.54811 57.4341C9.57517 57.5656 9.58024 57.6988 9.58193 57.8304C9.58193 57.9619 9.57517 58.0951 9.54811 58.2267C9.52105 58.0951 9.51597 57.9619 9.51428 57.8304C9.51428 57.6988 9.52105 57.5656 9.54811 57.4341Z" fill="#263238"/>
<path d="M11.8161 57.4341C11.8431 57.5656 11.8482 57.6988 11.8499 57.8304C11.8499 57.9619 11.8431 58.0951 11.8161 58.2267C11.789 58.0951 11.7839 57.9619 11.7822 57.8304C11.7822 57.6988 11.789 57.5656 11.8161 57.4341Z" fill="#263238"/>
<path d="M14.0841 57.4341C14.1112 57.5656 14.1163 57.6988 14.1179 57.8304C14.1179 57.9619 14.1112 58.0951 14.0841 58.2267C14.0571 58.0951 14.052 57.9619 14.0503 57.8304C14.0503 57.6988 14.0571 57.5656 14.0841 57.4341Z" fill="#263238"/>
<path d="M16.3521 57.4341C16.3791 57.5656 16.3842 57.6988 16.3859 57.8304C16.3859 57.9619 16.3791 58.0951 16.3521 58.2267C16.325 58.0951 16.3199 57.9619 16.3182 57.8304C16.3182 57.6988 16.325 57.5656 16.3521 57.4341Z" fill="#263238"/>
<path d="M18.6217 57.4341C18.6488 57.5656 18.6538 57.6988 18.6555 57.8304C18.6555 57.9619 18.6488 58.0951 18.6217 58.2267C18.5947 58.0951 18.5896 57.9619 18.5879 57.8304C18.5879 57.6988 18.5947 57.5656 18.6217 57.4341Z" fill="#263238"/>
<path d="M20.8897 57.4341C20.9167 57.5656 20.9218 57.6988 20.9235 57.8304C20.9235 57.9619 20.9167 58.0951 20.8897 58.2267C20.8626 58.0951 20.8575 57.9619 20.8558 57.8304C20.8558 57.6988 20.8626 57.5656 20.8897 57.4341Z" fill="#263238"/>
<path d="M23.1576 57.4341C23.1847 57.5656 23.1897 57.6988 23.1914 57.8304C23.1914 57.9619 23.1847 58.0951 23.1576 58.2267C23.1305 58.0951 23.1255 57.9619 23.1238 57.8304C23.1238 57.6988 23.1305 57.5656 23.1576 57.4341Z" fill="#263238"/>
<path d="M25.4256 57.4341C25.4526 57.5656 25.4577 57.6988 25.4594 57.8304C25.4594 57.9619 25.4526 58.0951 25.4256 58.2267C25.3985 58.0951 25.3934 57.9619 25.3917 57.8304C25.3917 57.6988 25.3985 57.5656 25.4256 57.4341Z" fill="#263238"/>
<path d="M27.6952 57.4341C27.7223 57.5656 27.7273 57.6988 27.729 57.8304C27.729 57.9619 27.7223 58.0951 27.6952 58.2267C27.6681 58.0951 27.6631 57.9619 27.6614 57.8304C27.6614 57.6988 27.6681 57.5656 27.6952 57.4341Z" fill="#263238"/>
<path d="M29.9631 57.4341C29.9902 57.5656 29.9953 57.6988 29.997 57.8304C29.997 57.9619 29.9902 58.0951 29.9631 58.2267C29.9361 58.0951 29.931 57.9619 29.9293 57.8304C29.9293 57.6988 29.9361 57.5656 29.9631 57.4341Z" fill="#263238"/>
<path d="M32.2312 57.4341C32.2583 57.5656 32.2633 57.6988 32.265 57.8304C32.265 57.9619 32.2583 58.0951 32.2312 58.2267C32.2042 58.0951 32.1991 57.9619 32.1974 57.8304C32.1974 57.6988 32.2042 57.5656 32.2312 57.4341Z" fill="#263238"/>
<path d="M34.4992 57.4341C34.5262 57.5656 34.5313 57.6988 34.533 57.8304C34.533 57.9619 34.5262 58.0951 34.4992 58.2267C34.4721 58.0951 34.467 57.9619 34.4653 57.8304C34.4653 57.6988 34.4721 57.5656 34.4992 57.4341Z" fill="#263238"/>
<path d="M36.7688 57.4341C36.7959 57.5656 36.8009 57.6988 36.8026 57.8304C36.8026 57.9619 36.7959 58.0951 36.7688 58.2267C36.7417 58.0951 36.7367 57.9619 36.735 57.8304C36.735 57.6988 36.7417 57.5656 36.7688 57.4341Z" fill="#263238"/>
<path d="M39.0368 57.4341C39.0638 57.5656 39.0689 57.6988 39.0706 57.8304C39.0706 57.9619 39.0638 58.0951 39.0368 58.2267C39.0097 58.0951 39.0046 57.9619 39.0029 57.8304C39.0029 57.6988 39.0097 57.5656 39.0368 57.4341Z" fill="#263238"/>
<path d="M41.3047 57.4341C41.3318 57.5656 41.3368 57.6988 41.3385 57.8304C41.3385 57.9619 41.3318 58.0951 41.3047 58.2267C41.2776 58.0951 41.2726 57.9619 41.2709 57.8304C41.2709 57.6988 41.2776 57.5656 41.3047 57.4341Z" fill="#263238"/>
<path d="M43.5726 57.4341C43.5997 57.5656 43.6048 57.6988 43.6065 57.8304C43.6065 57.9619 43.5997 58.0951 43.5726 58.2267C43.5456 58.0951 43.5405 57.9619 43.5388 57.8304C43.5388 57.6988 43.5456 57.5656 43.5726 57.4341Z" fill="#263238"/>
<path d="M45.8423 57.4341C45.8694 57.5656 45.8744 57.6988 45.8761 57.8304C45.8761 57.9619 45.8694 58.0951 45.8423 58.2267C45.8152 58.0951 45.8102 57.9619 45.8085 57.8304C45.8085 57.6988 45.8152 57.5656 45.8423 57.4341Z" fill="#263238"/>
<path d="M48.1102 57.4341C48.1373 57.5656 48.1424 57.6988 48.1441 57.8304C48.1441 57.9619 48.1373 58.0951 48.1102 58.2267C48.0832 58.0951 48.0781 57.9619 48.0764 57.8304C48.0764 57.6988 48.0832 57.5656 48.1102 57.4341Z" fill="#263238"/>
<path d="M50.3783 57.4341C50.4054 57.5656 50.4104 57.6988 50.4121 57.8304C50.4121 57.9619 50.4054 58.0951 50.3783 58.2267C50.3512 58.0951 50.3462 57.9619 50.3445 57.8304C50.3445 57.6988 50.3512 57.5656 50.3783 57.4341Z" fill="#263238"/>
<path d="M52.6462 57.4341C52.6733 57.5656 52.6784 57.6988 52.6801 57.8304C52.6801 57.9619 52.6733 58.0951 52.6462 58.2267C52.6192 58.0951 52.6141 57.9619 52.6124 57.8304C52.6124 57.6988 52.6192 57.5656 52.6462 57.4341Z" fill="#263238"/>
<path d="M54.9159 57.4341C54.943 57.5656 54.948 57.6988 54.9497 57.8304C54.9497 57.9619 54.943 58.0951 54.9159 58.2267C54.8888 58.0951 54.8838 57.9619 54.8821 57.8304C54.8821 57.6988 54.8888 57.5656 54.9159 57.4341Z" fill="#263238"/>
<path d="M57.1839 57.4341C57.2109 57.5656 57.216 57.6988 57.2177 57.8304C57.2177 57.9619 57.2109 58.0951 57.1839 58.2267C57.1568 58.0951 57.1517 57.9619 57.15 57.8304C57.15 57.6988 57.1568 57.5656 57.1839 57.4341Z" fill="#263238"/>
<path d="M59.4518 57.4341C59.4789 57.5656 59.4839 57.6988 59.4856 57.8304C59.4856 57.9619 59.4789 58.0951 59.4518 58.2267C59.4247 58.0951 59.4197 57.9619 59.418 57.8304C59.418 57.6988 59.4247 57.5656 59.4518 57.4341Z" fill="#263238"/>
<path d="M61.7197 57.4341C61.7468 57.5656 61.7519 57.6988 61.7536 57.8304C61.7536 57.9619 61.7468 58.0951 61.7197 58.2267C61.6927 58.0951 61.6876 57.9619 61.6859 57.8304C61.6859 57.6988 61.6927 57.5656 61.7197 57.4341Z" fill="#263238"/>
<path d="M63.9894 57.4341C64.0164 57.5656 64.0215 57.6988 64.0232 57.8304C64.0232 57.9619 64.0164 58.0951 63.9894 58.2267C63.9623 58.0951 63.9573 57.9619 63.9556 57.8304C63.9556 57.6988 63.9623 57.5656 63.9894 57.4341Z" fill="#263238"/>
<path d="M66.2573 57.4341C66.2844 57.5656 66.2895 57.6988 66.2912 57.8304C66.2912 57.9619 66.2844 58.0951 66.2573 58.2267C66.2303 58.0951 66.2252 57.9619 66.2235 57.8304C66.2235 57.6988 66.2303 57.5656 66.2573 57.4341Z" fill="#263238"/>
<path d="M7.85528 57.434H4.13623C4.13623 57.434 4.14469 56.8755 4.51 56.7269C4.87531 56.5782 5.09348 56.8686 5.09348 56.8686C5.09348 56.8686 5.24231 55.8403 5.92388 55.8403C6.60545 55.8403 6.93017 56.7269 6.93017 56.7269C6.93017 56.7269 7.08238 56.4587 7.46122 56.5082C7.84006 56.5577 7.85359 57.434 7.85359 57.434H7.85528Z" fill="#37474F"/>
<path d="M67.6257 57.434C67.6257 57.434 67.5123 56.8977 67.284 56.814C67.0557 56.732 66.9187 56.9728 66.9187 56.9728C66.9187 56.9728 66.8646 56.4604 66.5416 56.3066C66.2185 56.1529 65.9767 56.4672 65.9767 56.4672C65.9767 56.4672 65.7298 55.8164 65.2867 55.8164C64.8436 55.8164 64.6203 56.7695 64.6203 56.7695C64.6203 56.7695 64.3599 56.486 64.0909 56.6466C63.8237 56.8071 63.8237 57.4357 63.8237 57.4357H67.6257V57.434Z" fill="#37474F"/>
<path d="M32.9078 57.434C32.9078 57.434 32.7944 56.8977 32.5661 56.814C32.3378 56.732 32.2008 56.9728 32.2008 56.9728C32.2008 56.9728 32.1467 56.4604 31.8237 56.3066C31.5006 56.1529 31.2588 56.4672 31.2588 56.4672C31.2588 56.4672 31.0119 55.8164 30.5688 55.8164C30.1257 55.8164 29.9024 56.7695 29.9024 56.7695C29.9024 56.7695 29.642 56.486 29.3731 56.6466C29.1058 56.8071 29.1058 57.4357 29.1058 57.4357H32.9078V57.434Z" fill="#37474F"/>
<path d="M4.80255 57.4338H1.37439C1.37439 57.4338 1.4877 56.9452 1.71433 56.9111C1.94096 56.8769 2.04751 57.1024 2.04751 57.1024C2.04751 57.1024 2.03736 56.4208 2.46186 56.3064C2.88637 56.1902 3.24322 56.7915 3.24322 56.7915C3.24322 56.7915 3.50874 56.4482 3.87236 56.4704C4.23429 56.4926 4.32731 57.0597 4.32731 57.0597C4.32731 57.0597 4.6571 56.8632 4.80424 57.4338H4.80255Z" fill="#455A64"/>
<path d="M29.8465 57.4338H26.4183C26.4183 57.4338 26.5316 56.9452 26.7583 56.9111C26.9849 56.8769 27.0915 57.1024 27.0915 57.1024C27.0915 57.1024 27.0813 56.4208 27.5058 56.3064C27.9303 56.1902 28.2872 56.7915 28.2872 56.7915C28.2872 56.7915 28.5527 56.4482 28.9163 56.4704C29.2782 56.4926 29.3713 57.0597 29.3713 57.0597C29.3713 57.0597 29.701 56.8632 29.8482 57.4338H29.8465Z" fill="#455A64"/>
<path d="M64.069 57.4339H61.9634C61.9634 57.4339 61.9685 57.1179 62.1748 57.0325C62.3811 56.9488 62.5046 57.1127 62.5046 57.1127C62.5046 57.1127 62.5891 56.5303 62.9747 56.5303C63.3603 56.5303 63.5447 57.0325 63.5447 57.0325C63.5447 57.0325 63.6309 56.8804 63.8457 56.9095C64.0605 56.9385 64.069 57.4339 64.069 57.4339Z" fill="#455A64"/>
<path d="M38.2995 57.4339H36.1938C36.1938 57.4339 36.1989 57.1179 36.4053 57.0325C36.6116 56.9488 36.735 57.1127 36.735 57.1127C36.735 57.1127 36.8196 56.5303 37.2052 56.5303C37.5908 56.5303 37.7752 57.0325 37.7752 57.0325C37.7752 57.0325 37.8614 56.8804 38.0762 56.9095C38.291 56.9385 38.2995 57.4339 38.2995 57.4339Z" fill="#455A64"/>
<path d="M29.921 6.08777C29.7011 8.20927 27.8187 9.75001 25.7182 9.52795C24.8692 9.43742 24.1149 9.07359 23.5297 8.5304L21.6152 8.81395L22.5725 7.1434C22.3408 6.57288 22.2427 5.93745 22.3103 5.28324C22.5302 3.16174 24.4126 1.621 26.5131 1.84306C28.6136 2.06512 30.1391 3.96627 29.9193 6.08777H29.921Z" fill="white"/>
<path d="M29.921 6.08787C29.8415 6.79333 29.5861 7.48513 29.1498 8.0471C29.05 8.194 28.9197 8.31699 28.8031 8.45022C28.6694 8.56637 28.546 8.69619 28.3988 8.79526C28.1198 9.0122 27.8052 9.18301 27.4754 9.31453C27.149 9.45289 26.7972 9.51951 26.4455 9.56221C26.2679 9.57246 26.092 9.58784 25.9144 9.57246C25.7368 9.56905 25.5592 9.54855 25.385 9.51609C24.6849 9.38798 24.0219 9.05661 23.4925 8.5732L23.5382 8.58687L21.6271 8.88408L21.4884 8.90629L21.5594 8.7833L22.5116 7.10934L22.5065 7.17595C22.0431 6.0725 22.148 4.76065 22.7416 3.73236C23.0376 3.21821 23.4519 2.7741 23.939 2.44443C24.4261 2.11305 24.9927 1.90466 25.5711 1.82608C26.1512 1.74922 26.7465 1.80217 27.3012 1.98665C27.8543 2.17454 28.3616 2.49055 28.776 2.9005C29.6199 3.71186 30.0444 4.92805 29.921 6.09129V6.08787ZM29.921 6.08787C30.0377 4.92293 29.6047 3.71528 28.7591 2.91416C28.3396 2.51446 27.8323 2.21041 27.2843 2.03447C26.7347 1.86025 26.1478 1.81925 25.5829 1.90636C25.018 1.99348 24.4701 2.207 24.0033 2.53667C23.5365 2.86804 23.1424 3.3002 22.8583 3.79727C22.5691 4.29263 22.4186 4.86143 22.3729 5.43195C22.3374 6.00417 22.4304 6.58323 22.6418 7.11446L22.6554 7.14862L22.6368 7.17937L21.6744 8.84651L21.6068 8.74402L23.523 8.47242L23.55 8.46901L23.5686 8.48609C24.0743 8.96608 24.7153 9.30087 25.4003 9.43923C25.5711 9.47339 25.7453 9.4956 25.9195 9.50243C26.0937 9.52122 26.2679 9.50755 26.4438 9.50243C26.7905 9.46656 27.1389 9.40677 27.4653 9.27525C27.7934 9.15226 28.1096 8.98828 28.3887 8.77306C28.5358 8.67399 28.6593 8.54758 28.7929 8.43314C28.9096 8.30161 29.0398 8.18033 29.1413 8.03343C29.581 7.47658 29.8398 6.78821 29.9243 6.08446L29.921 6.08787Z" fill="#263238"/>
<path d="M25.6691 7.88819L24.0354 6.21935L24.5851 5.67104L25.5389 6.64638L27.5211 3.50684L28.1722 3.92533L25.6691 7.88819Z" fill="#FFC727"/>
</g>
<defs>
<clipPath id="clip0_1_15086">
<rect width="68" height="69" fill="white" transform="translate(0.5)"/>
</clipPath>
</defs>
</svg>
