<svg width="18" height="15" viewBox="0 0 18 15" fill="none" xmlns="http://www.w3.org/2000/svg">
<path d="M1 3H7C7.26522 3 7.51957 2.89464 7.70711 2.70711C7.89464 2.51957 8 2.26522 8 2C8 1.73478 7.89464 1.48043 7.70711 1.29289C7.51957 1.10536 7.26522 1 7 1H1C0.734784 1 0.48043 1.10536 0.292893 1.29289C0.105357 1.48043 0 1.73478 0 2C0 2.26522 0.105357 2.51957 0.292893 2.70711C0.48043 2.89464 0.734784 3 1 3V3ZM10 6H12.5V8.5C12.5 8.76522 12.6054 9.01957 12.7929 9.20711C12.9804 9.39464 13.2348 9.5 13.5 9.5C13.7652 9.5 14.0196 9.39464 14.2071 9.20711C14.3946 9.01957 14.5 8.76522 14.5 8.5V6H17C17.2652 6 17.5196 5.89464 17.7071 5.70711C17.8946 5.51957 18 5.26522 18 5C18 4.73478 17.8946 4.48043 17.7071 4.29289C17.5196 4.10536 17.2652 4 17 4H14.5V1.5C14.5 1.23478 14.3946 0.98043 14.2071 0.792893C14.0196 0.605357 13.7652 0.5 13.5 0.5C13.2348 0.5 12.9804 0.605357 12.7929 0.792893C12.6054 0.98043 12.5 1.23478 12.5 1.5V4H10C9.73478 4 9.48043 4.10536 9.29289 4.29289C9.10536 4.48043 9 4.73478 9 5C9 5.26522 9.10536 5.51957 9.29289 5.70711C9.48043 5.89464 9.73478 6 10 6V6ZM1 9H7C7.26522 9 7.51957 8.89464 7.70711 8.70711C7.89464 8.51957 8 8.26522 8 8C8 7.73478 7.89464 7.48043 7.70711 7.29289C7.51957 7.10536 7.26522 7 7 7H1C0.734784 7 0.48043 7.10536 0.292893 7.29289C0.105357 7.48043 0 7.73478 0 8C0 8.26522 0.105357 8.51957 0.292893 8.70711C0.48043 8.89464 0.734784 9 1 9V9ZM17 13H1C0.734784 13 0.48043 13.1054 0.292893 13.2929C0.105357 13.4804 0 13.7348 0 14C0 14.2652 0.105357 14.5196 0.292893 14.7071C0.48043 14.8946 0.734784 15 1 15H17C17.2652 15 17.5196 14.8946 17.7071 14.7071C17.8946 14.5196 18 14.2652 18 14C18 13.7348 17.8946 13.4804 17.7071 13.2929C17.5196 13.1054 17.2652 13 17 13Z" fill="#3535F3"/>
</svg>
