<svg width="124" height="69" viewBox="0 0 124 69" fill="none" xmlns="http://www.w3.org/2000/svg">
<g clip-path="url(#clip0_1_15630)">
<path d="M18.4841 6.39632C35.2282 0.161187 52.246 5.67352 63.7877 17.6801C75.3295 29.6863 99.5518 9.39302 112.398 21.3798C121.165 29.5602 117.15 50.5924 105.129 59.7018C88.7891 72.0835 39.0991 65.8011 28.3501 63.6937C15.9665 61.2662 6.91335 53.9008 3.2351 44.9612C-5.62783 23.4213 11.0849 9.15168 18.4841 6.39632Z" fill="#E7F3FE"/>
<path d="M75.7154 15.0587C75.7723 14.5505 75.8021 14.0339 75.8021 13.5108C75.8021 13.2347 75.7932 12.9606 75.7771 12.6886L73.2269 11.8611C73.0701 10.7825 72.7614 9.75371 72.3241 8.79605L74.0152 6.70891C73.6242 6.01846 73.1757 5.36519 72.6756 4.75599L70.1249 5.59076C69.3814 4.82916 68.5322 4.17225 67.6001 3.6439L67.7452 0.956048C67.0335 0.631032 66.2891 0.365037 65.519 0.164529L63.944 2.34464C63.3302 2.24115 62.6999 2.18618 62.0567 2.18618C61.6183 2.18618 61.1858 2.21205 60.7603 2.26096L59.3026 0C58.5216 0.159274 57.7643 0.385249 57.0373 0.671457L57.0405 3.36335C56.0801 3.84198 55.1975 4.4532 54.4165 5.17398L51.9142 4.2054C51.3827 4.78833 50.8999 5.41653 50.4735 6.08475L52.0525 8.25921C51.5636 9.19423 51.2013 10.2057 50.9881 11.2717L48.3984 11.9629C48.3416 12.4711 48.3118 12.9877 48.3118 13.5108C48.3118 13.7869 48.3206 14.061 48.3368 14.333L50.887 15.1605C51.0438 16.2391 51.3525 17.2679 51.7897 18.2256L50.0987 20.3127C50.4896 21.0031 50.9382 21.6564 51.4383 22.2656L53.9889 21.4308C54.7321 22.1924 55.5816 22.8498 56.5138 23.3777L56.3687 26.0656C57.0804 26.3906 57.8248 26.6566 58.5949 26.8571L60.1698 24.677C60.7836 24.7804 61.4139 24.8354 62.0571 24.8354C62.4956 24.8354 62.928 24.8096 63.3536 24.7606L64.8117 27.0212C65.5927 26.8619 66.35 26.6359 67.077 26.3497L67.0738 23.6578C68.0341 23.1792 68.9167 22.568 69.6977 21.8472L72.2 22.8158C72.7316 22.2329 73.2144 21.6047 73.6408 20.9364L72.0618 18.762C72.5506 17.827 72.9133 16.8155 73.1261 15.7495L75.7159 15.0583L75.7154 15.0587ZM62.0567 18.9184C59.0793 18.9184 56.6653 16.4974 56.6653 13.5108C56.6653 10.5242 59.0789 8.10276 62.0567 8.10276C65.0346 8.10276 67.4482 10.5238 67.4482 13.5108C67.4482 16.4978 65.0346 18.9184 62.0567 18.9184Z" fill="#9EC8FF"/>
<path d="M69.41 19.6786C69.3645 19.6786 69.3189 19.6632 69.2815 19.6317C69.196 19.5601 69.1843 19.4328 69.2553 19.3471C70.6102 17.7127 71.3565 15.6401 71.3565 13.5109C71.3565 12.4914 71.1905 11.4901 70.8625 10.5353C70.8262 10.4298 70.8822 10.3145 70.9874 10.2782C71.0926 10.2418 71.2074 10.298 71.2437 10.4035C71.5863 11.4008 71.76 12.4466 71.76 13.5109C71.76 15.7343 70.9805 17.8991 69.5656 19.6058C69.5257 19.6539 69.4684 19.6786 69.4104 19.6786H69.41Z" fill="white"/>
<path d="M68.6293 6.91467C68.5798 6.91467 68.5302 6.89648 68.4911 6.85969C67.5807 5.99986 66.526 5.3478 65.3565 4.92213C65.2517 4.88413 65.1977 4.76811 65.2356 4.663C65.2735 4.5579 65.3892 4.50373 65.4939 4.54213C66.7155 4.98681 67.8169 5.66716 68.7676 6.56499C68.8486 6.6414 68.8526 6.76954 68.776 6.8508C68.7365 6.89324 68.6829 6.91427 68.6293 6.91427V6.91467Z" fill="white"/>
<path d="M59.9659 4.66077C59.8757 4.66077 59.7938 4.59973 59.7709 4.50797C59.7435 4.39963 59.8092 4.28967 59.9168 4.26259C60.6756 4.07057 61.4611 3.97314 62.251 3.97314C62.3622 3.97314 62.4525 4.0637 62.4525 4.17527C62.4525 4.28684 62.3622 4.37739 62.251 4.37739C61.4941 4.37739 60.7421 4.47077 60.0155 4.65471C59.999 4.65875 59.9825 4.66077 59.9659 4.66077Z" fill="white"/>
<path d="M32.3846 49.3003C32.4236 48.9482 32.4446 48.5909 32.4446 48.2282C32.4446 48.037 32.4382 47.847 32.4273 47.6586L30.6609 47.0854C30.5521 46.3384 30.3385 45.6257 30.0354 44.9627L31.2066 43.5171C30.9357 43.0389 30.625 42.5865 30.2788 42.1645L28.5125 42.7426C27.9974 42.215 27.409 41.7599 26.7638 41.3944L26.8642 39.5328C26.3713 39.3077 25.8558 39.1237 25.3223 38.9847L24.2313 40.4946C23.8061 40.4226 23.3697 40.385 22.924 40.385C22.6201 40.385 22.3207 40.4028 22.0261 40.4367L21.0161 38.8711C20.4749 38.9815 19.9506 39.1379 19.4472 39.336L19.4496 41.2004C18.7847 41.5319 18.1733 41.9551 17.6321 42.4544L15.8991 41.7837C15.5308 42.1875 15.1967 42.6225 14.9009 43.0854L15.9947 44.5912C15.6561 45.2388 15.4051 45.9394 15.2572 46.6775L13.4634 47.1562C13.4243 47.5083 13.4033 47.866 13.4033 48.2282C13.4033 48.4194 13.4098 48.6094 13.4206 48.7978L15.187 49.3711C15.2958 50.1181 15.5094 50.8308 15.8125 51.4938L14.6414 52.9394C14.9122 53.4176 15.2229 53.8699 15.5691 54.292L17.3355 53.7139C17.8505 54.2414 18.4389 54.6966 19.0841 55.0621L18.9838 56.9236C19.4766 57.1488 19.9921 57.3327 20.5257 57.4718L21.6166 55.9619C22.0418 56.0339 22.4782 56.0715 22.924 56.0715C23.2278 56.0715 23.5273 56.0533 23.8219 56.0197L24.8318 57.5854C25.373 57.475 25.8973 57.3186 26.4007 57.1205L26.3983 55.2561C27.0632 54.9246 27.6746 54.5014 28.2158 54.0021L29.9488 54.6728C30.3171 54.2689 30.6512 53.834 30.947 53.3711L29.8533 51.8653C30.1918 51.2177 30.4429 50.5171 30.5908 49.7789L32.3846 49.3003ZM22.924 51.9736C20.8618 51.9736 19.1897 50.2968 19.1897 48.2278C19.1897 46.1589 20.8614 44.4821 22.924 44.4821C24.9866 44.4821 26.6582 46.1589 26.6582 48.2278C26.6582 50.2968 24.9866 51.9736 22.924 51.9736Z" fill="#9EC8FF"/>
<path d="M28.0172 52.562C27.9717 52.562 27.9261 52.5467 27.8886 52.5151C27.8032 52.4436 27.7915 52.3163 27.8624 52.2306C28.7918 51.1096 29.3036 49.6882 29.3036 48.2277C29.3036 47.5283 29.1895 46.8415 28.9647 46.1866C28.9284 46.0811 28.9844 45.9659 29.0896 45.9295C29.1948 45.8932 29.3096 45.9493 29.3459 46.0549C29.5853 46.7522 29.7066 47.4831 29.7066 48.2273C29.7066 49.782 29.1617 51.2951 28.1724 52.4885C28.1325 52.5366 28.0752 52.5612 28.0172 52.5612V52.562Z" fill="white"/>
<path d="M27.4763 43.7211C27.4268 43.7211 27.3772 43.7029 27.3381 43.6661C26.7134 43.0763 25.9904 42.6292 25.1881 42.3374C25.0833 42.2994 25.0293 42.1833 25.0672 42.0782C25.105 41.9731 25.2207 41.919 25.3255 41.957C26.1795 42.2678 26.9496 42.7436 27.6142 43.3714C27.6952 43.4478 27.6992 43.576 27.6226 43.6572C27.5831 43.6993 27.5295 43.7207 27.4759 43.7207L27.4763 43.7211Z" fill="white"/>
<path d="M21.4756 42.1603C21.3853 42.1603 21.3035 42.0992 21.2805 42.0075C21.2531 41.8991 21.3188 41.7892 21.4264 41.7621C21.9572 41.6279 22.5061 41.5596 23.0586 41.5596C23.1698 41.5596 23.2601 41.6501 23.2601 41.7617C23.2601 41.8733 23.1698 41.9638 23.0586 41.9638C22.5395 41.9638 22.0237 42.0277 21.5251 42.1538C21.5086 42.1579 21.4921 42.1599 21.4756 42.1599V42.1603Z" fill="white"/>
<path d="M83.947 25.3576C83.947 25.2533 83.9437 25.1494 83.9385 25.0463L85.262 23.9803C85.1584 23.4483 84.996 22.9377 84.7812 22.4555L83.0724 22.3257C82.6839 21.7108 82.181 21.176 81.5934 20.7511L81.5878 19.0432C81.1118 18.793 80.6044 18.5945 80.0724 18.457L78.9045 19.7179C78.703 19.6961 78.4987 19.6847 78.2916 19.6847C77.7769 19.6847 77.2784 19.7543 76.8045 19.8832L75.4653 18.8192C74.9599 19.0396 74.4848 19.3165 74.0487 19.6431L74.3022 21.3365C73.8029 21.8349 73.3962 22.4264 73.1093 23.0829L71.4433 23.4701C71.3026 23.9859 71.218 24.5252 71.197 25.0811L72.6644 25.932C72.7389 26.6774 72.9578 27.38 73.2919 28.0119L72.5572 29.5553C72.8723 29.9874 73.2346 30.3832 73.6368 30.7337L75.2102 30.1156C75.8288 30.5194 76.5308 30.8052 77.2849 30.941L78.0264 32.4727C78.1146 32.476 78.2033 32.4784 78.2928 32.4784C78.7373 32.4784 79.1721 32.4372 79.5941 32.3587L80.0942 30.7365C80.8228 30.4911 81.4846 30.1006 82.0468 29.5997L83.7003 29.9725C84.0397 29.5731 84.3355 29.1357 84.5813 28.6671L83.6229 27.2551C83.8329 26.6617 83.9474 26.0234 83.9474 25.358L83.947 25.3576ZM78.2295 27.857C76.9141 27.857 75.8473 26.7874 75.8473 25.4675C75.8473 24.1476 76.9137 23.078 78.2295 23.078C79.5453 23.078 80.6117 24.1476 80.6117 25.4675C80.6117 26.7874 79.5453 27.857 78.2295 27.857Z" fill="#9EC8FF"/>
<g opacity="0.8">
<path d="M105.967 11.5923H103.919C103.129 11.5923 102.486 10.9471 102.486 10.154V8.10043C102.486 7.30729 103.129 6.66211 103.919 6.66211H105.967C106.757 6.66211 107.401 7.30729 107.401 8.10043V10.154C107.401 10.9471 106.757 11.5923 105.967 11.5923ZM103.919 7.22846C103.44 7.22846 103.05 7.61977 103.05 8.10083V10.1544C103.05 10.6355 103.44 11.0268 103.919 11.0268H105.967C106.446 11.0268 106.836 10.6355 106.836 10.1544V8.10083C106.836 7.61977 106.446 7.22846 105.967 7.22846H103.919Z" fill="#9EC8FF"/>
</g>
<g opacity="0.8">
<path d="M96.3337 11.5923H94.2864C93.4957 11.5923 92.8525 10.9471 92.8525 10.154V8.10043C92.8525 7.30729 93.4957 6.66211 94.2864 6.66211H96.3337C97.1244 6.66211 97.7676 7.30729 97.7676 8.10043V10.154C97.7676 10.9471 97.1244 11.5923 96.3337 11.5923ZM94.2864 7.22846C93.8069 7.22846 93.4167 7.61977 93.4167 8.10083V10.1544C93.4167 10.6355 93.8069 11.0268 94.2864 11.0268H96.3337C96.8133 11.0268 97.2034 10.6355 97.2034 10.1544V8.10083C97.2034 7.61977 96.8133 7.22846 96.3337 7.22846H94.2864Z" fill="#9EC8FF"/>
</g>
<path d="M95.4378 10.3963C95.4338 10.3963 95.4302 10.3963 95.4261 10.3963C95.3552 10.3927 95.2891 10.3583 95.246 10.3017L93.7746 8.37631C93.6932 8.26999 93.7134 8.11759 93.8193 8.03634C93.9253 7.95508 94.0769 7.97489 94.1583 8.08121L95.456 9.77905L98.844 6.13799C98.9351 6.04016 99.0883 6.0349 99.1858 6.12626C99.2833 6.21762 99.2886 6.37124 99.1975 6.46906L95.6147 10.3195C95.5688 10.3689 95.5047 10.3967 95.4378 10.3967V10.3963Z" fill="#F37168"/>
<path d="M112.734 64.6272C104.353 64.2161 75.8404 64.9126 67.1689 65.1838C58.4974 65.4551 48.4319 64.8257 43.2033 63.8999C37.9746 62.9742 7.75194 63.9788 9.12337 66.4681C10.4948 68.9575 22.589 67.5818 36.3042 68.5823C50.0193 69.5829 80.8647 68.4574 87.8222 68.5823C94.7801 68.7073 101.16 68.3321 110.127 67.8321C119.093 67.3316 117.592 64.8657 112.734 64.6276V64.6272Z" fill="#CCE2FF"/>
<path d="M27.0649 12.5732H9.54456V41.3788H27.0649V12.5732Z" fill="#99BBEB"/>
<path d="M26.4889 13.1602H10.4622V40.2808H26.4889V13.1602Z" fill="white"/>
<path d="M15.2559 24.0358C15.8592 22.7342 16.88 22.3174 18.5565 22.3174C20.5526 22.3174 21.5892 23.0426 21.8829 24.0989C18.3083 24.1482 15.2555 24.0358 15.2555 24.0358H15.2559Z" fill="#9BD6E8"/>
<path d="M17.8597 15.9866C17.0146 16.2247 17.0517 16.7009 16.77 17.1428C16.4883 17.585 15.8761 17.8797 15.8028 18.1744C15.7294 18.4691 15.9914 19.0832 15.6803 19.4272C15.3696 19.7712 15.264 19.943 15.3865 20.2866C15.509 20.6306 15.7782 21.1707 15.8028 21.2443C15.8274 21.3179 16.1699 21.8337 16.5862 21.9073C17.0025 21.9808 17.786 22.1037 18.1777 22.2755C18.5694 22.4473 19.8292 22.0556 20.5284 22.0799C21.2277 22.1045 21.7036 21.5879 21.6549 21.2439C21.6061 20.8999 22.1703 20.2122 22.1691 19.6228C22.1675 18.9898 21.4344 18.5176 21.2385 18.1C21.0427 17.6825 21.2631 16.9455 20.5284 16.5093C20.0642 16.2336 19.745 16.2579 19.3775 16.1354C19.0103 16.0125 18.3981 15.8342 17.8593 15.9862L17.8597 15.9866Z" fill="#3A384D"/>
<path d="M18.8878 23.3567C18.6968 23.6397 18.5566 23.6514 18.349 23.3567C18.1842 23.1223 17.8594 22.5899 17.8594 22.3198V19.6235C17.8594 19.3534 18.0798 19.1323 18.349 19.1323H18.8878C19.1571 19.1323 19.3775 19.3534 19.3775 19.6235V22.3198C19.3775 22.5899 19.0591 23.1029 18.8878 23.3567Z" fill="#F09959"/>
<path d="M18.8878 19.1323H18.349C18.0798 19.1323 17.8594 19.3534 17.8594 19.6235V22.0292C18.4643 22.2224 19.0164 21.8384 19.3775 21.4058V19.6235C19.3775 19.3534 19.1571 19.1323 18.8878 19.1323Z" fill="#E38540"/>
<path d="M18.6186 21.3849C19.5178 21.3849 20.2468 20.3885 20.2468 19.1595C20.2468 17.9304 19.5178 16.9341 18.6186 16.9341C17.7194 16.9341 16.9905 17.9304 16.9905 19.1595C16.9905 20.3885 17.7194 21.3849 18.6186 21.3849Z" fill="#F09959"/>
<path d="M19.3774 17.3885C18.3489 19.1325 16.8308 18.9603 16.8308 18.9603C16.8308 18.9603 16.8675 16.6516 18.0733 16.5287C19.2791 16.4058 19.9892 16.8913 20.2342 17.6925C20.4792 18.4937 20.2342 19.0217 20.2342 19.0217C20.2342 19.0217 19.8425 18.7149 19.6466 18.2233C19.4508 17.7321 19.3774 17.3881 19.3774 17.3881V17.3885Z" fill="#3A384D"/>
<path d="M17.1568 19.1252C17.3092 19.447 17.2592 19.7902 17.0456 19.892C16.832 19.9939 16.535 19.8156 16.3826 19.4943C16.2303 19.1725 16.2803 18.8293 16.4939 18.7274C16.7075 18.6255 17.0045 18.8038 17.1568 19.1252Z" fill="#F09959"/>
<path d="M20.0066 19.1252C19.8542 19.447 19.9042 19.7902 20.1178 19.892C20.3314 19.9939 20.6284 19.8156 20.7807 19.4943C20.9331 19.1725 20.8831 18.8293 20.6695 18.7274C20.4559 18.6255 20.1589 18.8038 20.0066 19.1252Z" fill="#F09959"/>
<path d="M19.2308 20.3667C19.2308 20.3667 18.9568 20.7232 18.6186 20.7232C18.2805 20.7232 18.0065 20.3667 18.0065 20.3667H19.2308Z" fill="white"/>
<path d="M20.5571 27.5668H16.4453C16.1825 27.5668 15.9673 27.3509 15.9673 27.0873C15.9673 26.8238 16.1825 26.6079 16.4453 26.6079H20.5571C20.8199 26.6079 21.0351 26.8238 21.0351 27.0873C21.0351 27.3509 20.8199 27.5668 20.5571 27.5668Z" fill="#99BBEB"/>
<path d="M21.31 29.0399H15.6924C15.4297 29.0399 15.2145 28.8241 15.2145 28.5605C15.2145 28.2969 15.4297 28.0811 15.6924 28.0811H21.31C21.5727 28.0811 21.7879 28.2969 21.7879 28.5605C21.7879 28.8241 21.5727 29.0399 21.31 29.0399Z" fill="#99BBEB"/>
<path d="M25.3335 34.3394H11.6684C11.5156 34.3394 11.3911 34.2141 11.3911 34.0613C11.3911 33.9085 11.516 33.7832 11.6684 33.7832H25.3335C25.4863 33.7832 25.6108 33.9085 25.6108 34.0613C25.6108 34.2141 25.4859 34.3394 25.3335 34.3394Z" fill="#99BBEB"/>
<path d="M25.3335 35.6329H11.6684C11.5156 35.6329 11.3911 35.5076 11.3911 35.3548C11.3911 35.202 11.516 35.0767 11.6684 35.0767H25.3335C25.4863 35.0767 25.6108 35.202 25.6108 35.3548C25.6108 35.5076 25.4859 35.6329 25.3335 35.6329Z" fill="#99BBEB"/>
<path d="M25.3335 36.9264H11.6684C11.5156 36.9264 11.3911 36.801 11.3911 36.6482C11.3911 36.4954 11.516 36.3701 11.6684 36.3701H25.3335C25.4863 36.3701 25.6108 36.4954 25.6108 36.6482C25.6108 36.801 25.4859 36.9264 25.3335 36.9264Z" fill="#99BBEB"/>
<path d="M23.422 24.3561H13.5794C13.3062 24.3561 13.0841 24.1333 13.0841 23.8592V14.76C13.0841 14.4859 13.3062 14.2632 13.5794 14.2632H23.422C23.6953 14.2632 23.9173 14.4859 23.9173 14.76V23.8592C23.9173 24.1333 23.6953 24.3561 23.422 24.3561ZM13.5794 14.6674C13.5294 14.6674 13.4871 14.7099 13.4871 14.76V23.8592C13.4871 23.9094 13.5294 23.9518 13.5794 23.9518H23.422C23.472 23.9518 23.5143 23.9094 23.5143 23.8592V14.76C23.5143 14.7099 23.472 14.6674 23.422 14.6674H13.5794Z" fill="#99BBEB"/>
<path d="M15.0001 30.291L15.285 30.8703L15.9222 30.9629L15.4611 31.414L15.5699 32.0503L15.0001 31.7499L14.4302 32.0503L14.539 31.414L14.078 30.9629L14.7152 30.8703L15.0001 30.291Z" fill="#99BBEB"/>
<path d="M17.3339 30.291L17.6189 30.8703L18.256 30.9629L17.795 31.414L17.9038 32.0503L17.3339 31.7499L16.7641 32.0503L16.8729 31.414L16.4119 30.9629L17.049 30.8703L17.3339 30.291Z" fill="#99BBEB"/>
<path d="M19.6682 30.291L19.9531 30.8703L20.5903 30.9629L20.1292 31.414L20.238 32.0503L19.6682 31.7499L19.0983 32.0503L19.2071 31.414L18.7461 30.9629L19.3832 30.8703L19.6682 30.291Z" fill="#99BBEB"/>
<path d="M22.0019 30.291L22.2868 30.8703L22.924 30.9629L22.463 31.414L22.5718 32.0503L22.0019 31.7499L21.4321 32.0503L21.5409 31.414L21.0798 30.9629L21.717 30.8703L22.0019 30.291Z" fill="#99BBEB"/>
<path d="M66.1252 12.5732H48.6049V41.3788H66.1252V12.5732Z" fill="#99BBEB"/>
<path d="M65.5489 13.1602H49.5221V40.2808H65.5489V13.1602Z" fill="white"/>
<path d="M55.0771 19.0127C55.0771 20.3031 55.8517 22.3845 57.6786 22.3178C59.5054 22.2511 59.9096 20.2667 59.9801 19.7068C60.0511 19.1469 55.0771 19.0127 55.0771 19.0127Z" fill="#7A4E34"/>
<path d="M54.3163 24.0358C54.9196 22.7342 55.9404 22.3174 57.617 22.3174C59.613 22.3174 60.6496 23.0426 60.9434 24.0989C57.3687 24.1482 54.3159 24.0358 54.3159 24.0358H54.3163Z" fill="#D54A41"/>
<path d="M57.9483 23.3567C57.7572 23.6397 57.617 23.6514 57.4095 23.3567C57.2446 23.1223 56.9198 22.5899 56.9198 22.3198V19.6235C56.9198 19.3534 57.1402 19.1323 57.4095 19.1323H57.9483C58.2175 19.1323 58.4379 19.3534 58.4379 19.6235V22.3198C58.4379 22.5899 58.1196 23.1029 57.9483 23.3567Z" fill="#F09959"/>
<path d="M57.9483 19.1323H57.4095C57.1402 19.1323 56.9198 19.3534 56.9198 19.6235V22.0292C57.5247 22.2224 58.0768 21.8384 58.4379 21.4058V19.6235C58.4379 19.3534 58.2175 19.1323 57.9483 19.1323Z" fill="#E38540"/>
<path d="M57.6786 21.3849C58.5778 21.3849 59.3067 20.3885 59.3067 19.1595C59.3067 17.9304 58.5778 16.9341 57.6786 16.9341C56.7794 16.9341 56.0504 17.9304 56.0504 19.1595C56.0504 20.3885 56.7794 21.3849 57.6786 21.3849Z" fill="#F09959"/>
<path d="M58.5737 17.4678C58.3803 18.1522 57.9563 18.1441 57.3651 18.3689C56.7739 18.5937 56.4914 18.8196 56.298 19.2574C56.0513 19.8157 56.41 21.4436 56.41 21.4436C56.41 21.4436 54.9128 20.3198 55.0861 18.5528C55.2594 16.7855 56.298 16.1011 57.2756 16.1011C58.2533 16.1011 58.6249 16.6986 58.6249 16.6986C58.6249 16.6986 59.1456 16.7006 59.6381 17.2859C60.3002 18.0726 60.0963 19.9827 59.6381 20.6671C59.1799 21.3515 58.8744 21.5661 58.8844 21.5354C58.8945 21.5047 59.312 19.9329 59.088 18.9611C58.8639 17.9893 58.5737 17.4674 58.5737 17.4674V17.4678Z" fill="#7A4E34"/>
<path d="M58.2907 20.3667C58.2907 20.3667 58.0167 20.7232 57.6786 20.7232C57.3405 20.7232 57.0664 20.3667 57.0664 20.3667H58.2907Z" fill="white"/>
<path d="M59.6171 27.5668H55.5052C55.242 27.5668 55.0272 27.3509 55.0272 27.0873C55.0272 26.8238 55.2424 26.6079 55.5052 26.6079H59.6171C59.8802 26.6079 60.095 26.8238 60.095 27.0873C60.095 27.3509 59.8798 27.5668 59.6171 27.5668Z" fill="#99BBEB"/>
<path d="M60.3699 29.0399H54.7524C54.4892 29.0399 54.2744 28.8241 54.2744 28.5605C54.2744 28.2969 54.4896 28.0811 54.7524 28.0811H60.3699C60.6331 28.0811 60.8479 28.2969 60.8479 28.5605C60.8479 28.8241 60.6327 29.0399 60.3699 29.0399Z" fill="#99BBEB"/>
<path d="M64.3935 34.3394H50.7283C50.5756 34.3394 50.451 34.2141 50.451 34.0613C50.451 33.9085 50.576 33.7832 50.7283 33.7832H64.3935C64.5462 33.7832 64.6708 33.9085 64.6708 34.0613C64.6708 34.2141 64.5458 34.3394 64.3935 34.3394Z" fill="#99BBEB"/>
<path d="M64.3935 35.6329H50.7283C50.5756 35.6329 50.451 35.5076 50.451 35.3548C50.451 35.202 50.576 35.0767 50.7283 35.0767H64.3935C64.5462 35.0767 64.6708 35.202 64.6708 35.3548C64.6708 35.5076 64.5458 35.6329 64.3935 35.6329Z" fill="#99BBEB"/>
<path d="M64.3935 36.9264H50.7283C50.5756 36.9264 50.451 36.801 50.451 36.6482C50.451 36.4954 50.576 36.3701 50.7283 36.3701H64.3935C64.5462 36.3701 64.6708 36.4954 64.6708 36.6482C64.6708 36.801 64.5458 36.9264 64.3935 36.9264Z" fill="#99BBEB"/>
<path d="M62.4825 24.3561H52.6398C52.3666 24.3561 52.1445 24.1333 52.1445 23.8592V14.76C52.1445 14.4859 52.3666 14.2632 52.6398 14.2632H62.4825C62.7557 14.2632 62.9778 14.4859 62.9778 14.76V23.8592C62.9778 24.1333 62.7557 24.3561 62.4825 24.3561ZM52.6398 14.6674C52.5899 14.6674 52.5475 14.7099 52.5475 14.76V23.8592C52.5475 23.9094 52.5899 23.9518 52.6398 23.9518H62.4825C62.5324 23.9518 62.5748 23.9094 62.5748 23.8592V14.76C62.5748 14.7099 62.5324 14.6674 62.4825 14.6674H52.6398Z" fill="#99BBEB"/>
<path d="M54.06 30.291L54.3449 30.8703L54.9821 30.9629L54.5211 31.414L54.6299 32.0503L54.06 31.7499L53.4902 32.0503L53.599 31.414L53.1379 30.9629L53.7751 30.8703L54.06 30.291Z" fill="#99BBEB"/>
<path d="M56.3943 30.291L56.6792 30.8703L57.3164 30.9629L56.8553 31.414L56.9641 32.0503L56.3943 31.7499L55.824 32.0503L55.9332 31.414L55.4718 30.9629L56.1094 30.8703L56.3943 30.291Z" fill="#99BBEB"/>
<path d="M58.7281 30.291L59.013 30.8703L59.6502 30.9629L59.1891 31.414L59.298 32.0503L58.7281 31.7499L58.1583 32.0503L58.2671 31.414L57.806 30.9629L58.4432 30.8703L58.7281 30.291Z" fill="#99BBEB"/>
<path d="M61.0619 30.291L61.3472 30.8703L61.9843 30.9629L61.5233 31.414L61.6321 32.0503L61.0619 31.7499L60.492 32.0503L60.6008 31.414L60.1398 30.9629L60.7769 30.8703L61.0619 30.291Z" fill="#99BBEB"/>
<path opacity="0.2" d="M50.5743 41.0909H22.924L24.8797 12.6807H51.5709L50.5743 41.0909Z" fill="#99BBEB"/>
<path d="M49.7587 7.3042H25.8285V46.6481H49.7587V7.3042Z" fill="#99BBEB"/>
<path d="M48.9723 8.10596H27.0818V45.1489H48.9723V8.10596Z" fill="white"/>
<path d="M35.987 15.8865C35.9717 15.8404 35.5884 13.634 35.5425 12.7758C35.4965 11.9176 36.9171 11.7951 36.9171 11.7951C36.9171 11.7951 38.0782 11.1669 38.9185 11.4887C39.7587 11.8105 40.3306 12.3518 40.7122 13.0261C41.0943 13.7003 40.3761 15.8016 40.3761 15.8016L35.9866 15.8865H35.987Z" fill="#2E2D3D"/>
<path d="M33.353 22.9758C33.3477 22.9394 33.4509 22.0711 33.4549 22.0359C33.6484 20.2075 35.8955 19.6929 38.1379 19.6929C40.7723 19.6929 42.5597 20.1764 42.8446 22.0767C42.8531 22.1325 43.005 23.0029 42.9973 23.0615C38.1145 23.1286 33.353 22.9758 33.353 22.9758Z" fill="#D5E1E8"/>
<path d="M38.5901 21.1125C38.3289 21.499 38.1375 21.5152 37.8542 21.1125C37.6289 20.7924 36.8765 20.0623 36.8765 19.6932L37.1852 16.0133C37.1852 15.6443 37.4862 15.3423 37.8542 15.3423H38.5901C38.958 15.3423 39.259 15.6443 39.259 16.0133L39.4025 19.6932C39.4025 20.0623 38.8242 20.7657 38.5901 21.1125Z" fill="#F09959"/>
<path d="M38.59 15.3428H37.8541C37.4862 15.3428 37.1851 15.6447 37.1851 16.0138L36.9171 19.2781C37.7433 19.5421 38.8588 19.0057 39.3521 18.4151L39.2586 16.0138C39.2586 15.6447 38.9575 15.3428 38.5896 15.3428H38.59Z" fill="#E38540"/>
<path d="M35.6973 19.9619L36.8769 22.1488C36.8769 22.1488 37.5084 21.6278 37.5692 21.73C37.6305 21.8323 37.4572 23.1215 37.4572 23.1215C37.4572 23.1215 38.8625 23.1405 38.9237 23.0794C38.985 23.018 38.6384 21.6791 38.7811 21.6791C38.9237 21.6791 39.3525 22.0672 39.3525 22.0672L40.6696 19.9619L40.3802 19.8911L38.2225 21.0558L35.9145 19.9166L35.6973 19.9619Z" fill="#BDCCD4"/>
<path d="M37.0461 20.9696L37.9223 21.559L37.6507 23.1238L38.8319 23.0579L38.5369 21.6346L39.2631 20.9696L38.9217 20.647H37.3871L37.0461 20.9696Z" fill="#D54A41"/>
<path d="M36.9378 18.8899L35.8545 19.9239C35.8545 19.9239 36.9583 21.893 37.0196 21.893C37.0808 21.893 37.9562 20.8072 37.9562 20.8072L38.5168 20.7975L39.4026 21.7297L40.4318 19.9033L39.3824 18.7876C39.3824 18.7876 38.4861 20.5243 38.3233 20.5651C38.1605 20.6059 38.1593 20.6265 38.0275 20.5242C37.8957 20.422 36.9386 18.8899 36.9386 18.8899H36.9378Z" fill="#D5E1E8"/>
<path d="M38.2221 18.4194C39.4503 18.4194 40.4459 17.0586 40.4459 15.3799C40.4459 13.7012 39.4503 12.3403 38.2221 12.3403C36.9939 12.3403 35.9983 13.7012 35.9983 15.3799C35.9983 17.0586 36.9939 18.4194 38.2221 18.4194Z" fill="#F09959"/>
<path d="M36.226 15.3333C36.4339 15.7727 36.3658 16.2417 36.0741 16.3807C35.7823 16.5198 35.3769 16.2764 35.1689 15.837C34.961 15.3976 35.0291 14.9287 35.3208 14.7896C35.6126 14.6506 36.018 14.8939 36.226 15.3333Z" fill="#F09959"/>
<path d="M40.1182 15.3333C39.9103 15.7727 39.9784 16.2417 40.2702 16.3807C40.562 16.5198 40.9674 16.2764 41.1753 15.837C41.3833 15.3976 41.3152 14.9287 41.0234 14.7896C40.7316 14.6506 40.3262 14.8939 40.1182 15.3333Z" fill="#F09959"/>
<path d="M39.2087 16.627C39.2087 16.627 38.767 17.3445 38.2222 17.3445C37.6773 17.3445 37.2356 16.627 37.2356 16.627H39.2087Z" fill="white"/>
<path d="M36.9175 13.3122C37.834 12.6686 38.2466 12.7758 38.9338 13.8333C39.6213 14.8904 40.4463 14.9094 40.4463 14.9094L40.5531 13.8131C40.5531 13.8131 39.529 11.8262 38.1544 12.0865C36.7797 12.3468 35.9979 13.5883 35.9979 13.5883C35.9979 13.5883 35.931 15.9147 36.1228 15.994C36.3146 16.0732 36.3368 15.2433 36.4742 15.0747C36.6116 14.9061 36.3368 14.1094 36.5202 13.7415C36.7035 13.3736 36.9175 13.3126 36.9175 13.3126V13.3122Z" fill="#2E2D3D"/>
<path d="M39.8656 14.5078C40.1856 14.8591 40.0643 16.2546 40.2323 16.2392C40.4004 16.2238 40.4616 14.906 40.4157 14.7681C40.3698 14.6303 39.8656 14.5078 39.8656 14.5078Z" fill="#2E2D3D"/>
<path d="M43.1691 27.7819H32.9537C32.5946 27.7819 32.3008 27.4872 32.3008 27.1271C32.3008 26.7669 32.5946 26.4722 32.9537 26.4722H43.1691C43.5282 26.4722 43.8219 26.7669 43.8219 27.1271C43.8219 27.4872 43.5282 27.7819 43.1691 27.7819Z" fill="#99BBEB"/>
<path d="M41.898 29.7946H34.2251C33.8661 29.7946 33.5723 29.4999 33.5723 29.1397C33.5723 28.7796 33.8661 28.4849 34.2251 28.4849H41.898C42.2571 28.4849 42.5509 28.7796 42.5509 29.1397C42.5509 29.4999 42.2571 29.7946 41.898 29.7946Z" fill="#99BBEB"/>
<path d="M47.3938 37.0329H28.7293C28.5209 37.0329 28.3505 36.8619 28.3505 36.6529C28.3505 36.4439 28.5209 36.2729 28.7293 36.2729H47.3938C47.6021 36.2729 47.7726 36.4439 47.7726 36.6529C47.7726 36.8619 47.6021 37.0329 47.3938 37.0329Z" fill="#99BBEB"/>
<path d="M47.3938 38.7995H28.7293C28.5209 38.7995 28.3505 38.6285 28.3505 38.4195C28.3505 38.2105 28.5209 38.0396 28.7293 38.0396H47.3938C47.6021 38.0396 47.7726 38.2105 47.7726 38.4195C47.7726 38.6285 47.6021 38.7995 47.3938 38.7995Z" fill="#99BBEB"/>
<path d="M47.3938 40.5661H28.7293C28.5209 40.5661 28.3505 40.3951 28.3505 40.1861C28.3505 39.9771 28.5209 39.8062 28.7293 39.8062H47.3938C47.6021 39.8062 47.7726 39.9771 47.7726 40.1861C47.7726 40.3951 47.6021 40.5661 47.3938 40.5661Z" fill="#99BBEB"/>
<path d="M44.7831 23.3229H31.3396C31.0071 23.3229 30.7367 23.0516 30.7367 22.7181V10.2903C30.7367 9.9568 31.0071 9.68555 31.3396 9.68555H44.7831C45.1156 9.68555 45.386 9.9568 45.386 10.2903V22.7185C45.386 23.052 45.1156 23.3233 44.7831 23.3233V23.3229ZM31.3396 10.0898C31.2296 10.0898 31.1397 10.1795 31.1397 10.2903V22.7185C31.1397 22.8289 31.2292 22.919 31.3396 22.919H44.7831C44.8931 22.919 44.983 22.8293 44.983 22.7185V10.2903C44.983 10.1799 44.8935 10.0898 44.7831 10.0898H31.3396Z" fill="#99BBEB"/>
<path d="M31.6604 31.5034L32.0497 32.2945L32.9198 32.4211L32.2903 33.0371L32.439 33.9063L31.6604 33.496L30.8822 33.9063L31.0305 33.0371L30.401 32.4211L31.2711 32.2945L31.6604 31.5034Z" fill="#99BBEB"/>
<path d="M34.8481 31.5034L35.2374 32.2945L36.1079 32.4211L35.478 33.0371L35.6268 33.9063L34.8481 33.496L34.0699 33.9063L34.2186 33.0371L33.5887 32.4211L34.4592 32.2945L34.8481 31.5034Z" fill="#99BBEB"/>
<path d="M38.036 31.5034L38.4253 32.2945L39.2958 32.4211L38.6659 33.0371L38.8146 33.9063L38.036 33.496L37.2578 33.9063L37.4065 33.0371L36.7766 32.4211L37.6471 32.2945L38.036 31.5034Z" fill="#99BBEB"/>
<path d="M41.2242 31.5034L41.6131 32.2945L42.4836 32.4211L41.8537 33.0371L42.0024 33.9063L41.2242 33.496L40.4455 33.9063L40.5943 33.0371L39.9644 32.4211L40.8349 32.2945L41.2242 31.5034Z" fill="#99BBEB"/>
<path d="M44.4627 31.5034L44.8516 32.2945L45.7221 32.4211L45.0922 33.0371L45.2409 33.9063L44.4627 33.496L43.6841 33.9063L43.8328 33.0371L43.2029 32.4211L44.0734 32.2945L44.4627 31.5034Z" fill="#99BBEB"/>
<path d="M88.1922 44.2109H57.4842C57.2997 44.2109 57.1501 44.361 57.1501 44.5461V45.0485C57.1501 45.2336 57.2997 45.3837 57.4842 45.3837H88.1922C88.3767 45.3837 88.5263 45.2336 88.5263 45.0485V44.5461C88.5263 44.361 88.3767 44.2109 88.1922 44.2109Z" fill="#2E5B9A"/>
<path d="M96.0987 28.4932C96.5146 29.9646 95.4986 31.481 94.3791 31.7995C93.2595 32.1181 92.4607 31.1184 92.0448 29.6469C91.6289 28.1754 92.1988 26.7246 93.3183 26.406C94.4379 26.0875 95.6828 27.0221 96.0987 28.4936V28.4932Z" fill="#F09959"/>
<path d="M89.8223 57.0054C89.8223 57.0054 92.6914 61.4751 93.0786 61.6696C93.4663 61.864 94.4348 61.9125 94.0717 62.6414C93.7085 63.3703 93.5631 66.2368 93.2241 66.3823C92.8852 66.5283 89.9791 66.8682 90.4148 66.3823C90.8508 65.8964 91.1188 66.1394 91.3389 65.265C91.5589 64.3906 91.868 62.7384 91.4561 62.3985C91.0447 62.0585 88.5259 58.9975 88.5259 58.9975L89.8223 57.0058V57.0054Z" fill="#F09959"/>
<path d="M75.3826 58.9243C75.3826 58.9243 71.8949 64.6897 71.2493 65.2084C70.6033 65.7266 68.4722 66.504 70.216 66.6337C71.9598 66.7631 72.7993 66.0508 73.8971 65.7266C74.9949 65.4028 76.3514 65.2084 75.8347 64.3663C75.3181 63.5243 75.5325 61.6857 76.6464 60.5195C77.7603 59.3532 75.3826 58.9247 75.3826 58.9247V58.9243Z" fill="#F09959"/>
<path d="M93.1797 45.5546C93.1797 45.5546 84.5465 45.3283 81.1237 48.1459C79.1216 51.1907 74.2783 60.1743 73.9019 61.1643C74.1602 61.4234 75.6134 61.8911 76.259 61.826C78.1641 59.5473 80.6825 57.5774 81.6839 55.7898C82.9179 53.5871 83.2984 52.4859 85.3005 52.2914C87.3027 52.097 91.8236 51.4494 93.1797 51.4494C94.5358 51.4494 93.1797 45.5542 93.1797 45.5542V45.5546Z" fill="#6791C9"/>
<path d="M100.708 66.6495H100.256L97.0107 53.0684H98.0062L100.708 66.6495Z" fill="#2E5B9A"/>
<path d="M87.152 66.6493H87.6046L91.3283 52.5879H90.3329L87.152 66.6493Z" fill="#2E5B9A"/>
<path d="M98.0981 44.9618L93.0786 45.831C93.0786 45.831 86.4085 45.8924 83.3597 46.462C80.5858 46.9802 80.1772 50.1419 83.3597 54.4948C85.1676 56.9676 86.6962 58.9403 89.8223 61.1645C90.6175 60.5788 90.9217 60.3572 91.1414 58.9484C90.9153 58.6372 90.3293 56.6899 90.1476 56.3087C88.4187 52.6834 86.1106 51.3647 86.0788 51.0082C86.4665 50.3767 96.3426 54.3004 98.3064 51.9921C100.181 49.7886 98.0981 44.9614 98.0981 44.9614V44.9618Z" fill="#75A1DE"/>
<path d="M98.3064 33.5636C96.9845 33.3776 95.6381 33.6295 94.3791 34.5439C93.2789 35.6689 92.0336 37.5244 92.1102 40.5846C92.2069 44.4714 91.5105 44.7209 92.2371 45.7897C95.2673 47.0449 100.45 52.4376 99.2293 46.656C98.3455 42.4696 101.167 39.3492 98.8912 34.7056C98.7058 34.3276 98.4745 33.961 98.3068 33.5632L98.3064 33.5636Z" fill="#F37168"/>
<path d="M92.1094 42.047C92.0505 44.0731 91.7652 44.6702 91.9832 45.3053C93.2184 45.4318 95.4781 45.9278 96.0427 46.7205C96.6887 47.6273 97.3343 47.757 97.0329 47.0876C96.7315 46.4182 95.9351 45.4682 97.1623 42.2075C98.3894 38.9468 98.9706 36.7441 97.7652 34.4771L92.1094 42.047Z" fill="#D54A41"/>
<path d="M98.3064 33.5637C97.4923 31.6306 97.2924 29.459 97.2924 29.459L95.1613 30.0904C95.1613 30.0904 96.3723 32.811 95.2097 33.7828C94.9626 33.9894 94.6761 34.24 94.3787 34.544C95.6377 33.6296 96.9841 33.3774 98.306 33.5637H98.3064Z" fill="#F09959"/>
<path d="M97.3569 29.9734C97.2307 29.8607 97.0728 29.72 96.9067 29.5732L95.1685 30.0883C95.1673 30.0915 95.1661 30.0947 95.1649 30.0976C95.2068 30.1938 95.6497 31.2303 95.7078 32.2271C96.2256 31.9118 96.7931 31.398 97.4415 30.5002C97.4064 30.3009 97.3786 30.1234 97.3569 29.9734Z" fill="#E38540"/>
<path d="M96.8085 34.1712C94.6137 34.9413 94.8571 37.2608 92.8368 40.6816C91.7914 42.4518 90.8202 42.4255 90.8202 42.4255C90.8202 42.4255 88.3683 42.4453 85.4026 42.0815C83.5455 41.8539 83.4274 42.4081 84.7191 42.8714C87.3241 43.8056 90.0271 44.811 92.2069 44.568C94.3864 44.3251 98.1142 38.7469 98.3064 37.2948C98.5724 35.2865 97.9135 33.7831 96.8081 34.1712H96.8085Z" fill="#F09959"/>
<path d="M95.678 53.6339C95.5414 53.6339 95.402 53.6323 95.2585 53.6286C93.4695 53.5842 92.2521 53.336 91.2736 53.1367C90.131 52.9038 89.502 52.7757 88.7693 53.1266C88.488 53.2612 88.1515 53.1419 88.0169 52.8598C87.8827 52.5776 88.0016 52.2401 88.2829 52.105C89.3561 51.5904 90.2548 51.7736 91.498 52.0274C92.433 52.2182 93.5969 52.4551 95.2863 52.4972C97.1772 52.5445 98.3302 52.2631 98.9146 51.6131C99.4353 51.0338 99.5876 50.0607 99.3942 48.5509C99.3281 48.0343 99.2616 47.6041 99.2031 47.2249C99.0383 46.1549 98.9291 45.4483 99.0641 44.3556C99.1894 43.3409 99.5243 41.9891 100.3 39.3684C100.389 39.0688 100.703 38.8982 101.002 38.9868C101.3 39.0757 101.471 39.3906 101.382 39.6906C99.9366 44.5743 100.01 45.0501 100.318 47.0519C100.378 47.438 100.445 47.8754 100.513 48.4066C100.752 50.2689 100.51 51.5286 99.7528 52.3714C98.9726 53.239 97.7064 53.6343 95.6784 53.6343L95.678 53.6339Z" fill="#2E5B9A"/>
<path d="M75.6195 63.7842C73.3054 64.9193 72.0602 65.5697 71.3182 65.5079C71.1429 65.4933 70.9978 65.4752 70.8761 65.4562C70.0508 65.9453 68.7337 66.5234 70.2156 66.6337C71.9594 66.7631 72.7989 66.0508 73.8967 65.7266C74.9945 65.4028 76.351 65.2083 75.8343 64.3663C75.7352 64.205 75.6634 64.0069 75.6195 63.7842Z" fill="#D54A41"/>
<path d="M93.3312 61.7642C93.2748 63.6019 93.0229 65.423 91.9022 65.767C91.6052 65.8584 91.3343 65.8713 91.095 65.8394C90.9188 66.0581 90.7036 66.0605 90.4151 66.3819C89.979 66.8678 92.8851 66.5278 93.2244 66.3819C93.5634 66.236 93.7089 63.3698 94.072 62.641C94.3706 62.0423 93.7701 61.9028 93.3312 61.7642Z" fill="#D54A41"/>
<path d="M84.4176 44.3718H77.0663C76.8467 44.3718 76.6472 44.244 76.5545 44.0443L73.5836 37.6309C73.4522 37.3475 73.5751 37.0108 73.8576 36.879C74.1405 36.7472 74.4758 36.8705 74.6072 37.1539L77.4262 43.2399H84.4176C84.7291 43.2399 84.9818 43.4933 84.9818 43.8058C84.9818 44.1183 84.7291 44.3718 84.4176 44.3718Z" fill="#75A1DE"/>
<path d="M85.9558 42.1456C84.4703 42.1242 82.9974 41.236 82.2651 41.3654C81.5332 41.4952 79.1434 43.1578 79.4448 43.2225C79.7463 43.2872 81.6408 42.3025 81.7053 42.2875C81.7698 42.2725 82.1788 42.9695 83.1908 43.2258C84.2027 43.4816 83.198 42.465 86.3343 43.4153C88.3735 44.033 85.9554 42.1456 85.9554 42.1456H85.9558Z" fill="#F09959"/>
<path d="M98.088 31.7993L98.3064 33.5635C98.3064 33.5635 96.3841 33.6783 95.4278 34.2179C94.4714 34.7576 93.0597 36.3176 93.0597 36.3176L94.2131 34.3259L94.3791 33.0517L98.088 31.7993Z" fill="#F2E5DE"/>
<path d="M97.2698 33.9591C95.842 33.6907 95.1819 34.9742 94.2562 37.0686C93.3304 39.1634 91.7503 41.7074 91.4359 42.0352C91.1216 42.3631 86.14 42.0352 86.14 42.0352C86.14 42.0352 85.9893 43.482 86.14 43.6546C86.2907 43.8273 87.1519 43.8058 87.1519 43.8058C87.1519 43.8058 87.4965 44.0815 87.8193 44.3002C88.1421 44.5185 90.8761 44.9288 92.1464 44.8642C93.4167 44.7995 94.579 44.6915 94.751 44.4971C94.9231 44.3027 98.3894 38.9476 98.6046 37.0254C98.8198 35.1036 97.9985 34.0962 97.2698 33.9591Z" fill="#F2E5DE"/>
<path d="M93.0597 25.1483C90.3595 25.2781 90.7831 29.3525 90.7831 29.3525C90.7831 29.3525 91.4843 29.5696 92.9537 29.3266C92.8408 28.8892 92.8892 27.7719 92.8892 27.7719C92.8892 27.7719 93.0601 28.679 93.2769 29.2296C93.5876 29.3723 93.939 29.2458 94.5363 29.1011C94.843 30.3959 95.7098 30.9428 96.3035 31.13C96.9591 31.337 97.6535 31.5836 98.4285 31.1947C99.2035 30.8058 98.7775 26.8328 98.3656 26.0336C97.7478 24.8342 96.7214 23.7609 94.9453 24.3277C94.0547 24.6119 93.0601 25.1483 93.0601 25.1483H93.0597Z" fill="#303C60"/>
<path d="M97.7555 29.9873L98.8593 31.6047C98.8593 31.6047 97.6358 34.671 101.194 36.0604C103.981 37.1482 103.653 39.0656 102.394 40.9934C101.134 42.9213 103.147 44.605 103.147 44.605C103.147 44.605 103.454 42.4693 106.162 42.0663C109.854 41.5165 110.899 36.5447 108.141 34.0585C105.86 32.0013 105.165 33.7048 103.62 31.8586C102.076 30.0124 99.16 31.2595 99.16 31.2595L98.0912 29.6963L97.7555 29.9878V29.9873Z" fill="#303C60"/>
<path d="M109.412 39.0668C109.395 39.0668 109.379 39.0628 109.364 39.0547C109.317 39.0284 109.3 38.9686 109.325 38.9209C110.254 37.219 109.496 35.1573 109.115 34.5991C109.075 34.5401 109.037 34.4798 108.996 34.4164C108.622 33.8302 108.156 33.1009 105.67 32.6518C105.071 32.5439 104.587 32.1869 104.073 31.809C103.013 31.0284 101.812 30.1434 99.2014 31.3489C99.1518 31.3716 99.0938 31.3501 99.0712 31.3008C99.0487 31.2515 99.07 31.1929 99.1192 31.1702C101.835 29.9167 103.086 30.8375 104.189 31.6505C104.684 32.0143 105.151 32.3583 105.705 32.4586C108.275 32.9227 108.766 33.6923 109.161 34.3104C109.201 34.3727 109.239 34.4313 109.277 34.4883C109.676 35.0733 110.47 37.2336 109.498 39.0163C109.48 39.049 109.446 39.0676 109.412 39.0676V39.0668Z" fill="#303C60"/>
<path d="M97.1659 31.645C96.9894 31.645 96.7984 31.6296 96.5924 31.5985C95.6478 31.4566 94.3803 30.9182 94.2812 27.894C94.2796 27.8398 94.3219 27.7941 94.3759 27.7925C94.4311 27.7913 94.4754 27.8333 94.477 27.8875C94.5181 29.1338 94.7644 30.0563 95.2097 30.6287C95.5478 31.0637 95.9964 31.3099 96.6214 31.4037C97.4956 31.535 98.0751 31.3729 98.3435 30.9222C98.3713 30.8757 98.4317 30.8604 98.4781 30.8882C98.5244 30.9161 98.5398 30.9768 98.512 31.0233C98.2657 31.4364 97.8139 31.6446 97.1655 31.6446L97.1659 31.645Z" fill="#303C60"/>
<path d="M60.4415 66.6491H61.1669L63.9892 45.0093H62.3933L60.4415 66.6491Z" fill="#2E5B9A"/>
<path d="M85.0593 66.6491H84.3339L81.5116 45.0093H83.1079L85.0593 66.6491Z" fill="#2E5B9A"/>
<path d="M113.51 48.3833C114.765 49.533 114.219 50.6823 113.291 52.8171C112.364 54.9519 112.2 62.8348 112.2 62.8348L112.964 62.7252C112.964 62.7252 112.855 54.6237 113.892 52.4339C114.929 50.2441 115.365 49.1494 116.293 49.8612C117.221 50.5727 113.51 48.3833 113.51 48.3833Z" fill="#74B570"/>
<path d="M112.82 46.895C112.973 46.2138 113.878 45.4765 115.088 44.8511C114.908 45.8561 114.331 47.4989 114.928 47.8357C115.734 48.2901 115.007 45.9963 115.318 44.7355C116.455 44.1788 117.822 43.7237 119.081 43.4973C119.079 43.5021 119.078 43.5066 119.076 43.511C118.366 45.3176 117.439 46.0291 117.821 46.3028C118.108 46.5085 119.044 44.4218 120.28 43.3522C121.208 43.3024 121.993 43.4286 122.457 43.7976C123.175 44.3676 123.657 44.8733 122.935 46.6088C122.523 46.9043 121.988 47.1161 121.368 47.1784C119.731 47.3425 118.967 47.3975 120.112 47.9448C120.674 48.2128 121.614 47.9295 122.377 47.7573C122.129 48.2145 121.825 48.7323 121.456 49.3217C121.221 49.6956 120.963 50.0202 120.689 50.3008C120.161 50.4023 119.701 50.4035 119.457 50.2988C118.693 49.9705 116.729 48.9304 116.238 49.3682C115.757 49.7967 119.876 50.0683 119.591 51.1574C117.594 52.3111 115.31 51.7621 114.906 50.7026C114.363 49.2797 112.361 48.9449 112.82 46.8942L112.82 46.895Z" fill="#9CD499"/>
<path d="M116.948 54.6785C114.765 53.0365 112.527 54.569 111.382 56.3206C110.235 58.0722 111.054 62.0136 111.054 62.0136C111.054 62.0136 111.491 62.0136 111.491 61.8495C111.491 61.6854 110.29 57.1966 113.128 55.1709C114.903 53.904 116.184 54.514 116.347 55.1164C116.511 55.7187 115.638 56.8134 115.638 56.8134L116.948 54.6785Z" fill="#74B570"/>
<path d="M111.927 51.3027C114.11 51.3027 114.82 54.6968 114.219 56.6675C113.619 58.6382 112.8 62.306 112.8 62.306L112.254 61.7586C112.254 61.7586 114.328 56.6129 113.837 54.314C113.346 52.015 112.145 51.6318 111.927 51.6318C111.708 51.6318 111.927 51.3035 111.927 51.3035L111.927 51.3027Z" fill="#9CD499"/>
<path d="M113.758 56.6825C113.912 56.4784 114.101 56.3098 114.333 56.1982C114.303 56.3612 114.265 56.5184 114.22 56.6672C113.946 57.565 113.627 58.8149 113.361 59.9101C113.337 59.7698 113.3 59.5539 113.242 59.2204C113.229 59.1416 113.218 59.0563 113.21 58.9657C113.424 58.2365 113.626 57.4417 113.758 56.6825Z" fill="#74B570"/>
<path d="M114.355 56.6992C118.502 54.9476 116.317 52.544 119.974 54.131C120.231 54.243 120.545 54.5248 120.859 54.9137C120.534 55.0062 120.139 55.0729 119.701 55.007C118.61 54.8429 118.992 55.7185 120.792 55.9376C121.132 55.9789 121.407 56.0359 121.636 56.1163C122.494 57.7693 122.881 59.9441 121.065 60.7001C120.707 60.8492 120.265 60.9341 119.773 60.9661C119.213 60.5194 119.91 57.9346 119.046 58.2916C118.217 58.634 119.306 60.5073 119.157 60.9794C118.338 60.9645 117.432 60.8302 116.566 60.6152C116.223 60.4224 115.961 60.164 115.881 59.8245C115.608 58.6748 117.409 57.9633 117.463 56.9782C117.514 56.0722 116.803 58.9711 114.922 59.3976C113.22 58.6004 112.416 57.5186 114.355 56.6996V56.6992Z" fill="#9CD499"/>
<path d="M111.4 53.6019C111.836 52.6713 110.69 52.4522 110.745 53.1641C110.793 53.7947 110.798 55.3276 110.154 55.7448C109.042 55.6239 107.529 55.1744 106.385 54.4896C106.371 54.3971 106.385 54.3016 106.433 54.2042C106.924 53.2187 110.09 52.3976 109.107 52.0694C108.325 51.8078 106.954 53.3517 105.849 54.1294C105.186 53.6245 104.741 53.0226 104.741 52.3507C104.741 51.4412 105.843 50.412 107.267 49.92C107.908 49.9847 108.504 50.3364 109.434 50.8651C110.808 51.6461 110.491 50.3833 109.191 49.6338C110.313 49.692 111.431 50.1727 112.256 51.3211C112.256 51.3211 112.178 51.8119 112.696 52.5715C114.109 54.6432 112.478 55.8523 110.529 55.7739C110.639 55.2278 111.097 54.2455 111.398 53.6023L111.4 53.6019Z" fill="#9CD499"/>
<path d="M116.817 54.5856C117.884 55.4127 119.069 56.3801 120.525 57.037C121.98 57.6939 121.689 59.8348 121.689 59.8348C121.689 59.8348 121.907 57.9857 120.694 57.3531C119.482 56.7204 118.681 55.9661 117.759 55.8202C116.838 55.6742 116.328 55.5283 116.328 55.5283C116.328 55.5283 116.619 54.9442 116.449 54.7255C116.28 54.5068 116.816 54.5856 116.816 54.5856H116.817Z" fill="#74B570"/>
<path d="M122.077 44.8716C118.172 45.9178 115.31 48.4237 114.776 49.0321C114.243 49.6405 114.243 49.8107 114.243 49.8107L114.655 50.5893L114.849 50.4919C114.849 50.4919 114.534 49.8349 115.358 48.9832C116.78 47.5146 118.511 46.3556 119.7 45.8446C120.888 45.3336 122.077 44.8716 122.077 44.8716H122.077Z" fill="#74B570"/>
<path d="M112.789 66.5542H111.297C110.237 66.5542 109.376 65.6907 109.376 64.6271V61.1886H114.71V64.6271C114.71 65.6907 113.849 66.5542 112.789 66.5542H112.789Z" fill="#75A1DE"/>
<path d="M114.71 61.8037H109.376V62.1805H114.71V61.8037Z" fill="white"/>
<path d="M114.71 62.4907H109.376V62.7123H114.71V62.4907Z" fill="white"/>
<path d="M13.9973 61.873H15.2696C15.5385 61.873 15.7565 61.6544 15.7565 61.3847V60.3337C15.7565 60.064 15.5385 59.8453 15.2696 59.8453H13.9973C13.7285 59.8453 13.5105 60.064 13.5105 60.3337V61.3847C13.5105 61.6544 13.7285 61.873 13.9973 61.873Z" fill="#9EC8FF"/>
<path d="M9.9136 61.873H11.1859C11.4548 61.873 11.6727 61.6544 11.6727 61.3847V60.3337C11.6727 60.064 11.4548 59.8453 11.1859 59.8453H9.9136C9.64473 59.8453 9.42677 60.064 9.42677 60.3337V61.3847C9.42677 61.6544 9.64473 61.873 9.9136 61.873Z" fill="#9EC8FF"/>
<path d="M5.82999 61.873H7.10228C7.37115 61.873 7.58911 61.6544 7.58911 61.3847V60.3337C7.58911 60.064 7.37115 59.8453 7.10228 59.8453H5.82999C5.56111 59.8453 5.34315 60.064 5.34315 60.3337V61.3847C5.34315 61.6544 5.56111 61.873 5.82999 61.873Z" fill="#9EC8FF"/>
<path d="M122.045 22.8106V24.0872C122.045 24.3564 121.827 24.5755 121.558 24.5755H120.51C120.241 24.5755 120.023 24.3568 120.023 24.0872V22.8106C120.023 22.5414 120.241 22.3223 120.51 22.3223H121.558C121.826 22.3223 122.044 22.541 122.044 22.8102L122.045 22.8106Z" fill="#9EC8FF"/>
<path d="M122.045 26.9067V28.1833C122.045 28.4525 121.827 28.6713 121.558 28.6713H120.51C120.241 28.6713 120.023 28.4525 120.023 28.1829V26.9063C120.023 26.6371 120.241 26.418 120.51 26.418H121.558C121.827 26.418 122.045 26.6367 122.045 26.9059V26.9067Z" fill="#9EC8FF"/>
<path d="M122.045 31.003V32.2796C122.045 32.5488 121.827 32.7675 121.558 32.7675H120.51C120.241 32.7675 120.023 32.5488 120.023 32.2792V31.0026C120.023 30.7333 120.241 30.5146 120.51 30.5146H121.558C121.826 30.5146 122.044 30.7333 122.044 31.0026L122.045 31.003Z" fill="#9EC8FF"/>
</g>
<defs>
<clipPath id="clip0_1_15630">
<rect width="122.585" height="69" fill="white" transform="translate(0.707397)"/>
</clipPath>
</defs>
</svg>
