<svg width="16" height="21" viewBox="0 0 16 21" fill="none" xmlns="http://www.w3.org/2000/svg">
<path d="M6.78 9.8401C7.55077 10.0562 8.36517 10.0632 9.13956 9.8605C9.91396 9.65778 10.6204 9.2526 11.1865 8.68657C11.7525 8.12054 12.1577 7.41405 12.3604 6.63966C12.5631 5.86527 12.5561 5.05087 12.34 4.2801C12.1352 3.53412 11.7399 2.85425 11.1929 2.30724C10.6459 1.76024 9.96598 1.36491 9.22 1.1601C8.44923 0.944015 7.63483 0.936973 6.86044 1.13969C6.08604 1.34241 5.37956 1.74759 4.81353 2.31362C4.2475 2.87966 3.84232 3.58614 3.6396 4.36053C3.43688 5.13493 3.44392 5.94933 3.66 6.7201C3.86481 7.46607 4.26014 8.14595 4.80714 8.69295C5.35415 9.23996 6.03402 9.63528 6.78 9.8401ZM11.27 11.7001L10.89 12.4501C10.8196 12.5913 10.7167 12.7139 10.5898 12.8077C10.4629 12.9016 10.3157 12.9641 10.16 12.9901H10C9.86839 12.9909 9.73793 12.9656 9.61609 12.9159C9.49426 12.8661 9.38344 12.7928 9.29 12.7001L8 11.4101L6.71 12.7101C6.61656 12.8028 6.50574 12.8761 6.38391 12.9259C6.26207 12.9756 6.13161 13.0009 6 13.0001H5.84C5.68434 12.9741 5.53705 12.9116 5.41018 12.8177C5.2833 12.7239 5.18044 12.6013 5.11 12.4601L4.73 11.7101C3.32298 12.3403 2.12801 13.3636 1.28887 14.6569C0.449726 15.9502 0.00215348 17.4584 0 19.0001C0 19.5305 0.210714 20.0392 0.585786 20.4143C0.960859 20.7894 1.46957 21.0001 2 21.0001H14C14.5304 21.0001 15.0391 20.7894 15.4142 20.4143C15.7893 20.0392 16 19.5305 16 19.0001C15.9998 17.4567 15.5531 15.9463 14.7138 14.6511C13.8746 13.3558 12.6786 12.331 11.27 11.7001ZM6 19.0001H4C3.73478 19.0001 3.48043 18.8947 3.29289 18.7072C3.10536 18.5197 3 18.2653 3 18.0001C3 17.7349 3.10536 17.4805 3.29289 17.293C3.48043 17.1055 3.73478 17.0001 4 17.0001H6C6.26522 17.0001 6.51957 17.1055 6.70711 17.293C6.89464 17.4805 7 17.7349 7 18.0001C7 18.2653 6.89464 18.5197 6.70711 18.7072C6.51957 18.8947 6.26522 19.0001 6 19.0001Z" fill="black" fill-opacity="0.65"/>
</svg>
