<svg width="28" height="28" viewBox="0 0 28 28" fill="none" xmlns="http://www.w3.org/2000/svg">
<path d="M14 0.666668C11.4765 0.667051 9.00496 1.38355 6.87253 2.73289C4.7401 4.08223 3.03437 6.00901 1.95356 8.28933C0.872746 10.5696 0.461237 13.1099 0.76685 15.6148C1.07246 18.1197 2.08265 20.4864 3.68002 22.44L22.44 3.68C20.0586 1.73185 17.0768 0.667239 14 0.666668ZM24.32 5.56L5.56002 24.32C8.11956 26.4083 11.3632 27.4721 14.6623 27.3053C17.9615 27.1385 21.0812 25.7529 23.4171 23.417C25.7529 21.0812 27.1385 17.9615 27.3053 14.6623C27.4721 11.3632 26.4083 8.11954 24.32 5.56Z" fill="#000093"/>
</svg>
