<svg width="20" height="20" viewBox="0 0 20 20" fill="none" xmlns="http://www.w3.org/2000/svg">
<path d="M10.0004 0C8.10783 0.00028727 6.25415 0.537658 4.65483 1.54966C3.0555 2.56167 1.7762 4.00676 0.965595 5.717C0.154987 7.42723 -0.153645 9.33239 0.0755651 11.2111C0.304775 13.0898 1.06242 14.8648 2.26044 16.33L16.3304 2.26C14.5444 0.79889 12.308 0.000428323 10.0004 0ZM17.7404 3.67L3.67044 17.74C5.5901 19.3062 8.02281 20.1041 10.4972 19.979C12.9715 19.8538 15.3113 18.8147 17.0632 17.0628C18.8151 15.3109 19.8543 12.9711 19.9794 10.4967C20.1045 8.02237 19.3067 5.58965 17.7404 3.67Z" fill="black" fill-opacity="0.65"/>
</svg>
