<svg width="16" height="17" viewBox="0 0 16 17" fill="none" xmlns="http://www.w3.org/2000/svg">
<path d="M14.7667 2.23366C14.2983 1.76468 13.6628 1.50091 13 1.50033H12.1667C12.1667 1.27931 12.0789 1.06735 11.9226 0.91107C11.7663 0.75479 11.5543 0.666992 11.3333 0.666992C11.1123 0.666992 10.9004 0.75479 10.7441 0.91107C10.5878 1.06735 10.5 1.27931 10.5 1.50033H5.5C5.5 1.27931 5.4122 1.06735 5.25592 0.91107C5.09964 0.75479 4.88768 0.666992 4.66667 0.666992C4.44565 0.666992 4.23369 0.75479 4.07741 0.91107C3.92113 1.06735 3.83333 1.27931 3.83333 1.50033H3C2.33696 1.50033 1.70107 1.76372 1.23223 2.23256C0.763392 2.7014 0.5 3.33728 0.5 4.00033V14.0003C0.5 14.6634 0.763392 15.2993 1.23223 15.7681C1.70107 16.2369 2.33696 16.5003 3 16.5003H13C13.663 16.5003 14.2989 16.2369 14.7678 15.7681C15.2366 15.2993 15.5 14.6634 15.5 14.0003V4.00033C15.4994 3.33751 15.2356 2.70205 14.7667 2.23366ZM4.66667 13.167C4.50185 13.167 4.34073 13.1181 4.20369 13.0266C4.06665 12.935 3.95984 12.8048 3.89677 12.6526C3.83369 12.5003 3.81719 12.3327 3.84935 12.1711C3.8815 12.0094 3.96087 11.8609 4.07741 11.7444C4.19395 11.6279 4.34244 11.5485 4.50409 11.5163C4.66574 11.4842 4.8333 11.5007 4.98557 11.5638C5.13784 11.6268 5.26799 11.7336 5.35956 11.8707C5.45113 12.0077 5.5 12.1688 5.5 12.3337C5.5 12.5547 5.4122 12.7666 5.25592 12.9229C5.09964 13.0792 4.88768 13.167 4.66667 13.167ZM4.66667 9.83366C4.50185 9.83366 4.34073 9.78478 4.20369 9.69322C4.06665 9.60165 3.95984 9.4715 3.89677 9.31923C3.83369 9.16696 3.81719 8.9994 3.84935 8.83775C3.8815 8.6761 3.96087 8.52761 4.07741 8.41107C4.19395 8.29453 4.34244 8.21516 4.50409 8.183C4.66574 8.15085 4.8333 8.16735 4.98557 8.23043C5.13784 8.2935 5.26799 8.40031 5.35956 8.53735C5.45113 8.67439 5.5 8.83551 5.5 9.00033C5.5 9.22134 5.4122 9.4333 5.25592 9.58958C5.09964 9.74586 4.88768 9.83366 4.66667 9.83366ZM8 13.167C7.83518 13.167 7.67407 13.1181 7.53702 13.0266C7.39998 12.935 7.29317 12.8048 7.2301 12.6526C7.16703 12.5003 7.15052 12.3327 7.18268 12.1711C7.21483 12.0094 7.2942 11.8609 7.41074 11.7444C7.52729 11.6279 7.67577 11.5485 7.83742 11.5163C7.99908 11.4842 8.16663 11.5007 8.3189 11.5638C8.47117 11.6268 8.60132 11.7336 8.69289 11.8707C8.78446 12.0077 8.83333 12.1688 8.83333 12.3337C8.83333 12.5547 8.74554 12.7666 8.58926 12.9229C8.43297 13.0792 8.22101 13.167 8 13.167ZM8 9.83366C7.83518 9.83366 7.67407 9.78478 7.53702 9.69322C7.39998 9.60165 7.29317 9.4715 7.2301 9.31923C7.16703 9.16696 7.15052 8.9994 7.18268 8.83775C7.21483 8.6761 7.2942 8.52761 7.41074 8.41107C7.52729 8.29453 7.67577 8.21516 7.83742 8.183C7.99908 8.15085 8.16663 8.16735 8.3189 8.23043C8.47117 8.2935 8.60132 8.40031 8.69289 8.53735C8.78446 8.67439 8.83333 8.83551 8.83333 9.00033C8.83333 9.22134 8.74554 9.4333 8.58926 9.58958C8.43297 9.74586 8.22101 9.83366 8 9.83366ZM11.3333 9.83366C11.1685 9.83366 11.0074 9.78478 10.8704 9.69322C10.7333 9.60165 10.6265 9.4715 10.5634 9.31923C10.5004 9.16696 10.4839 8.9994 10.516 8.83775C10.5482 8.6761 10.6275 8.52761 10.7441 8.41107C10.8606 8.29453 11.0091 8.21516 11.1708 8.183C11.3324 8.15085 11.5 8.16735 11.6522 8.23043C11.8045 8.2935 11.9347 8.40031 12.0262 8.53735C12.1178 8.67439 12.1667 8.83551 12.1667 9.00033C12.1667 9.22134 12.0789 9.4333 11.9226 9.58958C11.7663 9.74586 11.5543 9.83366 11.3333 9.83366ZM13.8333 4.83366H2.16667V4.00033C2.16667 3.77931 2.25446 3.56735 2.41074 3.41107C2.56702 3.25479 2.77899 3.16699 3 3.16699H3.83333C3.83333 3.38801 3.92113 3.59997 4.07741 3.75625C4.23369 3.91253 4.44565 4.00033 4.66667 4.00033C4.88768 4.00033 5.09964 3.91253 5.25592 3.75625C5.4122 3.59997 5.5 3.38801 5.5 3.16699H10.5C10.5 3.38801 10.5878 3.59997 10.7441 3.75625C10.9004 3.91253 11.1123 4.00033 11.3333 4.00033C11.5543 4.00033 11.7663 3.91253 11.9226 3.75625C12.0789 3.59997 12.1667 3.38801 12.1667 3.16699H13C13.221 3.16699 13.433 3.25479 13.5893 3.41107C13.7455 3.56735 13.8333 3.77931 13.8333 4.00033V4.83366Z" fill="#373737"/>
</svg>
