<svg width="20" height="28" viewBox="0 0 20 28" fill="none" xmlns="http://www.w3.org/2000/svg">
<path d="M9.99997 8.66667C9.73627 8.66667 9.47848 8.74487 9.25921 8.89138C9.03995 9.03789 8.86905 9.24612 8.76813 9.48976C8.66722 9.73339 8.64081 10.0015 8.69226 10.2601C8.74371 10.5188 8.8707 10.7563 9.05717 10.9428C9.24364 11.1293 9.48121 11.2563 9.73985 11.3077C9.9985 11.3592 10.2666 11.3328 10.5102 11.2318C10.7539 11.1309 10.9621 10.96 11.1086 10.7408C11.2551 10.5215 11.3333 10.2637 11.3333 10C11.3333 9.64638 11.1928 9.30724 10.9428 9.05719C10.6927 8.80715 10.3536 8.66667 9.99997 8.66667ZM14 22H11.3333V19.2267C13.6688 18.8896 15.7898 17.6804 17.2697 15.8425C18.7496 14.0045 19.4783 11.6743 19.3093 9.32068C19.1404 6.96709 18.0862 4.76485 16.3589 3.15718C14.6317 1.5495 12.3596 0.655731 9.99997 0.655731C7.64032 0.655731 5.36825 1.5495 3.64101 3.15718C1.91377 4.76485 0.859585 6.96709 0.690605 9.32068C0.521624 11.6743 1.25039 14.0045 2.73025 15.8425C4.2101 17.6804 6.33119 18.8896 8.66664 19.2267V22H5.99997C4.93911 22 3.92169 22.4214 3.17155 23.1716C2.4214 23.9217 1.99997 24.9391 1.99997 26C1.99997 26.3536 2.14045 26.6928 2.3905 26.9428C2.64055 27.1929 2.97969 27.3333 3.33331 27.3333H16.6666C17.0203 27.3333 17.3594 27.1929 17.6094 26.9428C17.8595 26.6928 18 26.3536 18 26C18 24.9391 17.5785 23.9217 16.8284 23.1716C16.0783 22.4214 15.0608 22 14 22ZM5.99997 10C5.99997 9.20888 6.23457 8.43552 6.6741 7.77772C7.11362 7.11993 7.73834 6.60723 8.46924 6.30448C9.20014 6.00173 10.0044 5.92252 10.7803 6.07686C11.5563 6.2312 12.269 6.61216 12.8284 7.17158C13.3878 7.73099 13.7688 8.44372 13.9231 9.21964C14.0775 9.99557 13.9982 10.7998 13.6955 11.5307C13.3927 12.2616 12.8801 12.8864 12.2223 13.3259C11.5645 13.7654 10.7911 14 9.99997 14C8.93911 14 7.92169 13.5786 7.17155 12.8284C6.4214 12.0783 5.99997 11.0609 5.99997 10Z" fill="#E0E0E0"/>
</svg>
