<svg width="20" height="16" viewBox="0 0 20 16" fill="none" xmlns="http://www.w3.org/2000/svg">
<path d="M17 3.00003H16.1C15.9318 2.99868 15.7666 2.9549 15.6197 2.87274C15.4729 2.79059 15.3492 2.67271 15.26 2.53003L14.26 0.930026C14.0787 0.643656 13.8275 0.408071 13.5302 0.245393C13.2328 0.0827162 12.899 -0.00171567 12.56 2.64217e-05H7.44C7.10274 -2.34708e-05 6.77094 0.0852144 6.47547 0.247813C6.17999 0.410412 5.93043 0.645091 5.75 0.930026L4.75 2.53003C4.65993 2.67414 4.53462 2.79292 4.38589 2.87516C4.23717 2.95739 4.06994 3.00037 3.9 3.00003H3C2.20435 3.00003 1.44129 3.3161 0.87868 3.87871C0.316071 4.44132 0 5.20438 0 6.00003V13C0 13.7957 0.316071 14.5587 0.87868 15.1213C1.44129 15.684 2.20435 16 3 16H17C17.7956 16 18.5587 15.684 19.1213 15.1213C19.6839 14.5587 20 13.7957 20 13V6.00003C20 5.20438 19.6839 4.44132 19.1213 3.87871C18.5587 3.3161 17.7956 3.00003 17 3.00003ZM10 12C9.40666 12 8.82664 11.8241 8.33329 11.4944C7.83994 11.1648 7.45542 10.6963 7.22836 10.1481C7.0013 9.5999 6.94189 8.9967 7.05764 8.41476C7.1734 7.83281 7.45912 7.29826 7.87868 6.87871C8.29824 6.45915 8.83279 6.17343 9.41473 6.05767C9.99667 5.94191 10.5999 6.00132 11.1481 6.22839C11.6962 6.45545 12.1648 6.83997 12.4944 7.33332C12.8241 7.82666 13 8.40668 13 9.00003C13 9.79568 12.6839 10.5587 12.1213 11.1213C11.5587 11.684 10.7956 12 10 12Z" fill="black" fill-opacity="0.65"/>
</svg>
