<svg width="18" height="18" viewBox="0 0 18 18" fill="none" xmlns="http://www.w3.org/2000/svg">
<path d="M16.4999 1.5C15.8363 0.838048 14.9372 0.466309 13.9999 0.466309C13.0626 0.466309 12.1635 0.838048 11.4999 1.5L11.2099 1.79L16.2099 6.79L16.4999 6.5C17.1618 5.83638 17.5336 4.93732 17.5336 4C17.5336 3.06268 17.1618 2.16362 16.4999 1.5ZM2.5499 10.5C2.19016 10.8617 1.92859 11.3091 1.7899 11.8L0.789897 15.45C0.729627 15.6998 0.734527 15.9608 0.804129 16.2082C0.873731 16.4555 1.0057 16.6808 1.18739 16.8625C1.36907 17.0442 1.59438 17.1762 1.84172 17.2458C2.08905 17.3154 2.35012 17.3203 2.5999 17.26L6.2499 16.21C6.7408 16.0713 7.18823 15.8097 7.5499 15.45L14.7899 8.21L9.7899 3.21L2.5499 10.5Z" fill="#000093"/>
</svg>
