<svg width="18" height="18" viewBox="0 0 18 18" fill="none" xmlns="http://www.w3.org/2000/svg">
<path d="M16.4999 1.50048C15.8363 0.838536 14.9372 0.466797 13.9999 0.466797C13.0626 0.466797 12.1635 0.838536 11.4999 1.50048L11.2099 1.79048L16.2099 6.79048L16.4999 6.50048C17.1618 5.83686 17.5336 4.9378 17.5336 4.00048C17.5336 3.06317 17.1618 2.16411 16.4999 1.50048ZM2.5499 10.5005C2.19016 10.8622 1.92859 11.3096 1.7899 11.8005L0.789897 15.4505C0.729627 15.7003 0.734527 15.9613 0.804129 16.2087C0.873731 16.456 1.0057 16.6813 1.18739 16.863C1.36907 17.0447 1.59438 17.1767 1.84172 17.2463C2.08905 17.3159 2.35012 17.3208 2.5999 17.2605L6.2499 16.2105C6.7408 16.0718 7.18823 15.8102 7.5499 15.4505L14.7899 8.21048L9.7899 3.21048L2.5499 10.5005Z" fill="#E0E0E0"/>
</svg>
