<svg width="21" height="20" viewBox="0 0 21 20" fill="none" xmlns="http://www.w3.org/2000/svg">
<path d="M8.49995 9C9.38997 9 10.26 8.73608 11 8.24162C11.74 7.74715 12.3168 7.04434 12.6574 6.22208C12.998 5.39981 13.0871 4.49501 12.9135 3.6221C12.7399 2.74918 12.3113 1.94736 11.6819 1.31802C11.0526 0.688685 10.2508 0.260102 9.37786 0.0864683C8.50494 -0.0871652 7.60014 0.00194976 6.77788 0.342544C5.95561 0.683138 5.2528 1.25991 4.75834 1.99994C4.26387 2.73996 3.99995 3.60999 3.99995 4.5C4.00259 5.69266 4.47755 6.83572 5.32089 7.67906C6.16423 8.52241 7.30729 8.99736 8.49995 9ZM16.5 10C17.0933 10 17.6733 9.82405 18.1667 9.49441C18.66 9.16477 19.0445 8.69623 19.2716 8.14805C19.4987 7.59987 19.5581 6.99667 19.4423 6.41473C19.3266 5.83279 19.0408 5.29824 18.6213 4.87868C18.2017 4.45912 17.6672 4.1734 17.0852 4.05765C16.5033 3.94189 15.9001 4.0013 15.3519 4.22836C14.8037 4.45543 14.3352 4.83994 14.0055 5.33329C13.6759 5.82664 13.5 6.40666 13.5 7C13.5 7.79565 13.816 8.55871 14.3786 9.12132C14.9412 9.68393 15.7043 10 16.5 10ZM16.5 11C15.5173 10.9941 14.5669 11.35 13.83 12C12.6764 10.9694 11.2488 10.2953 9.72003 10.0594C8.19125 9.82343 6.62685 10.0358 5.21628 10.6707C3.8057 11.3056 2.60945 12.3359 1.77239 13.6367C0.935316 14.9375 0.493331 16.4531 0.499951 18C0.499951 18.5304 0.710665 19.0391 1.08574 19.4142C1.46081 19.7893 1.96952 20 2.49995 20H14.5C15.0304 20 15.5391 19.7893 15.9142 19.4142C16.2892 19.0391 16.5 18.5304 16.5 18C16.4969 17.6656 16.4735 17.3316 16.43 17H18.5C19.0304 17 19.5391 16.7893 19.9142 16.4142C20.2892 16.0391 20.5 15.5304 20.5 15C20.5 13.9391 20.0785 12.9217 19.3284 12.1716C18.5782 11.4214 17.5608 11 16.5 11Z" fill="black" fill-opacity="0.65"/>
</svg>
