<svg width="12" height="10" viewBox="0 0 12 10" fill="none" xmlns="http://www.w3.org/2000/svg">
<path d="M9.33333 4.3335H2.66667C2.48986 4.3335 2.32029 4.40373 2.19526 4.52876C2.07024 4.65378 2 4.82335 2 5.00016C2 5.17697 2.07024 5.34654 2.19526 5.47157C2.32029 5.59659 2.48986 5.66683 2.66667 5.66683H9.33333C9.51014 5.66683 9.67971 5.59659 9.80474 5.47157C9.92976 5.34654 10 5.17697 10 5.00016C10 4.82335 9.92976 4.65378 9.80474 4.52876C9.67971 4.40373 9.51014 4.3335 9.33333 4.3335ZM7.33333 8.3335H4.66667C4.48986 8.3335 4.32029 8.40373 4.19526 8.52876C4.07024 8.65378 4 8.82335 4 9.00016C4 9.17697 4.07024 9.34654 4.19526 9.47157C4.32029 9.59659 4.48986 9.66683 4.66667 9.66683H7.33333C7.51014 9.66683 7.67971 9.59659 7.80474 9.47157C7.92976 9.34654 8 9.17697 8 9.00016C8 8.82335 7.92976 8.65378 7.80474 8.52876C7.67971 8.40373 7.51014 8.3335 7.33333 8.3335ZM11.3333 0.333496H0.666667C0.489856 0.333496 0.320286 0.403734 0.195262 0.528758C0.0702379 0.653783 0 0.823352 0 1.00016C0 1.17697 0.0702379 1.34654 0.195262 1.47157C0.320286 1.59659 0.489856 1.66683 0.666667 1.66683H11.3333C11.5101 1.66683 11.6797 1.59659 11.8047 1.47157C11.9298 1.34654 12 1.17697 12 1.00016C12 0.823352 11.9298 0.653783 11.8047 0.528758C11.6797 0.403734 11.5101 0.333496 11.3333 0.333496Z" fill="#000093"/>
</svg>
