<svg width="48" height="48" viewBox="0 0 48 48" fill="none" xmlns="http://www.w3.org/2000/svg">
<rect width="48" height="48" rx="24" fill="#3535F3"/>
<path d="M29 14H19C18.2044 14 17.4413 14.3161 16.8787 14.8787C16.3161 15.4413 16 16.2044 16 17V31C16 31.7956 16.3161 32.5587 16.8787 33.1213C17.4413 33.6839 18.2044 34 19 34H29C29.7956 34 30.5587 33.6839 31.1213 33.1213C31.6839 32.5587 32 31.7956 32 31V17C32 16.2044 31.6839 15.4413 31.1213 14.8787C30.5587 14.3161 29.7956 14 29 14ZM24 18H28C28.2652 18 28.5196 18.1054 28.7071 18.2929C28.8946 18.4804 29 18.7348 29 19C29 19.2652 28.8946 19.5196 28.7071 19.7071C28.5196 19.8946 28.2652 20 28 20H24C23.7348 20 23.4804 19.8946 23.2929 19.7071C23.1054 19.5196 23 19.2652 23 19C23 18.7348 23.1054 18.4804 23.2929 18.2929C23.4804 18.1054 23.7348 18 24 18ZM28 30H24C23.7348 30 23.4804 29.8946 23.2929 29.7071C23.1054 29.5196 23 29.2652 23 29C23 28.7348 23.1054 28.4804 23.2929 28.2929C23.4804 28.1054 23.7348 28 24 28H28C28.2652 28 28.5196 28.1054 28.7071 28.2929C28.8946 28.4804 29 28.7348 29 29C29 29.2652 28.8946 29.5196 28.7071 29.7071C28.5196 29.8946 28.2652 30 28 30ZM28 25H24C23.7348 25 23.4804 24.8946 23.2929 24.7071C23.1054 24.5196 23 24.2652 23 24C23 23.7348 23.1054 23.4804 23.2929 23.2929C23.4804 23.1054 23.7348 23 24 23H28C28.2652 23 28.5196 23.1054 28.7071 23.2929C28.8946 23.4804 29 23.7348 29 24C29 24.2652 28.8946 24.5196 28.7071 24.7071C28.5196 24.8946 28.2652 25 28 25ZM21.5 19C21.5 19.2967 21.412 19.5867 21.2472 19.8334C21.0824 20.08 20.8481 20.2723 20.574 20.3858C20.2999 20.4994 19.9983 20.5291 19.7074 20.4712C19.4164 20.4133 19.1491 20.2704 18.9393 20.0607C18.7296 19.8509 18.5867 19.5836 18.5288 19.2926C18.4709 19.0017 18.5006 18.7001 18.6142 18.426C18.7277 18.1519 18.92 17.9176 19.1666 17.7528C19.4133 17.588 19.7033 17.5 20 17.5C20.3978 17.5 20.7794 17.658 21.0607 17.9393C21.342 18.2206 21.5 18.6022 21.5 19ZM21.5 24C21.5 24.2967 21.412 24.5867 21.2472 24.8334C21.0824 25.08 20.8481 25.2723 20.574 25.3858C20.2999 25.4994 19.9983 25.5291 19.7074 25.4712C19.4164 25.4133 19.1491 25.2704 18.9393 25.0607C18.7296 24.8509 18.5867 24.5836 18.5288 24.2926C18.4709 24.0017 18.5006 23.7001 18.6142 23.426C18.7277 23.1519 18.92 22.9176 19.1666 22.7528C19.4133 22.588 19.7033 22.5 20 22.5C20.3978 22.5 20.7794 22.658 21.0607 22.9393C21.342 23.2206 21.5 23.6022 21.5 24ZM21.5 29C21.5 29.2967 21.412 29.5867 21.2472 29.8334C21.0824 30.08 20.8481 30.2723 20.574 30.3858C20.2999 30.4993 19.9983 30.5291 19.7074 30.4712C19.4164 30.4133 19.1491 30.2704 18.9393 30.0607C18.7296 29.8509 18.5867 29.5836 18.5288 29.2926C18.4709 29.0017 18.5006 28.7001 18.6142 28.426C18.7277 28.1519 18.92 27.9176 19.1666 27.7528C19.4133 27.588 19.7033 27.5 20 27.5C20.3978 27.5 20.7794 27.658 21.0607 27.9393C21.342 28.2206 21.5 28.6022 21.5 29Z" fill="#E8E8FC"/>
</svg>
