<svg id="Selector-Buttonjds-gridview-white" xmlns="http://www.w3.org/2000/svg" width="48" height="48" viewBox="0 0 48 48">
  <path id="Path_82800" data-name="Path 82800" d="M24,0A24,24,0,1,1,0,24,24,24,0,0,1,24,0Z" fill="#fff"/>
  <path id="Path_82799" data-name="Path 82799" d="M29,14H19a3,3,0,0,0-3,3V31a3,3,0,0,0,3,3H29a3,3,0,0,0,3-3V17a3,3,0,0,0-3-3Zm-5,4h4a1,1,0,0,1,0,2H24a1,1,0,0,1,0-2Zm4,12H24a1,1,0,0,1,0-2h4a1,1,0,0,1,0,2Zm0-5H24a1,1,0,0,1,0-2h4a1,1,0,0,1,0,2Zm-6.5-6a1.5,1.5,0,1,1-.439-1.061A1.5,1.5,0,0,1,21.5,19Zm0,5a1.5,1.5,0,1,1-.439-1.061A1.5,1.5,0,0,1,21.5,24Zm0,5a1.5,1.5,0,1,1-.439-1.061A1.5,1.5,0,0,1,21.5,29Z"/>
</svg>
