<svg width="21" height="20" viewBox="0 0 21 20" fill="none" xmlns="http://www.w3.org/2000/svg">
<path d="M19.9706 7.31017L12.3506 0.700168C11.8394 0.250182 11.1817 0.00195312 10.5006 0.00195312C9.81956 0.00195312 9.16185 0.250182 8.65062 0.700168L1.03062 7.31017C0.798088 7.5094 0.630688 7.77382 0.550072 8.06922C0.469455 8.36462 0.47933 8.67742 0.57842 8.96715C0.677509 9.25688 0.861254 9.51021 1.10589 9.69437C1.35052 9.87854 1.64478 9.98506 1.95062 10.0002H2.50062V17.0002C2.50062 17.7958 2.81669 18.5589 3.3793 19.1215C3.94191 19.6841 4.70497 20.0002 5.50062 20.0002H8.50062V14.0002H12.5006V20.0002H15.5006C16.2963 20.0002 17.0593 19.6841 17.6219 19.1215C18.1845 18.5589 18.5006 17.7958 18.5006 17.0002V10.0002H19.0506C19.3564 9.98506 19.6507 9.87854 19.8953 9.69437C20.14 9.51021 20.3237 9.25688 20.4228 8.96715C20.5219 8.67742 20.5318 8.36462 20.4512 8.06922C20.3705 7.77382 20.2031 7.5094 19.9706 7.31017Z" fill="black" fill-opacity="0.65"/>
</svg>
