<svg width="32" height="32" viewBox="0 0 32 32" fill="none" xmlns="http://www.w3.org/2000/svg">
<path d="M16.6666 12.0002V9.3335H13C12.558 9.3335 12.134 9.50909 11.8215 9.82165C11.5089 10.1342 11.3333 10.5581 11.3333 11.0002V21.0002C11.3333 21.4422 11.5089 21.8661 11.8215 22.1787C12.134 22.4912 12.558 22.6668 13 22.6668H19.6666C20.1087 22.6668 20.5326 22.4912 20.8452 22.1787C21.1577 21.8661 21.3333 21.4422 21.3333 21.0002V14.0002H18.6666C18.1362 14.0002 17.6275 13.7894 17.2524 13.4144C16.8774 13.0393 16.6666 12.5306 16.6666 12.0002V12.0002ZM18.6666 12.6668H21.3333C21.3318 12.3138 21.1904 11.9757 20.94 11.7268L18.94 9.72683C18.6911 9.47644 18.353 9.33498 18 9.3335V12.0002C18 12.177 18.0702 12.3465 18.1952 12.4716C18.3203 12.5966 18.4898 12.6668 18.6666 12.6668Z" fill="#3E0084"/>
<rect x="0.5" y="0.5" width="31" height="31" rx="15.5" stroke="#E0E0E0"/>
</svg>
