<svg width="32" height="32" viewBox="0 0 32 32" fill="none" xmlns="http://www.w3.org/2000/svg">
<circle cx="16.0003" cy="16.0003" r="13.3333" fill="white"/>
<path d="M16.0003 2.66699C13.3632 2.66699 10.7854 3.44898 8.59273 4.91406C6.40007 6.37915 4.69111 8.46153 3.68194 10.8979C2.67277 13.3342 2.40872 16.0151 2.92319 18.6015C3.43766 21.1879 4.70754 23.5637 6.57224 25.4284C8.43694 27.2931 10.8127 28.563 13.3991 29.0775C15.9855 29.5919 18.6664 29.3279 21.1028 28.3187C23.5391 27.3096 25.6215 25.6006 27.0866 23.4079C28.5517 21.2153 29.3337 18.6374 29.3337 16.0003C29.3337 14.2494 28.9888 12.5156 28.3187 10.8979C27.6487 9.2802 26.6665 7.81035 25.4284 6.57224C24.1903 5.33412 22.7205 4.35199 21.1028 3.68193C19.4851 3.01187 17.7513 2.66699 16.0003 2.66699ZM22.947 12.947L14.947 20.947C14.823 21.072 14.6756 21.1712 14.5131 21.2388C14.3506 21.3065 14.1763 21.3414 14.0003 21.3414C13.8243 21.3414 13.65 21.3065 13.4876 21.2388C13.3251 21.1712 13.1776 21.072 13.0537 20.947L9.05366 16.947C8.92935 16.8227 8.83073 16.6751 8.76345 16.5127C8.69617 16.3502 8.66154 16.1761 8.66154 16.0003C8.66154 15.6453 8.80259 15.3047 9.05366 15.0537C9.30474 14.8026 9.64526 14.6615 10.0003 14.6615C10.3554 14.6615 10.6959 14.8026 10.947 15.0537L14.0003 18.1203L21.0537 11.0537C21.3047 10.8026 21.6453 10.6615 22.0003 10.6615C22.3554 10.6615 22.6959 10.8026 22.947 11.0537C23.1981 11.3047 23.3391 11.6453 23.3391 12.0003C23.3391 12.3554 23.1981 12.6959 22.947 12.947Z" fill="#25AB21"/>
</svg>
