<svg width="40" height="40" viewBox="0 0 40 40" fill="none" xmlns="http://www.w3.org/2000/svg">
<path d="M19.9999 3.33325C16.7036 3.33325 13.4812 4.31073 10.7404 6.14209C7.9996 7.97345 5.86339 10.5764 4.60193 13.6219C3.34047 16.6673 3.01042 20.0184 3.6535 23.2514C4.29659 26.4844 5.88394 29.4542 8.21481 31.785C10.5457 34.1159 13.5154 35.7033 16.7484 36.3463C19.9814 36.9894 23.3325 36.6594 26.378 35.3979C29.4234 34.1365 32.0264 32.0002 33.8577 29.2594C35.6891 26.5186 36.6666 23.2963 36.6666 19.9999C36.6666 17.8112 36.2355 15.644 35.3979 13.6219C34.5603 11.5998 33.3327 9.76245 31.785 8.21481C30.2374 6.66716 28.4001 5.4395 26.378 4.60193C24.3559 3.76435 22.1886 3.33325 19.9999 3.33325V3.33325ZM26.1833 23.8166C26.3395 23.9715 26.4635 24.1559 26.5481 24.359C26.6327 24.5621 26.6763 24.7799 26.6763 24.9999C26.6763 25.2199 26.6327 25.4378 26.5481 25.6409C26.4635 25.844 26.3395 26.0283 26.1833 26.1833C26.0283 26.3395 25.844 26.4635 25.6409 26.5481C25.4378 26.6327 25.2199 26.6763 24.9999 26.6763C24.7799 26.6763 24.5621 26.6327 24.359 26.5481C24.1559 26.4635 23.9715 26.3395 23.8166 26.1833L19.9999 22.3499L16.1833 26.1833C16.0283 26.3395 15.844 26.4635 15.6409 26.5481C15.4378 26.6327 15.2199 26.6763 14.9999 26.6763C14.7799 26.6763 14.5621 26.6327 14.359 26.5481C14.1559 26.4635 13.9715 26.3395 13.8166 26.1833C13.6604 26.0283 13.5364 25.844 13.4518 25.6409C13.3672 25.4378 13.3236 25.2199 13.3236 24.9999C13.3236 24.7799 13.3672 24.5621 13.4518 24.359C13.5364 24.1559 13.6604 23.9715 13.8166 23.8166L17.6499 19.9999L13.8166 16.1833C13.5028 15.8694 13.3264 15.4438 13.3264 14.9999C13.3264 14.5561 13.5028 14.1304 13.8166 13.8166C14.1304 13.5027 14.5561 13.3264 14.9999 13.3264C15.4438 13.3264 15.8694 13.5027 16.1833 13.8166L19.9999 17.6499L23.8166 13.8166C24.1304 13.5027 24.5561 13.3264 24.9999 13.3264C25.4438 13.3264 25.8694 13.5027 26.1833 13.8166C26.4971 14.1304 26.6734 14.5561 26.6734 14.9999C26.6734 15.4438 26.4971 15.8694 26.1833 16.1833L22.3499 19.9999L26.1833 23.8166Z" fill="#F50031"/>
</svg>
