<svg width="14" height="20" viewBox="0 0 14 20" fill="none" xmlns="http://www.w3.org/2000/svg">
<path d="M6.29019 15.71C6.38315 15.8037 6.49375 15.8781 6.61561 15.9289C6.73747 15.9797 6.86817 16.0058 7.00019 16.0058C7.1322 16.0058 7.2629 15.9797 7.38476 15.9289C7.50662 15.8781 7.61722 15.8037 7.71019 15.71L12.7102 10.71C12.8034 10.6168 12.8774 10.5061 12.9278 10.3842C12.9783 10.2624 13.0043 10.1319 13.0043 10C13.0043 9.86814 12.9783 9.73757 12.9278 9.61575C12.8774 9.49393 12.8034 9.38324 12.7102 9.29C12.6169 9.19676 12.5063 9.1228 12.3844 9.07234C12.2626 9.02188 12.132 8.99591 12.0002 8.99591C11.8683 8.99591 11.7378 9.02188 11.6159 9.07234C11.4941 9.1228 11.3834 9.19676 11.2902 9.29L8.00019 12.59V1C8.00019 0.734784 7.89483 0.48043 7.70729 0.292893C7.51976 0.105357 7.2654 0 7.00019 0C6.73497 0 6.48062 0.105357 6.29308 0.292893C6.10554 0.48043 6.00019 0.734784 6.00019 1V12.59L2.71019 9.29C2.52188 9.1017 2.26649 8.99591 2.00019 8.99591C1.73388 8.99591 1.47849 9.1017 1.29019 9.29C1.10188 9.4783 0.996094 9.7337 0.996094 10C0.996094 10.2663 1.10188 10.5217 1.29019 10.71L6.29019 15.71ZM12.0002 18H2.00019C1.73497 18 1.48062 18.1054 1.29308 18.2929C1.10554 18.4804 1.00019 18.7348 1.00019 19C1.00019 19.2652 1.10554 19.5196 1.29308 19.7071C1.48062 19.8946 1.73497 20 2.00019 20H12.0002C12.2654 20 12.5198 19.8946 12.7073 19.7071C12.8948 19.5196 13.0002 19.2652 13.0002 19C13.0002 18.7348 12.8948 18.4804 12.7073 18.2929C12.5198 18.1054 12.2654 18 12.0002 18Z" fill="black" fill-opacity="0.65"/>
</svg>
