<svg width="48" height="48" viewBox="0 0 48 48" fill="none" xmlns="http://www.w3.org/2000/svg">
<rect width="48" height="48" rx="24" fill="#E7EBF8"/>
<path fill-rule="evenodd" clip-rule="evenodd" d="M25.4163 11.1245C24.7831 11.3281 24.3418 11.6982 24.0022 12.3107L23.6828 12.8864L23.6839 15.926C23.6848 18.9257 23.6881 18.9718 23.9298 19.4395C24.9316 21.3782 27.8661 21.3458 28.8498 19.3853C29.0477 18.991 29.0605 18.7817 29.0617 15.9344C29.0629 12.9488 29.0593 12.8962 28.8201 12.4334C28.531 11.8739 27.7868 11.2535 27.2219 11.1011C26.6913 10.9578 25.9029 10.968 25.4163 11.1245ZM14.9816 16.034C13.6582 16.2206 12.1915 17.3931 11.2562 19.0122C10.5169 20.2922 11.3909 23.5298 13.7069 28.091C15.0143 30.6657 18.9834 35.1273 21.0654 36.3626C21.9812 36.906 22.6179 37.0565 23.6867 36.9823C25.4064 36.8627 26.8019 36.3254 27.4946 35.5161C27.7875 35.1739 27.8293 35.0637 27.7737 34.7806C27.6133 33.9627 26.1971 31.8069 25.3051 31.0226C24.1286 29.9883 22.8498 30.0748 21.6368 31.2707C21.3473 31.5561 21.0245 31.7896 20.9194 31.7896C20.5595 31.7896 19.4153 31.0904 18.7904 30.4885C17.6701 29.4098 16.0933 26.9725 15.5609 25.4965C15.2666 24.6808 15.1334 23.5985 15.2741 23.1655C15.355 22.9165 15.4288 22.8769 16.0115 22.7706C17.2389 22.5468 17.8572 22.187 18.2067 21.4935C18.5675 20.7775 18.4359 20.1167 17.6251 18.5741C17.035 17.4515 16.6288 16.8672 16.1195 16.4082C15.6742 16.007 15.5237 15.9575 14.9816 16.034ZM21.5549 16.8128C21.3826 16.9262 21.3491 17.0843 21.3189 17.9249C21.2576 19.6396 21.5561 20.6944 22.3937 21.7227C23.0478 22.5254 24.2615 23.2022 25.4683 23.4371L25.7529 23.4925V24.7498V26.0071H24.5787C23.5725 26.0071 23.3799 26.0315 23.2331 26.1777C23.0084 26.4014 23.0158 26.6867 23.2511 26.8787C23.416 27.0132 23.7559 27.033 25.8905 27.033H28.3405V26.5201V26.0071H27.6677H26.9949V24.7543C26.9949 23.6398 27.0149 23.4968 27.1761 23.4585C27.2757 23.4349 27.5784 23.3637 27.8488 23.3003L28.3405 23.1849V22.5908C28.3405 22.2641 28.3149 21.9967 28.2835 21.9967C28.2523 21.9967 28.0967 22.0572 27.9379 22.1313C27.4011 22.3814 26.351 22.4913 25.6839 22.3671C24.266 22.1031 23.262 21.3251 22.7644 20.1045C22.5812 19.6553 22.5443 19.3578 22.5443 18.33C22.5443 17.3633 22.5093 17.0501 22.3832 16.8879C22.1992 16.6512 21.8488 16.6194 21.5549 16.8128ZM30.3647 16.8879C30.2395 17.0488 30.2035 17.3576 30.2035 18.2699C30.2035 19.0653 30.1511 19.6037 30.0412 19.9371C29.952 20.208 29.8937 20.4367 29.9118 20.4456C29.9755 20.4765 30.6712 20.7075 30.8428 20.7547C30.9733 20.7906 31.0444 20.7135 31.1298 20.4435C31.3376 19.7866 31.4665 18.6473 31.4299 17.7914C31.3997 17.0844 31.3608 16.9234 31.1929 16.8129C30.8991 16.6194 30.5487 16.6511 30.3647 16.8879ZM30.2035 21.8749C29.803 22.0039 29.7895 22.1218 29.7895 25.512C29.7895 28.6807 29.7974 28.8122 29.9965 28.9916C30.1104 29.0942 30.2628 29.1781 30.3353 29.1781C30.4077 29.1781 31.3277 28.7331 32.3795 28.1891C33.4313 27.6453 34.8645 26.9047 35.5641 26.5436C36.2639 26.1824 36.8811 25.8117 36.9355 25.7199C37.1545 25.3515 36.8917 25.1428 34.9496 24.143C33.9048 23.6052 32.4688 22.8601 31.7586 22.4876C31.0484 22.115 30.4429 21.8135 30.4131 21.8175C30.3832 21.8215 30.2889 21.8474 30.2035 21.8749Z" fill="#000093"/>
</svg>
