<svg width="24" height="24" viewBox="0 0 24 24" fill="none" xmlns="http://www.w3.org/2000/svg">
<rect width="24" height="24" rx="12" fill="#E7EBF8"/>
<g clip-path="url(#clip0_365_156178)">
<path d="M10.2637 18.2096C10.2637 18.3693 10.3943 18.5 10.554 18.5H14.8457C15.0054 18.5 15.1361 18.3693 15.1361 18.2096V17.5447H10.2637V18.2096Z" fill="#3535F3"/>
<path d="M10.1673 10.1881L10.1688 8.06399C10.1688 7.81863 10.2617 7.58923 10.4316 7.41791C10.6203 7.22917 10.8904 7.12173 11.1749 7.12173C11.3971 7.12173 11.6105 7.18997 11.776 7.31193C11.9764 7.46002 12.1012 7.6836 12.1273 7.93913C12.1273 7.94494 12.242 9.05271 12.3451 10.0443C13.0667 9.62039 13.5531 8.83639 13.5531 7.93913C13.5531 6.5918 12.4613 5.5 11.1139 5.5C9.76661 5.5 8.67481 6.5918 8.67481 7.93913C8.67336 8.94963 9.28895 9.81785 10.1673 10.1881Z" fill="#3535F3"/>
<path d="M15.8974 12.9598C15.8974 12.6767 15.7159 12.4255 15.4459 12.3384C14.6401 12.0756 13.014 11.5514 12.7657 11.5021C12.6888 11.4876 12.6133 11.4803 12.5407 11.4803C12.3447 11.4803 12.1734 11.534 12.0703 11.6255H12.0688C12.0688 11.6255 12.0688 11.6255 12.0688 11.624C12.0674 11.6124 11.6928 7.99002 11.6928 7.98421C11.6623 7.69384 11.4213 7.55591 11.173 7.55591C10.8914 7.55591 10.601 7.73304 10.6024 8.06261L10.5995 13.9325C10.5995 14.0022 10.5487 14.0603 10.479 14.0704C10.4776 14.0704 10.4776 14.0704 10.4761 14.0704C10.4703 14.0719 10.4631 14.0719 10.4573 14.0719C10.4558 14.0719 10.4543 14.0719 10.4529 14.0719C10.2554 14.0661 9.80972 14.0603 9.37561 13.4316C9.31754 13.3488 9.26527 13.2734 9.21736 13.2037C9.06637 12.9873 8.86456 12.8944 8.67436 12.8944C8.34043 12.8944 8.0399 13.1833 8.11249 13.6146C8.21702 14.2432 8.90521 15.7081 10.2613 17.0816H15.1337L15.6259 16.2497C15.8016 15.9549 15.8945 15.6181 15.8945 15.274L15.8974 12.9598Z" fill="#3535F3"/>
</g>
<defs>
<clipPath id="clip0_365_156178">
<rect width="13" height="13" fill="white" transform="translate(5.5 5.5)"/>
</clipPath>
</defs>
</svg>
