<svg width="48" height="48" viewBox="0 0 48 48" fill="none" xmlns="http://www.w3.org/2000/svg">
<rect width="48" height="48" rx="24" fill="#E7EBF8"/>
<g clip-path="url(#clip0_271_152808)">
<path d="M20.5293 36.4188C20.5293 36.7382 20.7906 36.9995 21.11 36.9995H29.6934C30.0128 36.9995 30.2742 36.7382 30.2742 36.4188V35.0889H20.5293V36.4188Z" fill="#000093"/>
<path d="M20.3346 20.3761L20.3376 16.128C20.3376 15.6373 20.5234 15.1785 20.8632 14.8358C21.2406 14.4583 21.7807 14.2435 22.3499 14.2435C22.7941 14.2435 23.221 14.3799 23.552 14.6239C23.9527 14.92 24.2024 15.3672 24.2547 15.8783C24.2547 15.8899 24.4841 18.1054 24.6902 20.0887C26.1334 19.2408 27.1061 17.6728 27.1061 15.8783C27.1061 13.1836 24.9225 11 22.2279 11C19.5332 11 17.3496 13.1836 17.3496 15.8783C17.3467 17.8993 18.5779 19.6357 20.3346 20.3761Z" fill="#000093"/>
<path d="M31.7958 25.919C31.7958 25.3528 31.4328 24.8504 30.8927 24.6762C29.2812 24.1506 26.029 23.1024 25.5324 23.0037C25.3785 22.9746 25.2275 22.9601 25.0823 22.9601C24.6903 22.9601 24.3477 23.0675 24.1416 23.2505H24.1386C24.1386 23.2505 24.1386 23.2505 24.1386 23.2476C24.1357 23.2243 23.3866 15.9795 23.3866 15.9679C23.3256 15.3872 22.8436 15.1113 22.347 15.1113C21.7837 15.1113 21.203 15.4656 21.2059 16.1247L21.2 27.8645C21.2 28.0039 21.0984 28.12 20.959 28.1404C20.9561 28.1404 20.9561 28.1404 20.9532 28.1404C20.9416 28.1433 20.9271 28.1433 20.9155 28.1433C20.9126 28.1433 20.9097 28.1433 20.9068 28.1433C20.5119 28.1317 19.6204 28.12 18.7522 26.8628C18.6361 26.6972 18.5315 26.5462 18.4357 26.4068C18.1337 25.9742 17.7301 25.7884 17.3497 25.7884C16.6818 25.7884 16.0808 26.3662 16.226 27.2286C16.435 28.4859 17.8114 31.4158 20.5235 34.1627H30.2684L31.2527 32.4989C31.6041 31.9094 31.7899 31.2358 31.7899 30.5476L31.7958 25.919Z" fill="#000093"/>
</g>
<defs>
<clipPath id="clip0_271_152808">
<rect width="26" height="26" fill="white" transform="translate(11 11)"/>
</clipPath>
</defs>
</svg>
