<svg width="48" height="48" viewBox="0 0 48 48" fill="none" xmlns="http://www.w3.org/2000/svg">
<rect width="48" height="48" rx="24" fill="#E7EBF8"/>
<path d="M31.1314 11H16.9096C16.0403 11 15.333 11.6208 15.333 12.3838V35.6162C15.333 36.3792 16.0403 37 16.9096 37H31.1314C32.0007 37 32.708 36.3792 32.708 35.6162V12.3838C32.708 11.6208 32.0007 11 31.1314 11ZM30.4333 32.0051H17.6077V16.0052H30.4333V32.0051Z" fill="#000093"/>
<path d="M22.0144 26.8889C21.4667 26.8889 20.9989 26.6993 20.6108 26.3202C20.2225 25.941 20.0283 25.4776 20.0283 24.9299C20.0283 24.4605 20.1698 24.0422 20.4526 23.675C20.7355 23.3079 21.1056 23.0732 21.563 22.9709C21.7135 22.4172 22.0144 21.9688 22.4658 21.6257C22.9172 21.2827 23.4288 21.1111 24.0005 21.1111C24.7047 21.1111 25.302 21.3563 25.7924 21.8467C26.283 22.3374 26.5283 22.9348 26.5283 23.6389C26.9436 23.6871 27.2882 23.8661 27.5622 24.1759C27.8359 24.486 27.9728 24.8486 27.9728 25.2639C27.9728 25.7153 27.8148 26.0991 27.499 26.4151C27.1829 26.731 26.7992 26.8889 26.3478 26.8889H22.0144Z" fill="#000093"/>
</svg>
