<svg width="24" height="24" viewBox="0 0 24 24" fill="none" xmlns="http://www.w3.org/2000/svg">
<rect width="24" height="24" rx="12" fill="#E7EBF8"/>
<g clip-path="url(#clip0_365_156168)">
<path d="M14.1751 15.575C14.3501 15.575 14.4751 15.7 14.5251 15.85L14.7251 17.2C14.7751 17.575 15.0751 17.85 15.4501 17.9L17.0751 18.075C17.5751 18.125 18.0001 17.75 18.0001 17.25V15.7C18.0001 15.45 17.9001 15.25 17.7251 15.075C16.1251 13.625 14.0001 12.875 11.9751 12.875C9.9501 12.875 7.8251 13.625 6.2251 15.075C6.0751 15.225 6.0001 15.475 6.0001 15.7V17.25C5.9501 17.75 6.3751 18.15 6.8751 18.075L8.5001 17.9C8.8751 17.85 9.1751 17.575 9.2251 17.2L9.4251 15.85C9.4501 15.675 9.6001 15.575 9.7751 15.575C9.7751 15.575 11.8751 15.4 14.1751 15.575Z" fill="#3535F3"/>
<path d="M15.4246 8.65002C15.5496 8.52502 15.7746 8.62502 15.7746 8.80002V10.475C15.7746 10.65 15.8996 10.775 16.0746 10.775H16.6996C16.8746 10.775 16.9996 10.65 16.9996 10.475L17.0246 6.45002C17.0246 6.27502 16.8996 6.15002 16.7246 6.15002H12.7246C12.5496 6.15002 12.4246 6.27502 12.4246 6.45002V7.07502C12.4246 7.25002 12.5496 7.37502 12.7246 7.37502H14.3996C14.5746 7.37502 14.6746 7.60002 14.5496 7.72502L12.1996 10.075C12.1246 10.15 11.9746 10.15 11.8746 10.075L8.02461 6.25002C7.89961 6.12502 7.69961 6.12502 7.57461 6.25002L7.09961 6.70002C6.97461 6.82502 6.97461 7.02502 7.09961 7.17502L11.7996 11.9C11.9246 12.05 12.1246 12.05 12.2746 11.9L15.4246 8.65002Z" fill="#3535F3"/>
</g>
<defs>
<clipPath id="clip0_365_156168">
<rect width="13" height="13" fill="white" transform="translate(5.5 5.5)"/>
</clipPath>
</defs>
</svg>
