<svg width="48" height="48" viewBox="0 0 48 48" fill="none" xmlns="http://www.w3.org/2000/svg">
<rect width="48" height="48" rx="24" fill="#E7EBF8"/>
<path d="M28.3502 31.15C28.7002 31.15 28.9502 31.4 29.0502 31.7L29.4502 34.4C29.5502 35.15 30.1502 35.7 30.9002 35.8L34.1502 36.15C35.1502 36.25 36.0002 35.5 36.0002 34.5V31.4C36.0002 30.9 35.8002 30.5 35.4502 30.15C32.2502 27.25 28.0002 25.75 23.9502 25.75C19.9002 25.75 15.6502 27.25 12.4502 30.15C12.1502 30.45 12.0002 30.95 12.0002 31.4V34.5C11.9002 35.5 12.7502 36.3 13.7502 36.15L17.0002 35.8C17.7502 35.7 18.3502 35.15 18.4502 34.4L18.8502 31.7C18.9002 31.35 19.2002 31.15 19.5502 31.15C19.5502 31.15 23.7502 30.8 28.3502 31.15Z" fill="#000093"/>
<path d="M30.8502 17.3C31.1002 17.05 31.5502 17.25 31.5502 17.6V20.95C31.5502 21.3 31.8002 21.55 32.1502 21.55H33.4002C33.7502 21.55 34.0002 21.3 34.0002 20.95L34.0502 12.9C34.0502 12.55 33.8002 12.3 33.4502 12.3H25.4502C25.1002 12.3 24.8502 12.55 24.8502 12.9V14.15C24.8502 14.5 25.1002 14.75 25.4502 14.75H28.8002C29.1502 14.75 29.3502 15.2 29.1002 15.45L24.4002 20.15C24.2502 20.3 23.9502 20.3 23.7502 20.15L16.0502 12.5C15.8002 12.25 15.4002 12.25 15.1502 12.5L14.2002 13.4C13.9502 13.65 13.9502 14.05 14.2002 14.35L23.6002 23.8C23.8502 24.1 24.2502 24.1 24.5502 23.8L30.8502 17.3Z" fill="#000093"/>
</svg>
