<svg width="48" height="48" viewBox="0 0 48 48" fill="none" xmlns="http://www.w3.org/2000/svg">
<rect width="48" height="48" rx="24" fill="#E7EBF8"/>
<g clip-path="url(#clip0_207_67165)">
<path d="M24.0003 16.4167C25.4964 16.4167 26.7086 15.2044 26.7086 13.7084C26.7086 12.2122 25.4964 11 24.0003 11C22.5042 11 21.292 12.2122 21.292 13.7083C21.292 15.2044 22.5042 16.4167 24.0003 16.4167Z" fill="#000093"/>
<path d="M31.042 22.9167H16.9587C15.7637 22.9167 14.792 23.8884 14.792 25.0834C14.792 26.2783 15.7637 27.2501 16.9587 27.2501H17.015L18.0452 36.518C18.0756 36.7932 18.3074 37.0001 18.5837 37.0001H29.417C29.6932 37.0001 29.9251 36.7931 29.9554 36.518L30.9857 27.25H31.042C32.2369 27.25 33.2087 26.2783 33.2087 25.0833C33.2087 23.8884 32.2369 22.9167 31.042 22.9167Z" fill="#000093"/>
<path d="M20.3443 21.8333H27.6568C27.8128 21.8333 27.9601 21.7661 28.063 21.6502C28.166 21.5332 28.2136 21.3783 28.1941 21.2245L28.0251 19.8725C27.8561 18.5194 26.7013 17.5 25.3384 17.5H22.6637C21.3009 17.5 20.1449 18.5194 19.977 19.8725L19.808 21.2245C19.7885 21.3783 19.8362 21.5332 19.9391 21.6502C20.041 21.7662 20.1883 21.8333 20.3443 21.8333Z" fill="#000093"/>
</g>
<defs>
<clipPath id="clip0_207_67165">
<rect width="26" height="26" fill="white" transform="translate(11 11)"/>
</clipPath>
</defs>
</svg>
