<svg width="48" height="48" viewBox="0 0 48 48" fill="none" xmlns="http://www.w3.org/2000/svg">
<rect width="48" height="48" rx="24" fill="#E7EBF8"/>
<path d="M35.3264 29.1493C35.1364 30.6271 34.4149 31.9852 33.2967 32.9699C32.1784 33.9546 30.74 34.4985 29.25 34.5C20.5654 34.5 13.5 27.4346 13.5 18.75C13.5015 17.26 14.0454 15.8216 15.0301 14.7033C16.0147 13.5851 17.3728 12.8636 18.8506 12.6736C19.2267 12.6281 19.6074 12.7056 19.9357 12.8945C20.2641 13.0835 20.5224 13.3737 20.672 13.7217L22.8695 18.849C22.9835 19.1142 23.03 19.4036 23.0048 19.6911C22.9796 19.9787 22.8835 20.2556 22.7251 20.4969L20.9057 23.277L20.9055 23.2772C21.7271 24.9476 23.082 26.2966 24.756 27.1108L27.4951 25.2849C27.7371 25.123 28.0158 25.0242 28.3058 24.9975C28.5958 24.9709 28.8878 25.0173 29.1553 25.1324L34.2782 27.3279C34.6261 27.4776 34.9163 27.7359 35.1053 28.0642C35.2942 28.3925 35.3718 28.7732 35.3264 29.1493Z" fill="#000093"/>
</svg>
