<svg width="24" height="24" viewBox="0 0 24 24" fill="none" xmlns="http://www.w3.org/2000/svg">
<rect width="24" height="24" rx="12" fill="#E7EBF8"/>
<path d="M16.6667 5.99996H16V4.66663H14.6667V5.99996H9.33333V4.66663H8V5.99996H7.33333C6.97971 5.99996 6.64057 6.14043 6.39052 6.39048C6.14048 6.64053 6 6.97967 6 7.33329V16.6666C6 17.0202 6.14048 17.3594 6.39052 17.6094C6.64057 17.8595 6.97971 18 7.33333 18H16.6667C17.4 18 18 17.4 18 16.6666V7.33329C18 6.59996 17.4 5.99996 16.6667 5.99996ZM12 7.99996C13.1067 7.99996 14 8.89329 14 9.99996C14 11.1066 13.1067 12 12 12C10.8933 12 10 11.1066 10 9.99996C10 8.89329 10.8933 7.99996 12 7.99996ZM16 16H8V15.3333C8 14 10.6667 13.2666 12 13.2666C13.3333 13.2666 16 14 16 15.3333V16Z" fill="#3535F3"/>
</svg>
