<svg width="14" height="14" viewBox="0 0 14 14" fill="none" xmlns="http://www.w3.org/2000/svg">
<path fill-rule="evenodd" clip-rule="evenodd" d="M7.70816 0.562233C7.39154 0.664032 7.17092 0.849117 7.00108 1.15535L6.84142 1.44322L6.84194 2.96302C6.84241 4.46283 6.84406 4.48591 6.9649 4.71973C7.4658 5.68908 8.93306 5.6729 9.4249 4.69263C9.52385 4.49552 9.53027 4.39087 9.53084 2.96722C9.53146 1.47442 9.52965 1.44811 9.41005 1.21672C9.26551 0.936973 8.89342 0.626772 8.61096 0.550528C8.34563 0.4789 7.95144 0.483983 7.70816 0.562233ZM2.49079 3.01698C1.8291 3.11029 1.09573 3.69656 0.628101 4.5061C0.258441 5.14609 0.69543 6.7649 1.85347 9.04552C2.50714 10.3329 4.4917 12.5637 5.53268 13.1813C5.99058 13.453 6.30895 13.5283 6.84334 13.4912C7.70319 13.4314 8.40095 13.1627 8.74732 12.758C8.89373 12.5869 8.91464 12.5319 8.88684 12.3903C8.80663 11.9814 8.09857 10.9035 7.65257 10.5113C7.06432 9.99417 6.42488 10.0374 5.8184 10.6354C5.67365 10.7781 5.51224 10.8948 5.45971 10.8948C5.27977 10.8948 4.70766 10.5452 4.39519 10.2443C3.83503 9.7049 3.04665 8.48625 2.78044 7.74824C2.63331 7.34039 2.56671 6.79926 2.63704 6.58275C2.67751 6.45824 2.71441 6.43847 3.00577 6.38531C3.61943 6.27339 3.9286 6.09352 4.10336 5.74676C4.28377 5.38876 4.21794 5.05833 3.81257 4.28707C3.51748 3.72575 3.31441 3.4336 3.05974 3.20412C2.83711 3.0035 2.76186 2.97874 2.49079 3.01698ZM5.77747 3.40641C5.6913 3.46311 5.67453 3.54216 5.65947 3.96246C5.62878 4.8198 5.77804 5.34722 6.19686 5.86134C6.52388 6.26271 7.13077 6.60112 7.73413 6.71854L7.87645 6.74624V7.3749V8.00355H7.28933C6.78626 8.00355 6.68995 8.01577 6.61656 8.08885C6.50421 8.20072 6.50789 8.34337 6.62557 8.43934C6.70801 8.50658 6.87796 8.51651 7.94523 8.51651H9.17024V8.26003V8.00355H8.83385H8.49747V7.37714C8.49747 6.81988 8.50746 6.74839 8.58803 6.72927C8.63787 6.71747 8.78919 6.68184 8.92442 6.65013L9.17024 6.59245V6.2954C9.17024 6.13204 9.15745 5.99835 9.14177 5.99835C9.12614 5.99835 9.04836 6.02861 8.96897 6.06564C8.70054 6.19071 8.17552 6.24564 7.84193 6.18353C7.13299 6.05156 6.631 5.66255 6.38218 5.05226C6.29058 4.82763 6.27216 4.67892 6.27216 4.16498C6.27216 3.68163 6.25467 3.52504 6.19158 3.44395C6.09962 3.32559 5.92439 3.30969 5.77747 3.40641ZM10.1823 3.44395C10.1198 3.52439 10.1018 3.67879 10.1018 4.13495C10.1018 4.53264 10.0756 4.80185 10.0206 4.96856C9.976 5.10398 9.94687 5.21837 9.95592 5.2228C9.98775 5.23823 10.3356 5.35374 10.4214 5.37734C10.4866 5.39529 10.5222 5.35677 10.5649 5.22177C10.6688 4.89329 10.7332 4.32367 10.715 3.89568C10.6999 3.5422 10.6804 3.46171 10.5965 3.40646C10.4495 3.30969 10.2744 3.32555 10.1823 3.44395ZM10.1018 5.93745C9.90148 6.00194 9.89475 6.06088 9.89475 7.75598C9.89475 9.34037 9.89869 9.40608 9.99826 9.4958C10.0552 9.5471 10.1314 9.58907 10.1676 9.58907C10.2039 9.58907 10.6638 9.36654 11.1897 9.09457C11.7156 8.82266 12.4322 8.45235 12.7821 8.27179C13.132 8.09118 13.4406 7.90586 13.4678 7.85997C13.5772 7.67573 13.4458 7.57141 12.4748 7.07151C11.9524 6.80258 11.2344 6.43007 10.8793 6.24378C10.5242 6.05752 10.2215 5.90676 10.2066 5.90877C10.1916 5.91077 10.1445 5.92369 10.1018 5.93745Z" fill="#3535F3"/>
</svg>
