<svg width="24" height="24" viewBox="0 0 24 24" fill="none" xmlns="http://www.w3.org/2000/svg">
<rect width="24" height="24" rx="12" fill="#E7EBF8"/>
<g clip-path="url(#clip0_365_156212)">
<path d="M15.5662 5.5H8.4553C8.02065 5.5 7.66699 5.8104 7.66699 6.19192V17.8081C7.66699 18.1896 8.02062 18.5 8.4553 18.5H15.5662C16.0008 18.5 16.3545 18.1896 16.3545 17.8081V6.19192C16.3545 5.8104 16.0008 5.5 15.5662 5.5ZM15.2171 16.0025H8.80436V8.0026H15.2171V16.0025Z" fill="#3535F3"/>
<path d="M11.0067 13.4444C10.7329 13.4444 10.4989 13.3496 10.3049 13.1601C10.1108 12.9705 10.0137 12.7388 10.0137 12.4649C10.0137 12.2302 10.0844 12.0211 10.2258 11.8375C10.3673 11.6539 10.5523 11.5366 10.781 11.4854C10.8563 11.2086 11.0067 10.9844 11.2324 10.8128C11.4581 10.6413 11.7139 10.5555 11.9998 10.5555C12.3519 10.5555 12.6505 10.6781 12.8957 10.9233C13.141 11.1686 13.2637 11.4673 13.2637 11.8194C13.4713 11.8435 13.6436 11.933 13.7806 12.0879C13.9175 12.243 13.9859 12.4243 13.9859 12.6319C13.9859 12.8576 13.9069 13.0495 13.749 13.2075C13.591 13.3655 13.3991 13.4444 13.1734 13.4444H11.0067Z" fill="#3535F3"/>
</g>
<defs>
<clipPath id="clip0_365_156212">
<rect width="13" height="13" fill="white" transform="translate(5.5 5.5)"/>
</clipPath>
</defs>
</svg>
