<svg width="24" height="24" viewBox="0 0 24 24" fill="none" xmlns="http://www.w3.org/2000/svg">
<rect width="24" height="24" rx="12" fill="#E7EBF8"/>
<g clip-path="url(#clip0_365_156190)">
<path d="M12.0006 8.20834C12.7487 8.20834 13.3548 7.60222 13.3548 6.85418C13.3548 6.10612 12.7487 5.5 12.0006 5.5C11.2526 5.5 10.6465 6.10612 10.6465 6.85416C10.6465 7.60222 11.2526 8.20834 12.0006 8.20834Z" fill="#3535F3"/>
<path d="M15.5215 11.4584H8.47983C7.88236 11.4584 7.39648 11.9442 7.39648 12.5417C7.39648 13.1392 7.88236 13.6251 8.47983 13.6251H8.50798L9.02311 18.259C9.03827 18.3966 9.1542 18.5001 9.29233 18.5001H14.709C14.8471 18.5001 14.963 18.3966 14.9782 18.259L15.4933 13.625H15.5215C16.119 13.625 16.6048 13.1392 16.6048 12.5417C16.6048 11.9442 16.119 11.4584 15.5215 11.4584Z" fill="#3535F3"/>
<path d="M10.1726 10.9167H13.8289C13.9069 10.9167 13.9805 10.8831 14.032 10.8251C14.0835 10.7666 14.1073 10.6892 14.0975 10.6122L14.013 9.93625C13.9285 9.25972 13.3511 8.75 12.6697 8.75H11.3323C10.6509 8.75 10.073 9.25972 9.98898 9.93625L9.90448 10.6122C9.89473 10.6892 9.91858 10.7666 9.97002 10.8251C10.021 10.8831 10.0946 10.9167 10.1726 10.9167Z" fill="#3535F3"/>
</g>
<defs>
<clipPath id="clip0_365_156190">
<rect width="13" height="13" fill="white" transform="translate(5.5 5.5)"/>
</clipPath>
</defs>
</svg>
