<svg width="24" height="24" viewBox="0 0 24 24" fill="none" xmlns="http://www.w3.org/2000/svg">
<rect width="24" height="24" rx="12" fill="#E7EBF8"/>
<path d="M17.6632 14.5748C17.5682 15.3137 17.2075 15.9927 16.6483 16.4851C16.0892 16.9774 15.37 17.2494 14.625 17.2501C10.2827 17.2501 6.75 13.7174 6.75 9.37512C6.75076 8.63014 7.0227 7.91091 7.51503 7.3518C8.00736 6.79268 8.68641 6.43193 9.42531 6.33692C9.61335 6.31416 9.8037 6.35291 9.96787 6.44739C10.132 6.54186 10.2612 6.68697 10.336 6.86099L11.4348 9.42463C11.4917 9.55724 11.515 9.70191 11.5024 9.84569C11.4898 9.98948 11.4417 10.1279 11.3625 10.2486L10.4528 11.6386L10.4527 11.6387C10.8635 12.4739 11.541 13.1484 12.378 13.5555L13.7475 12.6426C13.8686 12.5616 14.0079 12.5122 14.1529 12.4989C14.2979 12.4856 14.4439 12.5088 14.5776 12.5663L17.1391 13.6641C17.3131 13.7389 17.4582 13.8681 17.5526 14.0322C17.6471 14.1964 17.6859 14.3867 17.6632 14.5748Z" fill="#3535F3"/>
</svg>
