<svg width="16" height="16" viewBox="0 0 16 16" fill="none" xmlns="http://www.w3.org/2000/svg">
<path d="M7.99968 1.33301C6.68114 1.33301 5.3922 1.724 4.29588 2.45654C3.19955 3.18909 2.34506 4.23028 1.84048 5.44845C1.3359 6.66663 1.20387 8.00707 1.46111 9.30028C1.71834 10.5935 2.35328 11.7814 3.28563 12.7137C4.21798 13.6461 5.40587 14.281 6.69908 14.5382C7.99228 14.7955 9.33273 14.6635 10.5509 14.1589C11.7691 13.6543 12.8103 12.7998 13.5428 11.7035C14.2754 10.6071 14.6663 9.31822 14.6663 7.99967C14.6663 7.1242 14.4939 6.25729 14.1589 5.44845C13.8238 4.63961 13.3328 3.90469 12.7137 3.28563C12.0947 2.66657 11.3597 2.17551 10.5509 1.84048C9.74206 1.50545 8.87516 1.33301 7.99968 1.33301ZM7.99968 3.66634C8.19746 3.66634 8.3908 3.72499 8.55525 3.83487C8.7197 3.94475 8.84787 4.10093 8.92356 4.28366C8.99925 4.46638 9.01905 4.66745 8.98046 4.86143C8.94188 5.05541 8.84664 5.2336 8.70678 5.37345C8.56693 5.5133 8.38875 5.60854 8.19477 5.64713C8.00079 5.68571 7.79972 5.66591 7.61699 5.59022C7.43427 5.51453 7.27809 5.38636 7.16821 5.22191C7.05833 5.05746 6.99968 4.86412 6.99968 4.66634C6.99968 4.40112 7.10503 4.14677 7.29257 3.95923C7.48011 3.7717 7.73446 3.66634 7.99968 3.66634ZM9.33301 11.6663H6.66634C6.48953 11.6663 6.31996 11.5961 6.19494 11.4711C6.06992 11.3461 5.99968 11.1765 5.99968 10.9997C5.99968 10.8229 6.06992 10.6533 6.19494 10.5283C6.31996 10.4032 6.48953 10.333 6.66634 10.333H7.33301V8.33301H6.66634C6.48953 8.33301 6.31996 8.26277 6.19494 8.13775C6.06992 8.01272 5.99968 7.84315 5.99968 7.66634C5.99968 7.48953 6.06992 7.31996 6.19494 7.19494C6.31996 7.06991 6.48953 6.99967 6.66634 6.99967H7.99968C8.17649 6.99967 8.34606 7.06991 8.47108 7.19494C8.59611 7.31996 8.66634 7.48953 8.66634 7.66634V10.333H9.33301C9.50982 10.333 9.67939 10.4032 9.80442 10.5283C9.92944 10.6533 9.99968 10.8229 9.99968 10.9997C9.99968 11.1765 9.92944 11.3461 9.80442 11.4711C9.67939 11.5961 9.50982 11.6663 9.33301 11.6663Z" fill="#B5B5B5"/>
</svg>
