<svg width="36" height="36" viewBox="0 0 36 36" fill="none" xmlns="http://www.w3.org/2000/svg">
<path d="M36 18C36 27.9401 27.9439 36 18 36C8.0561 36 0 27.9401 0 18C0 8.05987 8.05987 0 18 0C27.9401 0 36 8.05987 36 18Z" fill="#000093"/>
<path fill-rule="evenodd" clip-rule="evenodd" d="M8.14385 24.3914C9.27225 25.4939 10.6327 26.0451 12.2252 26.0451H24.8252C26.1377 26.0451 27.2535 25.5859 28.1726 24.6675C29.091 23.7484 29.5502 22.6326 29.5502 21.3201C29.5502 20.1126 29.1522 19.0581 28.3563 18.1565C27.5597 17.2556 26.5577 16.7351 25.3502 16.5951C25.3502 14.5476 24.6369 12.8106 23.2103 11.384C21.7844 9.95807 20.0477 9.24512 18.0002 9.24512C16.3377 9.24512 14.8502 9.74387 13.5377 10.7414C12.2252 11.7389 11.3502 13.0426 10.9127 14.6526C9.5827 14.9501 8.50645 15.6326 7.68395 16.7001C6.86145 17.7676 6.4502 18.9839 6.4502 20.3489C6.4502 21.9414 7.01475 23.2889 8.14385 24.3914ZM23.3274 23.3543C22.2542 23.529 19.704 23.5581 16.7243 20.8083C13.7377 18.0741 13.5554 15.5225 13.6487 14.446C13.6767 14.1146 13.818 13.803 14.0488 13.5636L14.782 12.767C14.9182 12.6188 15.0822 12.499 15.2648 12.4143C15.4473 12.3296 15.6447 12.2818 15.8458 12.2734C16.0468 12.2651 16.2475 12.2965 16.4364 12.3658C16.6253 12.4351 16.7987 12.5409 16.9467 12.6772L17.5123 13.1978C17.8091 13.4726 17.9851 13.8537 18.0018 14.2579C18.0186 14.662 17.8747 15.0564 17.6017 15.3548L17.0811 15.9204C17.0124 15.9945 16.959 16.0815 16.924 16.1763C16.889 16.2711 16.8732 16.3719 16.8774 16.4729C16.8815 16.5739 16.9057 16.673 16.9484 16.7646C16.9911 16.8562 17.0515 16.9384 17.1261 17.0066L20.4878 20.1007C20.5619 20.1694 20.6488 20.2228 20.7436 20.2578C20.8384 20.2927 20.9393 20.3086 21.0402 20.3044C21.1412 20.3002 21.2404 20.2761 21.332 20.2334C21.4236 20.1907 21.5058 20.1303 21.5739 20.0557L22.0945 19.4901C22.3693 19.1933 22.7504 19.0173 23.1546 19.0005C23.5587 18.9838 23.9531 19.1276 24.2515 19.4007L24.8171 19.9212C24.9652 20.0574 25.0851 20.2215 25.1697 20.404C25.2544 20.5865 25.3023 20.7839 25.3106 20.985C25.319 21.186 25.2876 21.3867 25.2183 21.5756C25.149 21.7645 25.0432 21.9379 24.9068 22.0859L24.1736 22.8825C23.9541 23.1324 23.6553 23.299 23.3274 23.3543Z" fill="white"/>
</svg>
