<svg width="32" height="32" viewBox="0 0 32 32" fill="none" xmlns="http://www.w3.org/2000/svg">
<path d="M32 16C32 24.8357 24.839 32 16 32C7.16098 32 0 24.8357 0 16C0 7.16433 7.16433 0 16 0C24.8357 0 32 7.16433 32 16Z" fill="#2B005C"/>
<path fill-rule="evenodd" clip-rule="evenodd" d="M7.78637 20.6609C8.72671 21.5797 9.86042 22.0391 11.1875 22.0391H21.6875C22.7812 22.0391 23.7111 21.6564 24.477 20.8911C25.2423 20.1251 25.625 19.1953 25.625 18.1016C25.625 17.0953 25.2934 16.2165 24.6301 15.4652C23.9663 14.7144 23.1313 14.2807 22.125 14.1641C22.125 12.4578 21.5306 11.0103 20.3418 9.82144C19.1535 8.63319 17.7063 8.03906 16 8.03906C14.6146 8.03906 13.375 8.45469 12.2812 9.28594C11.1875 10.1172 10.4583 11.2036 10.0938 12.5453C8.98542 12.7932 8.08854 13.362 7.40312 14.2516C6.71771 15.1411 6.375 16.1547 6.375 17.2922C6.375 18.6193 6.84546 19.7422 7.78637 20.6609ZM20.4395 19.7984C19.5452 19.944 17.42 19.9682 14.937 17.6767C12.4481 15.3982 12.2961 13.2719 12.3739 12.3748C12.3972 12.0986 12.515 11.8389 12.7074 11.6394L13.3183 10.9756C13.4318 10.8522 13.5685 10.7523 13.7206 10.6817C13.8727 10.6112 14.0373 10.5713 14.2048 10.5643C14.3723 10.5574 14.5396 10.5835 14.697 10.6413C14.8544 10.699 14.9989 10.7872 15.1222 10.9008L15.5936 11.3346C15.8409 11.5637 15.9876 11.8812 16.0015 12.218C16.0155 12.5548 15.8956 12.8835 15.6681 13.1322L15.2342 13.6035C15.177 13.6652 15.1325 13.7377 15.1033 13.8167C15.0742 13.8957 15.061 13.9797 15.0645 14.0639C15.0679 14.148 15.0881 14.2306 15.1236 14.307C15.1592 14.3833 15.2096 14.4518 15.2718 14.5086L18.0731 17.087C18.1349 17.1443 18.2073 17.1888 18.2864 17.2179C18.3654 17.2471 18.4494 17.2603 18.5335 17.2568C18.6177 17.2533 18.7003 17.2332 18.7766 17.1976C18.853 17.162 18.9215 17.1117 18.9783 17.0495L19.4121 16.5782C19.6411 16.3308 19.9587 16.1842 20.2955 16.1702C20.6323 16.1563 20.9609 16.2761 21.2096 16.5037L21.6809 16.9375C21.8044 17.051 21.9042 17.1877 21.9748 17.3398C22.0453 17.4919 22.0852 17.6564 22.0922 17.8239C22.0991 17.9915 22.073 18.1587 22.0152 18.3161C21.9575 18.4736 21.8693 18.6181 21.7557 18.7414L21.1447 19.4052C20.9618 19.6134 20.7127 19.7523 20.4395 19.7984Z" fill="white"/>
</svg>
