<svg width="18" height="18" viewBox="0 0 18 18" fill="none" xmlns="http://www.w3.org/2000/svg">
<path d="M18 10V3C18 2.20435 17.6839 1.44129 17.1213 0.87868C16.5587 0.316071 15.7956 0 15 0H3C2.20435 0 1.44129 0.316071 0.87868 0.87868C0.316071 1.44129 0 2.20435 0 3V14.5C0 15.4283 0.368749 16.3185 1.02513 16.9749C1.6815 17.6313 2.57174 18 3.5 18H17C17.2652 18 17.5196 17.8946 17.7071 17.7071C17.8946 17.5196 18 17.2652 18 17C18 16.7348 17.8946 16.4804 17.7071 16.2929C17.5196 16.1054 17.2652 16 17 16H16V12.82C16.5835 12.6137 17.089 12.2319 17.4471 11.7271C17.8051 11.2222 17.9983 10.6189 18 10ZM14 16H3.5C3.10218 16 2.72064 15.842 2.43934 15.5607C2.15804 15.2794 2 14.8978 2 14.5C2 14.1022 2.15804 13.7206 2.43934 13.4393C2.72064 13.158 3.10218 13 3.5 13H14V16Z" fill="black" fill-opacity="0.65"/>
</svg>
