<svg width="48" height="48" viewBox="0 0 48 48" fill="none" xmlns="http://www.w3.org/2000/svg">
<rect width="48" height="48" rx="24" fill="#3535F3"/>
<path d="M15.61 18.92C15.734 18.9704 15.8662 18.9975 16 19H32C32.1338 18.9975 32.266 18.9704 32.39 18.92C32.6287 18.8187 32.8187 18.6287 32.92 18.39C32.9723 18.2666 32.9992 18.134 32.9992 18C32.9992 17.866 32.9723 17.7334 32.92 17.61C32.869 17.495 32.7979 17.3901 32.71 17.3V17.3C32.62 17.2122 32.515 17.1411 32.4 17.09C32.2736 17.035 32.1378 17.0044 32 17H16C15.8662 17.0025 15.734 17.0296 15.61 17.08C15.495 17.1311 15.3901 17.2022 15.3 17.29V17.29C15.2122 17.3801 15.1411 17.485 15.09 17.6C15.0378 17.7234 15.0108 17.856 15.0108 17.99C15.0108 18.124 15.0378 18.2566 15.09 18.38C15.1868 18.6206 15.3732 18.8142 15.61 18.92V18.92ZM22.39 29.08C22.266 29.0296 22.1338 29.0025 22 29H16C15.8662 29.0025 15.734 29.0296 15.61 29.08C15.3713 29.1813 15.1813 29.3713 15.08 29.61C15.0278 29.7334 15.0008 29.866 15.0008 30C15.0008 30.134 15.0278 30.2666 15.08 30.39C15.1813 30.6287 15.3713 30.8187 15.61 30.92C15.734 30.9704 15.8662 30.9975 16 31H22C22.1338 30.9975 22.266 30.9704 22.39 30.92C22.6287 30.8187 22.8187 30.6287 22.92 30.39C22.9723 30.2666 22.9992 30.134 22.9992 30C22.9992 29.866 22.9723 29.7334 22.92 29.61C22.8187 29.3713 22.6287 29.1813 22.39 29.08ZM22.71 23.29C22.6166 23.1973 22.5058 23.124 22.3839 23.0742C22.2621 23.0245 22.1316 22.9992 22 23H16C15.7348 23 15.4804 23.1054 15.2929 23.2929C15.1054 23.4804 15 23.7348 15 24V24C14.9905 24.0864 14.9905 24.1736 15 24.26C14.9955 24.2999 14.9955 24.3401 15 24.38C15.0798 24.5758 15.2195 24.7412 15.3992 24.8526C15.5788 24.964 15.7892 25.0156 16 25H22C22.1974 24.999 22.3902 24.9396 22.5539 24.8293C22.7176 24.7189 22.845 24.5626 22.92 24.38C22.9246 24.3401 22.9246 24.2999 22.92 24.26C22.9565 24.1767 22.9834 24.0894 23 24V24C23.0008 23.8684 22.9755 23.7379 22.9258 23.6161C22.876 23.4943 22.8027 23.3834 22.71 23.29ZM31.29 24.79L27.5 28.59L25.71 26.79C25.6168 26.6968 25.5061 26.6228 25.3843 26.5723C25.2624 26.5219 25.1319 26.4959 25 26.4959C24.8682 26.4959 24.7376 26.5219 24.6158 26.5723C24.4939 26.6228 24.3832 26.6968 24.29 26.79C24.1968 26.8832 24.1228 26.9939 24.0724 27.1158C24.0219 27.2376 23.9959 27.3681 23.9959 27.5C23.9959 27.6319 24.0219 27.7624 24.0724 27.8842C24.1228 28.0061 24.1968 28.1168 24.29 28.21L26.79 30.71C26.883 30.8037 26.9936 30.8781 27.1154 30.9289C27.2373 30.9797 27.368 31.0058 27.5 31.0058C27.632 31.0058 27.7627 30.9797 27.8846 30.9289C28.0064 30.8781 28.117 30.8037 28.21 30.71L32.71 26.21C32.8032 26.1168 32.8772 26.0061 32.9277 25.8842C32.9781 25.7624 33.0041 25.6319 33.0041 25.5C33.0041 25.3681 32.9781 25.2376 32.9277 25.1158C32.8772 24.9939 32.8032 24.8832 32.71 24.79C32.6168 24.6968 32.5061 24.6228 32.3843 24.5723C32.2624 24.5219 32.1319 24.4959 32 24.4959C31.8682 24.4959 31.7376 24.5219 31.6158 24.5723C31.4939 24.6228 31.3833 24.6968 31.29 24.79V24.79Z" fill="#E8E8FC"/>
</svg>
