<svg id="Selector-Buttonlistview" xmlns="http://www.w3.org/2000/svg" width="48" height="48" viewBox="0 0 48 48">
  <rect id="Rectangle_1" data-name="Rectangle 1" width="48" height="48" rx="24" fill="#fff"/>
  <path id="Path_1" data-name="Path 1" d="M15.61,18.92A1.09,1.09,0,0,0,16,19H32a1.09,1.09,0,0,0,.39-.08,1,1,0,0,0,.53-1.31.991.991,0,0,0-.52-.52A1.09,1.09,0,0,0,32,17H16a1.09,1.09,0,0,0-.39.08.991.991,0,0,0-.52.52,1.023,1.023,0,0,0,.52,1.32Zm6.78,10.16A1.09,1.09,0,0,0,22,29H16a1.09,1.09,0,0,0-.39.08,1,1,0,0,0,0,1.84A1.09,1.09,0,0,0,16,31h6a1.09,1.09,0,0,0,.39-.08,1,1,0,0,0,0-1.84Zm.32-5.79A1,1,0,0,0,22,23H16a1,1,0,0,0-1,1,1.19,1.19,0,0,0,0,.26.535.535,0,0,0,0,.12A1,1,0,0,0,16,25h6a1,1,0,0,0,.92-.62.523.523,0,0,0,0-.12A1.189,1.189,0,0,0,23,24a1,1,0,0,0-.29-.71Zm8.58,1.5-3.79,3.8-1.79-1.8a1,1,0,0,0-1.42,1.42l2.5,2.5a1,1,0,0,0,1.42,0l4.5-4.5a1,1,0,1,0-1.42-1.42Z" fill="#656565"/>
</svg>
