<svg width="19" height="19" viewBox="0 0 19 19" fill="none" xmlns="http://www.w3.org/2000/svg">
<path d="M8.06 8.81982L7.44 9.43982C7.15954 9.72147 7.00144 10.1023 7 10.4998V11.9998H8.5C8.89747 11.9984 9.27835 11.8403 9.56 11.5598L10.18 10.9398L17.56 3.55982C17.7074 3.42249 17.8256 3.25689 17.9076 3.0729C17.9895 2.8889 18.0336 2.69027 18.0372 2.48886C18.0407 2.28746 18.0037 2.0874 17.9282 1.90062C17.8528 1.71385 17.7405 1.54418 17.5981 1.40174C17.4556 1.2593 17.286 1.14702 17.0992 1.07157C16.9124 0.996131 16.7124 0.959082 16.511 0.962636C16.3095 0.966189 16.1109 1.01027 15.9269 1.09226C15.7429 1.17424 15.5773 1.29245 15.44 1.43982L8.06 8.81982ZM8.5 13.9998H5V10.4998C4.99283 10.0377 5.07753 9.57866 5.2492 9.1495C5.42086 8.72033 5.67607 8.32954 6 7.99982L13 0.999819H3C2.20435 0.999819 1.44129 1.31589 0.87868 1.8785C0.316071 2.44111 0 3.20417 0 3.99982V15.9998C0 16.7955 0.316071 17.5585 0.87868 18.1211C1.44129 18.6837 2.20435 18.9998 3 18.9998H15C15.7956 18.9998 16.5587 18.6837 17.1213 18.1211C17.6839 17.5585 18 16.7955 18 15.9998V5.99982L11 12.9998C10.6703 13.3238 10.2795 13.579 9.85032 13.7506C9.42116 13.9223 8.96217 14.007 8.5 13.9998Z" fill="black" fill-opacity="0.65"/>
</svg>
