<svg width="33" height="32" viewBox="0 0 33 32" fill="none" xmlns="http://www.w3.org/2000/svg">
<path d="M14.167 10.667C13.9018 10.667 13.6474 10.7723 13.4599 10.9599C13.2723 11.1474 13.167 11.4018 13.167 11.667V20.3337C13.167 20.5989 13.2723 20.8532 13.4599 21.0408C13.6474 21.2283 13.9018 21.3337 14.167 21.3337C14.4322 21.3337 14.6866 21.2283 14.8741 21.0408C15.0616 20.8532 15.167 20.5989 15.167 20.3337V11.667C15.167 11.4018 15.0616 11.1474 14.8741 10.9599C14.6866 10.7723 14.4322 10.667 14.167 10.667ZM18.8337 10.667C18.5684 10.667 18.3141 10.7723 18.1266 10.9599C17.939 11.1474 17.8337 11.4018 17.8337 11.667V20.3337C17.8337 20.5989 17.939 20.8532 18.1266 21.0408C18.3141 21.2283 18.5684 21.3337 18.8337 21.3337C19.0989 21.3337 19.3532 21.2283 19.5408 21.0408C19.7283 20.8532 19.8337 20.5989 19.8337 20.3337V11.667C19.8337 11.4018 19.7283 11.1474 19.5408 10.9599C19.3532 10.7723 19.0989 10.667 18.8337 10.667Z" fill="#3E0084"/>
<rect x="1" y="0.5" width="31" height="31" rx="15.5" stroke="#E0E0E0"/>
</svg>
