<svg width="19" height="20" viewBox="0 0 19 20" fill="none" xmlns="http://www.w3.org/2000/svg">
<path d="M17.9298 11.4L16.4998 10.58V9.42L17.9298 8.6C18.3883 8.33445 18.7227 7.89783 18.8595 7.386C18.9964 6.87416 18.9246 6.32893 18.6598 5.87L17.6598 4.13C17.3943 3.67154 16.9577 3.33717 16.4458 3.20031C15.934 3.06344 15.3888 3.13526 14.9298 3.4L13.7498 4.08L13.4998 4.23L12.4998 3.65V2C12.4998 1.46957 12.2891 0.960859 11.9141 0.585786C11.539 0.210714 11.0303 0 10.4998 0H8.49985C7.96941 0 7.46071 0.210714 7.08563 0.585786C6.71056 0.960859 6.49985 1.46957 6.49985 2V3.65L6.24985 3.79L5.49985 4.23L5.24985 4.08L4.06985 3.4C3.61091 3.13526 3.06568 3.06344 2.55385 3.20031C2.04201 3.33717 1.6054 3.67154 1.33985 4.13L0.339846 5.87C0.0751085 6.32893 0.00328931 6.87416 0.140154 7.386C0.277018 7.89783 0.611381 8.33445 1.06985 8.6L2.49985 9.42V10.58L1.06985 11.4C0.611381 11.6656 0.277018 12.1022 0.140154 12.614C0.00328931 13.1258 0.0751085 13.6711 0.339846 14.13L1.33985 15.87C1.6054 16.3285 2.04201 16.6628 2.55385 16.7997C3.06568 16.9366 3.61091 16.8647 4.06985 16.6L5.49985 15.77L6.49985 16.35V18C6.49985 18.5304 6.71056 19.0391 7.08563 19.4142C7.46071 19.7893 7.96941 20 8.49985 20H10.4998C11.0303 20 11.539 19.7893 11.9141 19.4142C12.2891 19.0391 12.4998 18.5304 12.4998 18V16.35L13.4998 15.77L14.9298 16.6C15.3888 16.8647 15.934 16.9366 16.4458 16.7997C16.9577 16.6628 17.3943 16.3285 17.6598 15.87L18.6598 14.13C18.9246 13.6711 18.9964 13.1258 18.8595 12.614C18.7227 12.1022 18.3883 11.6656 17.9298 11.4ZM9.49985 13C8.9065 13 8.32648 12.8241 7.83314 12.4944C7.33979 12.1648 6.95527 11.6962 6.72821 11.1481C6.50114 10.5999 6.44173 9.99667 6.55749 9.41473C6.67325 8.83279 6.95897 8.29824 7.37853 7.87868C7.79808 7.45912 8.33263 7.1734 8.91457 7.05764C9.49652 6.94189 10.0997 7.0013 10.6479 7.22836C11.1961 7.45542 11.6646 7.83994 11.9943 8.33329C12.3239 8.82664 12.4998 9.40666 12.4998 10C12.4998 10.7956 12.1838 11.5587 11.6212 12.1213C11.0586 12.6839 10.2955 13 9.49985 13Z" fill="black" fill-opacity="0.65"/>
</svg>
