<svg width="18" height="18" viewBox="0 0 18 18" fill="none" xmlns="http://www.w3.org/2000/svg">
<path d="M0 4V15C0 15.7956 0.316071 16.5587 0.87868 17.1213C1.44129 17.6839 2.20435 18 3 18H4.17L7 5.65L0 4ZM15 0H3C2.38106 0.00173951 1.7778 0.194879 1.27293 0.552938C0.76807 0.910998 0.386313 1.41645 0.18 2L18 6.13V3C18 2.20435 17.6839 1.44129 17.1213 0.87868C16.5587 0.316071 15.7956 0 15 0ZM6.22 18H15C15.7956 18 16.5587 17.6839 17.1213 17.1213C17.6839 16.5587 18 15.7956 18 15V8.18L9 6.1L6.22 18ZM11.3 9.94C11.5573 9.47454 11.9889 9.13035 12.4999 8.98313C12.753 8.91024 13.0179 8.8879 13.2796 8.91739C13.5412 8.94688 13.7945 9.02762 14.025 9.155C14.2555 9.28238 14.4586 9.45391 14.6228 9.65979C14.787 9.86568 14.909 10.1019 14.9819 10.3549C15.0548 10.608 15.0771 10.8729 15.0476 11.1346C15.0181 11.3962 14.9374 11.6495 14.81 11.88L13.45 14.72C13.4091 14.8045 13.3451 14.8758 13.2655 14.9257C13.186 14.9756 13.0939 15.0021 13 15.0021C12.9061 15.0021 12.814 14.9756 12.7345 14.9257C12.6549 14.8758 12.5909 14.8045 12.55 14.72L11.19 11.88C11.0419 11.5739 10.9743 11.2352 10.9936 10.8957C11.0128 10.5563 11.1183 10.2274 11.3 9.94Z" fill="black" fill-opacity="0.65"/>
</svg>
