<svg width="33" height="32" viewBox="0 0 33 32" fill="none" xmlns="http://www.w3.org/2000/svg">
<rect x="0.666992" y="0.5" width="31" height="31" rx="15.5" fill="#E5F7EE"/>
<path d="M14.1668 20.667C14.0791 20.6675 13.9921 20.6506 13.9109 20.6175C13.8296 20.5843 13.7558 20.5354 13.6935 20.4736L10.3601 17.1403C10.2346 17.0148 10.1641 16.8445 10.1641 16.667C10.1641 16.4894 10.2346 16.3192 10.3601 16.1936C10.4857 16.0681 10.6559 15.9976 10.8335 15.9976C11.011 15.9976 11.1813 16.0681 11.3068 16.1936L14.1668 19.0603L21.0268 12.1936C21.1523 12.0681 21.3226 11.9976 21.5001 11.9976C21.6777 11.9976 21.8479 12.0681 21.9735 12.1936C22.099 12.3192 22.1695 12.4894 22.1695 12.667C22.1695 12.8445 22.099 13.0148 21.9735 13.1403L14.6401 20.4736C14.5778 20.5354 14.504 20.5843 14.4227 20.6175C14.3415 20.6506 14.2545 20.6675 14.1668 20.667Z" fill="#03753C"/>
<rect x="0.666992" y="0.5" width="31" height="31" rx="15.5" stroke="#1ECCB0"/>
</svg>
