<svg width="49" height="48" viewBox="0 0 49 48" fill="none" xmlns="http://www.w3.org/2000/svg">
<rect x="0.5" width="48" height="48" rx="24" fill="#E5F7EE"/>
<circle cx="24.5001" cy="23.9998" r="13.3333" fill="white"/>
<path d="M24.5001 10.6665C21.863 10.6665 19.2851 11.4485 17.0925 12.9136C14.8998 14.3787 13.1909 16.461 12.1817 18.8974C11.1725 21.3337 10.9085 24.0146 11.423 26.601C11.9374 29.1875 13.2073 31.5632 15.072 33.4279C16.9367 35.2926 19.3125 36.5625 21.8989 37.077C24.4853 37.5914 27.1662 37.3274 29.6025 36.3182C32.0389 35.3091 34.1213 33.6001 35.5863 31.4074C37.0514 29.2148 37.8334 26.6369 37.8334 23.9998C37.8334 22.2489 37.4885 20.5151 36.8185 18.8974C36.1484 17.2797 35.1663 15.8099 33.9282 14.5717C32.6901 13.3336 31.2202 12.3515 29.6025 11.6814C27.9849 11.0114 26.251 10.6665 24.5001 10.6665ZM31.4468 20.9465L23.4468 28.9465C23.3228 29.0715 23.1753 29.1707 23.0129 29.2384C22.8504 29.3061 22.6761 29.3409 22.5001 29.3409C22.3241 29.3409 22.1498 29.3061 21.9873 29.2384C21.8248 29.1707 21.6774 29.0715 21.5534 28.9465L17.5534 24.9465C17.4291 24.8222 17.3305 24.6746 17.2632 24.5122C17.1959 24.3497 17.1613 24.1756 17.1613 23.9998C17.1613 23.6448 17.3023 23.3042 17.5534 23.0532C17.8045 22.8021 18.145 22.661 18.5001 22.661C18.8552 22.661 19.1957 22.8021 19.4468 23.0532L22.5001 26.1198L29.5534 19.0532C29.8045 18.8021 30.145 18.661 30.5001 18.661C30.8552 18.661 31.1957 18.8021 31.4468 19.0532C31.6978 19.3042 31.8389 19.6448 31.8389 19.9998C31.8389 20.3549 31.6978 20.6954 31.4468 20.9465Z" fill="#10D974"/>
</svg>
