<svg width="20" height="20" viewBox="0 0 20 20" fill="none" xmlns="http://www.w3.org/2000/svg">
<path d="M10.0003 1.66699C8.35215 1.66699 6.74099 2.15573 5.37058 3.07141C4.00017 3.98709 2.93206 5.28858 2.30133 6.8113C1.6706 8.33401 1.50558 10.0096 1.82712 11.6261C2.14866 13.2426 2.94234 14.7274 4.10777 15.8929C5.27321 17.0583 6.75807 17.852 8.37458 18.1735C9.99109 18.4951 11.6666 18.3301 13.1894 17.6993C14.7121 17.0686 16.0136 16.0005 16.9292 14.6301C17.8449 13.2597 18.3337 11.6485 18.3337 10.0003C18.3337 8.90598 18.1181 7.82234 17.6993 6.8113C17.2805 5.80025 16.6667 4.88159 15.8929 4.10777C15.1191 3.33395 14.2004 2.72012 13.1894 2.30133C12.1783 1.88254 11.0947 1.66699 10.0003 1.66699V1.66699ZM10.8337 10.8337C10.8337 11.0547 10.7459 11.2666 10.5896 11.4229C10.4333 11.5792 10.2213 11.667 10.0003 11.667H7.50033C7.27932 11.667 7.06735 11.5792 6.91107 11.4229C6.75479 11.2666 6.667 11.0547 6.667 10.8337C6.667 10.6126 6.75479 10.4007 6.91107 10.2444C7.06735 10.0881 7.27932 10.0003 7.50033 10.0003H9.167V7.50033C9.167 7.27931 9.25479 7.06735 9.41107 6.91107C9.56735 6.75479 9.77932 6.66699 10.0003 6.66699C10.2213 6.66699 10.4333 6.75479 10.5896 6.91107C10.7459 7.06735 10.8337 7.27931 10.8337 7.50033V10.8337Z" fill="#373737"/>
</svg>