<svg width="56" height="56" viewBox="0 0 56 56" fill="none" xmlns="http://www.w3.org/2000/svg">
<rect x="4" y="4" width="48" height="48" rx="24" fill="#F0E8FA"/>
<path d="M24.9467 20.9469L26.6667 19.2136V33.3336C26.6667 33.6872 26.8071 34.0263 27.0572 34.2764C27.3072 34.5264 27.6464 34.6669 28 34.6669C28.3536 34.6669 28.6928 34.5264 28.9428 34.2764C29.1929 34.0263 29.3333 33.6872 29.3333 33.3336V19.2136L31.0533 20.9469C31.1773 21.0719 31.3248 21.1711 31.4872 21.2388C31.6497 21.3065 31.824 21.3413 32 21.3413C32.176 21.3413 32.3503 21.3065 32.5128 21.2388C32.6752 21.1711 32.8227 21.0719 32.9467 20.9469C33.0716 20.823 33.1708 20.6755 33.2385 20.513C33.3062 20.3505 33.3411 20.1763 33.3411 20.0002C33.3411 19.8242 33.3062 19.65 33.2385 19.4875C33.1708 19.325 33.0716 19.1775 32.9467 19.0536L28.9467 15.0536C28.8227 14.9286 28.6752 14.8294 28.5128 14.7617C28.3503 14.694 28.176 14.6592 28 14.6592C27.824 14.6592 27.6497 14.694 27.4872 14.7617C27.3248 14.8294 27.1773 14.9286 27.0533 15.0536L23.0533 19.0536C22.8023 19.3046 22.6612 19.6452 22.6612 20.0002C22.6612 20.3553 22.8023 20.6958 23.0533 20.9469C23.3044 21.198 23.6449 21.339 24 21.339C24.3551 21.339 24.6956 21.198 24.9467 20.9469ZM38.6667 28.0002C38.313 28.0002 37.9739 28.1407 37.7239 28.3908C37.4738 28.6408 37.3333 28.98 37.3333 29.3336V37.3336C37.3333 37.6872 37.1929 38.0263 36.9428 38.2764C36.6928 38.5264 36.3536 38.6669 36 38.6669H20C19.6464 38.6669 19.3072 38.5264 19.0572 38.2764C18.8071 38.0263 18.6667 37.6872 18.6667 37.3336V29.3336C18.6667 28.98 18.5262 28.6408 18.2761 28.3908C18.0261 28.1407 17.687 28.0002 17.3333 28.0002C16.9797 28.0002 16.6406 28.1407 16.3905 28.3908C16.1405 28.6408 16 28.98 16 29.3336V37.3336C16 38.3944 16.4214 39.4119 17.1716 40.162C17.9217 40.9122 18.9391 41.3336 20 41.3336H36C37.0609 41.3336 38.0783 40.9122 38.8284 40.162C39.5786 39.4119 40 38.3944 40 37.3336V29.3336C40 28.98 39.8595 28.6408 39.6095 28.3908C39.3594 28.1407 39.0203 28.0002 38.6667 28.0002Z" fill="#2B005C"/>
</svg>
