<svg width="32" height="40" viewBox="0 0 32 40" fill="none" xmlns="http://www.w3.org/2000/svg">
<path d="M16 20C11.7565 20 7.68687 21.6857 4.68629 24.6863C1.68571 27.6869 0 31.7565 0 36C0 37.0609 0.421427 38.0783 1.17157 38.8284C1.92172 39.5786 2.93913 40 4 40H28C29.0609 40 30.0783 39.5786 30.8284 38.8284C31.5786 38.0783 32 37.0609 32 36C32 31.7565 30.3143 27.6869 27.3137 24.6863C24.3131 21.6857 20.2435 20 16 20ZM16 18C18.0321 18.0856 20.0527 17.6534 21.8719 16.7438C23.6911 15.8342 25.2492 14.4771 26.4 12.8L27 11.74L26.18 10.82C25.3833 9.82447 24.7734 8.69287 24.38 7.48C23.58 4.9 22.1 0.1 16 0C10 0 8.44 4.9 7.66 7.48C7.26425 8.69399 6.63967 9.82095 5.82 10.8L5 11.74L5.62 12.8C6.76893 14.4741 8.32389 15.8294 10.1393 16.7388C11.9547 17.6483 13.9712 18.0822 16 18Z" fill="#3535F3"/>
</svg>
