<svg width="48" height="48" viewBox="0 0 48 48" fill="none" xmlns="http://www.w3.org/2000/svg">
<rect width="48" height="48" rx="24" fill="#A7F6E9"/>
<path d="M25.3333 15.9998V10.6665H18C17.1159 10.6665 16.2681 11.0177 15.643 11.6428C15.0179 12.2679 14.6667 13.1158 14.6667 13.9998V33.9998C14.6667 34.8839 15.0179 35.7317 15.643 36.3569C16.2681 36.982 17.1159 37.3332 18 37.3332H31.3333C32.2174 37.3332 33.0652 36.982 33.6904 36.3569C34.3155 35.7317 34.6667 34.8839 34.6667 33.9998V19.9998H29.3333C28.2725 19.9998 27.255 19.5784 26.5049 18.8283C25.7548 18.0781 25.3333 17.0607 25.3333 15.9998ZM29.3333 17.3332H34.6667C34.6637 16.6271 34.3808 15.951 33.88 15.4532L29.88 11.4532C29.3822 10.9524 28.7061 10.6695 28 10.6665V15.9998C28 16.3535 28.1405 16.6926 28.3905 16.9426C28.6406 17.1927 28.9797 17.3332 29.3333 17.3332Z" fill="#0E5C4F"/>
</svg>
