<svg width="16" height="16" viewBox="0 0 16 16" fill="none" xmlns="http://www.w3.org/2000/svg">
<path d="M3.99992 4C3.82311 4 3.65354 4.07024 3.52851 4.19526C3.40349 4.32029 3.33325 4.48986 3.33325 4.66667V11.3333C3.33325 11.5101 3.40349 11.6797 3.52851 11.8047C3.65354 11.9298 3.82311 12 3.99992 12C4.17673 12 4.3463 11.9298 4.47132 11.8047C4.59635 11.6797 4.66659 11.5101 4.66659 11.3333V4.66667C4.66659 4.48986 4.59635 4.32029 4.47132 4.19526C4.3463 4.07024 4.17673 4 3.99992 4ZM5.99992 6C5.82311 6 5.65354 6.07024 5.52851 6.19526C5.40349 6.32029 5.33325 6.48986 5.33325 6.66667V9.33333C5.33325 9.51014 5.40349 9.67971 5.52851 9.80474C5.65354 9.92976 5.82311 10 5.99992 10C6.17673 10 6.3463 9.92976 6.47132 9.80474C6.59635 9.67971 6.66659 9.51014 6.66659 9.33333V6.66667C6.66659 6.48986 6.59635 6.32029 6.47132 6.19526C6.3463 6.07024 6.17673 6 5.99992 6ZM1.99992 6C1.82311 6 1.65354 6.07024 1.52851 6.19526C1.40349 6.32029 1.33325 6.48986 1.33325 6.66667V9.33333C1.33325 9.51014 1.40349 9.67971 1.52851 9.80474C1.65354 9.92976 1.82311 10 1.99992 10C2.17673 10 2.3463 9.92976 2.47132 9.80474C2.59635 9.67971 2.66659 9.51014 2.66659 9.33333V6.66667C2.66659 6.48986 2.59635 6.32029 2.47132 6.19526C2.3463 6.07024 2.17673 6 1.99992 6ZM13.9999 6.66667C13.8231 6.66667 13.6535 6.7369 13.5285 6.86193C13.4035 6.98695 13.3333 7.15652 13.3333 7.33333V8.66667C13.3333 8.84348 13.4035 9.01305 13.5285 9.13807C13.6535 9.2631 13.8231 9.33333 13.9999 9.33333C14.1767 9.33333 14.3463 9.2631 14.4713 9.13807C14.5963 9.01305 14.6666 8.84348 14.6666 8.66667V7.33333C14.6666 7.15652 14.5963 6.98695 14.4713 6.86193C14.3463 6.7369 14.1767 6.66667 13.9999 6.66667ZM7.99992 2C7.82311 2 7.65354 2.07024 7.52851 2.19526C7.40349 2.32029 7.33325 2.48986 7.33325 2.66667V13.3333C7.33325 13.5101 7.40349 13.6797 7.52851 13.8047C7.65354 13.9298 7.82311 14 7.99992 14C8.17673 14 8.3463 13.9298 8.47132 13.8047C8.59635 13.6797 8.66659 13.5101 8.66659 13.3333V2.66667C8.66659 2.48986 8.59635 2.32029 8.47132 2.19526C8.3463 2.07024 8.17673 2 7.99992 2ZM11.9999 4C11.8231 4 11.6535 4.07024 11.5285 4.19526C11.4035 4.32029 11.3333 4.48986 11.3333 4.66667V11.3333C11.3333 11.5101 11.4035 11.6797 11.5285 11.8047C11.6535 11.9298 11.8231 12 11.9999 12C12.1767 12 12.3463 11.9298 12.4713 11.8047C12.5963 11.6797 12.6666 11.5101 12.6666 11.3333V4.66667C12.6666 4.48986 12.5963 4.32029 12.4713 4.19526C12.3463 4.07024 12.1767 4 11.9999 4ZM9.99992 5.33333C9.82311 5.33333 9.65354 5.40357 9.52851 5.5286C9.40349 5.65362 9.33325 5.82319 9.33325 6V10C9.33325 10.1768 9.40349 10.3464 9.52851 10.4714C9.65354 10.5964 9.82311 10.6667 9.99992 10.6667C10.1767 10.6667 10.3463 10.5964 10.4713 10.4714C10.5963 10.3464 10.6666 10.1768 10.6666 10V6C10.6666 5.82319 10.5963 5.65362 10.4713 5.5286C10.3463 5.40357 10.1767 5.33333 9.99992 5.33333Z" fill="black" fill-opacity="0.65"/>
</svg>
