<svg width="16" height="16" viewBox="0 0 16 16" fill="none" xmlns="http://www.w3.org/2000/svg">
<path d="M5.51345 10.4865C8.00679 12.9865 10.2268 13.0532 11.1668 12.9399C11.4541 12.9035 11.7201 12.7693 11.9201 12.5599L12.5868 11.8932C12.7108 11.7694 12.8091 11.6223 12.8762 11.4604C12.9433 11.2986 12.9778 11.1251 12.9778 10.9499C12.9778 10.7746 12.9433 10.6011 12.8762 10.4393C12.8091 10.2774 12.7108 10.1304 12.5868 10.0065L12.1135 9.53319C11.8636 9.28486 11.5257 9.14547 11.1735 9.14547C10.8212 9.14547 10.4833 9.28486 10.2335 9.53319L9.76012 10.0065C9.69814 10.069 9.62441 10.1186 9.54317 10.1525C9.46193 10.1863 9.37479 10.2037 9.28679 10.2037C9.19878 10.2037 9.11164 10.1863 9.0304 10.1525C8.94916 10.1186 8.87543 10.069 8.81345 10.0065L6.00012 7.19319C5.93763 7.13122 5.88804 7.05748 5.85419 6.97624C5.82035 6.895 5.80292 6.80787 5.80292 6.71986C5.80292 6.63185 5.82035 6.54471 5.85419 6.46347C5.88804 6.38223 5.93763 6.3085 6.00012 6.24652L6.47345 5.77319C6.72179 5.52337 6.86118 5.18544 6.86118 4.83319C6.86118 4.48094 6.72179 4.14301 6.47345 3.89319L6.00012 3.41986C5.87629 3.29589 5.72924 3.19754 5.56737 3.13044C5.40551 3.06335 5.23201 3.02881 5.05679 3.02881C4.88157 3.02881 4.70806 3.06335 4.5462 3.13044C4.38434 3.19754 4.23728 3.29589 4.11345 3.41986L3.44679 4.08652C3.23731 4.2865 3.10311 4.55254 3.06679 4.83986C2.94679 5.77319 3.01345 7.99986 5.51345 10.4865Z" fill="black" fill-opacity="0.65"/>
</svg>
