<svg width="16" height="16" viewBox="0 0 16 16" fill="none" xmlns="http://www.w3.org/2000/svg">
<mask id="mask0_550_99249" style="mask-type:alpha" maskUnits="userSpaceOnUse" x="0" y="0" width="16" height="16">
<rect width="16" height="16" fill="#D9D9D9"/>
</mask>
<g mask="url(#mask0_550_99249)">
<path d="M13.6 8.88697C13.3733 8.88697 13.1835 8.81017 13.0304 8.65656C12.8768 8.50349 12.8 8.31361 12.8 8.08693C12.8 7.86026 12.8768 7.67012 13.0304 7.51651C13.1835 7.36344 13.3733 7.2869 13.6 7.2869H15.2C15.4267 7.2869 15.6165 7.36344 15.7696 7.51651C15.9232 7.67012 16 7.86026 16 8.08693C16 8.31361 15.9232 8.50349 15.7696 8.65656C15.6165 8.81017 15.4267 8.88697 15.2 8.88697H13.6ZM13.12 14.0072L11.84 13.0472C11.6533 12.9138 11.5467 12.7405 11.52 12.5271C11.4933 12.3138 11.5467 12.1138 11.68 11.9271C11.8133 11.7404 11.9867 11.6338 12.2 11.6071C12.4133 11.5804 12.6133 11.6338 12.8 11.7671L14.08 12.7271C14.2667 12.8605 14.3733 13.0338 14.4 13.2472C14.4267 13.4605 14.3733 13.6605 14.24 13.8472C14.1067 14.0339 13.9333 14.1405 13.72 14.1672C13.5067 14.1939 13.3067 14.1405 13.12 14.0072ZM12.8 4.40677C12.6133 4.54011 12.4133 4.59345 12.2 4.56678C11.9867 4.54011 11.8133 4.43344 11.68 4.24677C11.5467 4.06009 11.4933 3.86008 11.52 3.64674C11.5467 3.4334 11.6533 3.26006 11.84 3.12672L13.12 2.16667C13.3067 2.03333 13.5067 1.98 13.72 2.00667C13.9333 2.03333 14.1067 2.14001 14.24 2.32668C14.3733 2.51336 14.4267 2.71336 14.4 2.92671C14.3733 3.14005 14.2667 3.31339 14.08 3.44673L12.8 4.40677ZM3.2 13.6872C2.75817 13.6872 2.4 13.329 2.4 12.8872V10.487H1.6C1.16 10.487 0.783467 10.3302 0.4704 10.0166C0.1568 9.70354 0 9.32699 0 8.88697V7.2869C0 6.84688 0.1568 6.47006 0.4704 6.15645C0.783467 5.84337 1.16 5.68683 1.6 5.68683H4.8L7.58 4.00676C7.84667 3.84675 8.1168 3.84675 8.3904 4.00676C8.66347 4.16676 8.8 4.40011 8.8 4.70679V11.4671C8.8 11.7738 8.66347 12.0071 8.3904 12.1671C8.1168 12.3271 7.84667 12.3271 7.58 12.1671L4.8 10.487H4V12.8872C4 13.329 3.64183 13.6872 3.2 13.6872ZM9.6 10.7671V5.40682C9.96 5.72683 10.2501 6.11698 10.4704 6.57727C10.6901 7.03702 10.8 7.54024 10.8 8.08693C10.8 8.63363 10.6901 9.13685 10.4704 9.5966C10.2501 10.0569 9.96 10.447 9.6 10.7671Z" fill="black" fill-opacity="0.65"/>
</g>
</svg>
