<svg width="16" height="16" viewBox="0 0 16 16" fill="none" xmlns="http://www.w3.org/2000/svg">
<path d="M6.32178 14.0053C6.32178 14.1598 6.44814 14.2861 6.60258 14.2861H10.7528C10.9072 14.2861 11.0336 14.1598 11.0336 14.0053V13.3623H6.32178V14.0053Z" fill="#595959"/>
<path d="M6.22774 6.24836L6.22916 4.19431C6.22916 3.95703 6.319 3.7352 6.48328 3.56953C6.6658 3.38701 6.92694 3.28311 7.20213 3.28311C7.41694 3.28311 7.62333 3.3491 7.78337 3.46704C7.97714 3.61025 8.09787 3.82646 8.12314 4.07357C8.12314 4.07918 8.23405 5.15043 8.33374 6.10937C9.03153 5.6994 9.50187 4.94124 9.50187 4.07357C9.50187 2.77065 8.44606 1.71484 7.14315 1.71484C5.84023 1.71484 4.78443 2.77065 4.78443 4.07357C4.78302 5.05075 5.37832 5.89034 6.22774 6.24836Z" fill="black" fill-opacity="0.65"/>
<path d="M11.7693 8.92883C11.7693 8.65505 11.5938 8.41215 11.3327 8.32791C10.5534 8.07378 8.98095 7.56694 8.74086 7.5192C8.66644 7.50516 8.59344 7.49814 8.52324 7.49814C8.3337 7.49814 8.16802 7.55009 8.06835 7.63854H8.06694C8.06694 7.63854 8.06694 7.63854 8.06694 7.63714C8.06553 7.62589 7.70331 4.12292 7.70331 4.11731C7.67382 3.83651 7.44077 3.70312 7.20067 3.70312C6.92831 3.70312 6.64751 3.87441 6.6489 4.19312L6.64609 9.86951C6.64609 9.93689 6.59695 9.99305 6.52956 10.0029C6.52815 10.0029 6.52815 10.0029 6.52675 10.0029C6.52115 10.0043 6.51413 10.0043 6.5085 10.0043C6.50709 10.0043 6.50569 10.0043 6.50428 10.0043C6.31334 9.99868 5.88231 9.99305 5.46252 9.38513C5.40636 9.30509 5.35581 9.2321 5.30948 9.16469C5.16346 8.95549 4.96831 8.86565 4.78438 8.86565C4.46146 8.86565 4.17084 9.14502 4.24104 9.56204C4.34212 10.17 5.00762 11.5866 6.31896 12.9148H11.0308L11.5067 12.1103C11.6766 11.8253 11.7665 11.4996 11.7665 11.1668L11.7693 8.92883Z" fill="black" fill-opacity="0.65"/>
</svg>
