<svg width="16" height="16" viewBox="0 0 16 16" fill="none" xmlns="http://www.w3.org/2000/svg">
<path d="M8.00022 4.23582C8.74289 4.23582 9.34468 3.63403 9.34468 2.89136C9.34468 2.14866 8.74289 1.54688 8.00022 1.54688C7.25754 1.54688 6.65576 2.14866 6.65576 2.89133C6.65576 3.63403 7.25754 4.23582 8.00022 4.23582Z" fill="black" fill-opacity="0.65"/>
<path d="M11.4958 7.46338H4.50454C3.91135 7.46338 3.42896 7.94577 3.42896 8.53896C3.42896 9.13215 3.91135 9.61454 4.50454 9.61454H4.53249L5.04393 14.2153C5.05898 14.3519 5.17408 14.4546 5.31122 14.4546H10.6891C10.8262 14.4546 10.9413 14.3519 10.9564 14.2153L11.4678 9.61452H11.4958C12.0889 9.61452 12.5713 9.13212 12.5713 8.53894C12.5713 7.94577 12.0889 7.46338 11.4958 7.46338Z" fill="black" fill-opacity="0.65"/>
<path d="M6.1851 6.92458H9.81516C9.89261 6.92458 9.96574 6.89122 10.0168 6.8337C10.0679 6.77562 10.0916 6.69871 10.0819 6.62235L9.998 5.95119C9.91411 5.2795 9.34084 4.77344 8.66428 4.77344H7.33649C6.65996 4.77344 6.08613 5.2795 6.00277 5.95119L5.91887 6.62235C5.90919 6.69871 5.93286 6.77562 5.98394 6.8337C6.03453 6.89125 6.10766 6.92458 6.1851 6.92458Z" fill="black" fill-opacity="0.65"/>
</svg>
