<svg width="16" height="16" viewBox="0 0 16 16" fill="none" xmlns="http://www.w3.org/2000/svg">
<path d="M6.66663 7.3335C7.25998 7.3335 7.84 7.15755 8.33334 6.82791C8.82669 6.49826 9.21121 6.02973 9.43827 5.48155C9.66534 4.93337 9.72475 4.33017 9.60899 3.74823C9.49323 3.16628 9.20751 2.63173 8.78795 2.21218C8.3684 1.79262 7.83385 1.5069 7.25191 1.39114C6.66996 1.27539 6.06676 1.3348 5.51858 1.56186C4.97041 1.78892 4.50187 2.17344 4.17223 2.66679C3.84258 3.16013 3.66663 3.74015 3.66663 4.3335C3.6684 5.12861 3.98503 5.89065 4.54726 6.45287C5.10949 7.0151 5.87153 7.33174 6.66663 7.3335ZM12 8.00016C12.3955 8.00016 12.7822 7.88287 13.1111 7.6631C13.44 7.44334 13.6964 7.13098 13.8477 6.76553C13.9991 6.40008 14.0387 5.99795 13.9615 5.60998C13.8844 5.22202 13.6939 4.86566 13.4142 4.58595C13.1345 4.30625 12.7781 4.11576 12.3901 4.03859C12.0022 3.96142 11.6001 4.00103 11.2346 4.15241C10.8691 4.30378 10.5568 4.56013 10.337 4.88902C10.1173 5.21792 9.99997 5.6046 9.99997 6.00016C9.99997 6.5306 10.2107 7.03931 10.5858 7.41438C10.9608 7.78945 11.4695 8.00016 12 8.00016ZM12 8.66683C11.3449 8.66287 10.7113 8.90018 10.22 9.3335C9.45094 8.64642 8.49921 8.19702 7.48002 8.03974C6.46083 7.88245 5.4179 8.02402 4.47752 8.4473C3.53714 8.87057 2.73964 9.55741 2.18159 10.4246C1.62354 11.2918 1.32889 12.3023 1.3333 13.3335C1.3333 13.6871 1.47378 14.0263 1.72383 14.2763C1.97387 14.5264 2.31301 14.6668 2.66663 14.6668H10.6666C11.0203 14.6668 11.3594 14.5264 11.6094 14.2763C11.8595 14.0263 12 13.6871 12 13.3335C11.9979 13.1105 11.9823 12.8879 11.9533 12.6668H13.3333C13.6869 12.6668 14.0261 12.5264 14.2761 12.2763C14.5262 12.0263 14.6666 11.6871 14.6666 11.3335C14.6666 10.6263 14.3857 9.94798 13.8856 9.44788C13.3855 8.94778 12.7072 8.66683 12 8.66683Z" fill="black" fill-opacity="0.65"/>
</svg>
