<svg width="16" height="16" viewBox="0 0 16 16" fill="none" xmlns="http://www.w3.org/2000/svg">
<path d="M4.93341 5.26667C5.05758 5.14176 5.12728 4.97279 5.12728 4.79667C5.12728 4.62054 5.05758 4.45157 4.93341 4.32667L4.46675 3.85333C4.40459 3.79117 4.3308 3.74187 4.24958 3.70823C4.16837 3.67459 4.08132 3.65727 3.99341 3.65727C3.81588 3.65727 3.64562 3.7278 3.52008 3.85333C3.45792 3.91549 3.40861 3.98929 3.37497 4.0705C3.34133 4.15172 3.32402 4.23876 3.32402 4.32667C3.32402 4.5042 3.39455 4.67446 3.52008 4.8L4.00008 5.26667C4.12499 5.39083 4.29396 5.46053 4.47008 5.46053C4.6462 5.46053 4.81517 5.39083 4.94008 5.26667H4.93341ZM3.00008 7.66667H2.33341C2.1566 7.66667 1.98703 7.73691 1.86201 7.86193C1.73699 7.98695 1.66675 8.15652 1.66675 8.33333C1.66675 8.51014 1.73699 8.67971 1.86201 8.80474C1.98703 8.92976 2.1566 9 2.33341 9H3.00008C3.17689 9 3.34646 8.92976 3.47149 8.80474C3.59651 8.67971 3.66675 8.51014 3.66675 8.33333C3.66675 8.15652 3.59651 7.98695 3.47149 7.86193C3.34646 7.73691 3.17689 7.66667 3.00008 7.66667ZM8.00008 4C8.17689 4 8.34646 3.92976 8.47149 3.80474C8.59651 3.67971 8.66675 3.51014 8.66675 3.33333V2.66667C8.66675 2.48986 8.59651 2.32029 8.47149 2.19526C8.34646 2.07024 8.17689 2 8.00008 2C7.82327 2 7.6537 2.07024 7.52868 2.19526C7.40365 2.32029 7.33341 2.48986 7.33341 2.66667V3.33333C7.33341 3.51014 7.40365 3.67971 7.52868 3.80474C7.6537 3.92976 7.82327 4 8.00008 4ZM9.33341 12.6667H6.66675C6.48994 12.6667 6.32037 12.7369 6.19534 12.8619C6.07032 12.987 6.00008 13.1565 6.00008 13.3333C6.00008 13.5101 6.07032 13.6797 6.19534 13.8047C6.32037 13.9298 6.48994 14 6.66675 14H9.33341C9.51023 14 9.67979 13.9298 9.80482 13.8047C9.92984 13.6797 10.0001 13.5101 10.0001 13.3333C10.0001 13.1565 9.92984 12.987 9.80482 12.8619C9.67979 12.7369 9.51023 12.6667 9.33341 12.6667ZM13.6667 7.66667H13.0001C12.8233 7.66667 12.6537 7.73691 12.5287 7.86193C12.4037 7.98695 12.3334 8.15652 12.3334 8.33333C12.3334 8.51014 12.4037 8.67971 12.5287 8.80474C12.6537 8.92976 12.8233 9 13.0001 9H13.6667C13.8436 9 14.0131 8.92976 14.1382 8.80474C14.2632 8.67971 14.3334 8.51014 14.3334 8.33333C14.3334 8.15652 14.2632 7.98695 14.1382 7.86193C14.0131 7.73691 13.8436 7.66667 13.6667 7.66667ZM12.4801 3.85333C12.4181 3.79085 12.3444 3.74125 12.2631 3.70741C12.1819 3.67356 12.0948 3.65613 12.0067 3.65613C11.9187 3.65613 11.8316 3.67356 11.7504 3.70741C11.6691 3.74125 11.5954 3.79085 11.5334 3.85333L11.0667 4.32667C10.9426 4.45157 10.8729 4.62054 10.8729 4.79667C10.8729 4.97279 10.9426 5.14176 11.0667 5.26667C11.1914 5.38882 11.3589 5.45724 11.5334 5.45724C11.7079 5.45724 11.8755 5.38882 12.0001 5.26667L12.4734 4.8C12.5363 4.73847 12.5865 4.66508 12.6209 4.58408C12.6553 4.50308 12.6733 4.41606 12.674 4.32806C12.6746 4.24005 12.6578 4.15279 12.6245 4.07131C12.5912 3.98983 12.5421 3.91575 12.4801 3.85333ZM8.00008 4.66667C7.15053 4.66775 6.3244 4.94527 5.64649 5.4573C4.96857 5.96932 4.4757 6.68806 4.24231 7.50492C4.00892 8.32179 4.04769 9.19242 4.35277 9.9853C4.65785 10.7782 5.21267 11.4503 5.93341 11.9C6.03951 11.9658 6.16193 12.0004 6.28675 12H9.71341C9.83823 12.0004 9.96065 11.9658 10.0667 11.9C10.7875 11.4503 11.3423 10.7782 11.6474 9.9853C11.9525 9.19242 11.9912 8.32179 11.7579 7.50492C11.5245 6.68806 11.0316 5.96932 10.3537 5.4573C9.67576 4.94527 8.84963 4.66775 8.00008 4.66667Z" fill="#141414"/>
</svg>
