<svg width="32" height="32" viewBox="0 0 32 32" fill="none" xmlns="http://www.w3.org/2000/svg">
<rect width="32" height="32" rx="8" fill="#F9F9F9"/>
<path d="M25.4701 13.3102L17.8501 6.70017C17.3389 6.25018 16.6812 6.00195 16.0001 6.00195C15.3191 6.00195 14.6614 6.25018 14.1501 6.70017L6.53013 13.3102C6.2976 13.5094 6.1302 13.7738 6.04958 14.0692C5.96897 14.3646 5.97884 14.6774 6.07793 14.9671C6.17702 15.2569 6.36077 15.5102 6.6054 15.6944C6.85003 15.8785 7.1443 15.9851 7.45013 16.0002H8.00013V23.0002C8.00013 23.7958 8.3162 24.5589 8.87881 25.1215C9.44142 25.6841 10.2045 26.0002 11.0001 26.0002H14.0001V20.0002H18.0001V26.0002H21.0001C21.7958 26.0002 22.5588 25.6841 23.1214 25.1215C23.6841 24.5589 24.0001 23.7958 24.0001 23.0002V16.0002H24.5501C24.856 15.9851 25.1502 15.8785 25.3949 15.6944C25.6395 15.5102 25.8232 15.2569 25.9223 14.9671C26.0214 14.6774 26.0313 14.3646 25.9507 14.0692C25.8701 13.7738 25.7027 13.5094 25.4701 13.3102Z" fill="black" fill-opacity="0.65"/>
</svg>
