<svg width="16" height="16" viewBox="0 0 16 16" fill="none" xmlns="http://www.w3.org/2000/svg">
<path d="M10.0726 11.5121C10.2392 11.5121 10.3582 11.6218 10.4058 11.7534L10.5962 12.9382C10.6438 13.2672 10.9294 13.5086 11.2865 13.5525L12.8336 13.706C13.3096 13.7499 13.7142 13.4208 13.7142 12.982V11.6218C13.7142 11.4024 13.619 11.2269 13.4524 11.0733C11.9291 9.80077 9.90596 9.14258 7.97804 9.14258C6.05011 9.14258 4.02698 9.80077 2.50367 11.0733C2.36086 11.2049 2.28946 11.4243 2.28946 11.6218V12.982C2.24186 13.4208 2.64648 13.7719 3.12252 13.706L4.66962 13.5525C5.02664 13.5086 5.31226 13.2672 5.35986 12.9382L5.55028 11.7534C5.57408 11.5998 5.71689 11.5121 5.8835 11.5121C5.8835 11.5121 7.88283 11.3585 10.0726 11.5121Z" fill="black" fill-opacity="0.65"/>
<path d="M11.1112 4.72293C11.2253 4.60109 11.4306 4.69856 11.4306 4.86914V6.50179C11.4306 6.67236 11.5447 6.7942 11.7044 6.7942H12.2747C12.4344 6.7942 12.5485 6.67236 12.5485 6.50179L12.5713 2.57855C12.5713 2.40797 12.4573 2.28613 12.2976 2.28613H8.64725C8.48755 2.28613 8.37348 2.40797 8.37348 2.57855V3.18775C8.37348 3.35832 8.48755 3.48016 8.64725 3.48016H10.1758C10.3355 3.48016 10.4268 3.69947 10.3127 3.82131L8.16815 6.1119C8.09971 6.18501 7.96282 6.18501 7.87157 6.1119L4.35815 2.3836C4.24408 2.26176 4.06157 2.26176 3.94749 2.3836L3.51402 2.82223C3.39995 2.94407 3.39995 3.13901 3.51402 3.28522L7.80312 7.89076C7.91719 8.03697 8.09971 8.03697 8.2366 7.89076L11.1112 4.72293Z" fill="black" fill-opacity="0.65"/>
</svg>
