<svg width="16" height="16" viewBox="0 0 16 16" fill="none" xmlns="http://www.w3.org/2000/svg">
<path d="M8.00016 11.3335C7.23777 11.3292 6.4999 11.0636 5.90959 10.5811C5.31928 10.0986 4.91221 9.42839 4.75625 8.68211C4.60028 7.93583 4.70486 7.15863 5.05254 6.48012C5.40022 5.80161 5.96998 5.26279 6.66683 4.9535V1.46683C5.48695 1.70799 4.39443 2.26425 3.50532 3.07651C2.61622 3.88878 1.96374 4.9267 1.61719 6.08004C1.27065 7.23338 1.24298 8.45904 1.53714 9.62684C1.83129 10.7946 2.43628 11.8609 3.28783 12.7125C4.13938 13.564 5.20569 14.169 6.37349 14.4632C7.54128 14.7573 8.76695 14.7297 9.92029 14.3831C11.0736 14.0366 12.1115 13.3841 12.9238 12.495C13.7361 11.6059 14.2923 10.5134 14.5335 9.3335H11.0468C10.788 9.92663 10.362 10.4316 9.82103 10.7867C9.28002 11.1419 8.64733 11.3319 8.00016 11.3335ZM9.3335 8.00016H14.6668C14.6668 7.12468 14.4944 6.25778 14.1594 5.44894C13.8243 4.6401 13.3333 3.90517 12.7142 3.28612C12.0951 2.66706 11.3602 2.176 10.5514 1.84097C9.74255 1.50593 8.87564 1.3335 8.00016 1.3335V6.66683C8.00016 7.02045 8.14064 7.35959 8.39069 7.60964C8.64074 7.85969 8.97987 8.00016 9.3335 8.00016Z" fill="black" fill-opacity="0.65"/>
</svg>
