<svg width="16" height="16" viewBox="0 0 16 16" fill="none" xmlns="http://www.w3.org/2000/svg">
<path fill-rule="evenodd" clip-rule="evenodd" d="M8.68488 1.77405C8.3787 1.87249 8.16536 2.05148 8.00111 2.34762L7.84672 2.62599L7.84722 4.09569C7.84767 5.54605 7.84927 5.56837 7.96613 5.79448C8.45052 6.73188 9.8694 6.71623 10.345 5.76828C10.4407 5.57766 10.4469 5.47647 10.4475 4.09975C10.4481 2.65616 10.4463 2.63072 10.3307 2.40696C10.1909 2.13643 9.83107 1.83646 9.55792 1.76273C9.30134 1.69346 8.92014 1.69838 8.68488 1.77405ZM3.63951 4.14787C2.99963 4.2381 2.29044 4.80504 1.83823 5.5879C1.48076 6.20679 1.90334 7.77223 3.02321 9.97766C3.65533 11.2226 5.57446 13.3798 6.58113 13.9771C7.02393 14.2399 7.3318 14.3126 7.84857 14.2767C8.68008 14.2189 9.35484 13.9591 9.68979 13.5678C9.83137 13.4023 9.85159 13.3491 9.82471 13.2122C9.74714 12.8167 9.06242 11.7744 8.63113 11.3951C8.06227 10.895 7.44391 10.9368 6.85743 11.5151C6.71745 11.6531 6.56136 11.766 6.51056 11.766C6.33655 11.766 5.7833 11.4279 5.48113 11.1369C4.93944 10.6153 4.17705 9.43683 3.91962 8.72315C3.77734 8.32875 3.71293 7.80546 3.78094 7.59609C3.82008 7.47568 3.85576 7.45656 4.13751 7.40515C4.73095 7.29692 5.02992 7.12299 5.19892 6.78766C5.37338 6.44146 5.30973 6.12192 4.91772 5.37609C4.63236 4.83327 4.43598 4.55075 4.18971 4.32884C3.97442 4.13484 3.90165 4.11089 3.63951 4.14787ZM6.81784 4.52446C6.73451 4.5793 6.7183 4.65573 6.70374 5.06218C6.67406 5.89126 6.81839 6.40128 7.22341 6.89846C7.53964 7.2866 8.12652 7.61385 8.71 7.7274L8.84763 7.75419V8.36212V8.97005H8.27986C7.79337 8.97005 7.70024 8.98187 7.62927 9.05253C7.52063 9.16071 7.52418 9.29866 7.63798 9.39147C7.7177 9.45649 7.88205 9.4661 8.91414 9.4661H10.0988V9.21808V8.97005H9.77346H9.44817V8.36429C9.44817 7.8254 9.45783 7.75626 9.53575 7.73778C9.58394 7.72637 9.73028 7.69191 9.86104 7.66125L10.0988 7.60547V7.31821C10.0988 7.16024 10.0864 7.03095 10.0712 7.03095C10.0561 7.03095 9.9809 7.06022 9.90413 7.09602C9.64455 7.21697 9.13684 7.27009 8.81425 7.21002C8.12868 7.0824 7.64324 6.70622 7.40262 6.11606C7.31404 5.89883 7.29622 5.75502 7.29622 5.25803C7.29622 4.79061 7.27931 4.63918 7.2183 4.56076C7.12937 4.44631 6.95992 4.43093 6.81784 4.52446ZM11.0775 4.56076C11.017 4.63855 10.9996 4.78786 10.9996 5.22898C10.9996 5.61356 10.9743 5.87389 10.9211 6.03511C10.878 6.16607 10.8498 6.27669 10.8585 6.28097C10.8893 6.2959 11.2257 6.4076 11.3087 6.43042C11.3718 6.44778 11.4061 6.41053 11.4474 6.27998C11.5479 5.96233 11.6102 5.41149 11.5926 4.9976C11.5779 4.65578 11.5591 4.57794 11.478 4.5245C11.3359 4.43093 11.1665 4.44626 11.0775 4.56076ZM10.9996 6.97206C10.8059 7.03442 10.7994 7.09142 10.7994 8.73064C10.7994 10.2628 10.8032 10.3263 10.8995 10.4131C10.9545 10.4627 11.0282 10.5033 11.0633 10.5033C11.0983 10.5033 11.5431 10.2881 12.0517 10.0251C12.5602 9.76215 13.2532 9.40405 13.5915 9.22944C13.9299 9.05479 14.2283 8.87558 14.2546 8.8312C14.3605 8.65303 14.2334 8.55215 13.2944 8.06873C12.7892 7.80867 12.0949 7.44844 11.7515 7.26829C11.4081 7.08818 11.1153 6.94238 11.1009 6.94432C11.0865 6.94626 11.0409 6.95875 10.9996 6.97206Z" fill="black" fill-opacity="0.65"/>
</svg>
