<svg width="16" height="16" viewBox="0 0 16 16" fill="none" xmlns="http://www.w3.org/2000/svg">
<g clip-path="url(#clip0_550_87852)">
<path d="M11.566 1.5H4.45506C4.0204 1.5 3.66675 1.8104 3.66675 2.19192V13.8081C3.66675 14.1896 4.02037 14.5 4.45506 14.5H11.5659C12.0006 14.5 12.3542 14.1896 12.3542 13.8081V2.19192C12.3542 1.8104 12.0006 1.5 11.566 1.5ZM11.2169 12.0025H4.80411V4.0026H11.2169V12.0025Z" fill="black" fill-opacity="0.65"/>
<path d="M7.00697 9.44455C6.73313 9.44455 6.49919 9.34976 6.30515 9.16018C6.11099 8.97059 6.01392 8.73888 6.01392 8.46504C6.01392 8.23032 6.08463 8.02117 6.22607 7.83761C6.3675 7.65404 6.55257 7.53668 6.78128 7.48553C6.85651 7.20867 7.00697 6.98448 7.23267 6.81296C7.45836 6.64143 7.71415 6.55566 8.00003 6.55566C8.35211 6.55566 8.65075 6.67826 8.89594 6.92346C9.14126 7.16877 9.26392 7.46747 9.26392 7.81955C9.47156 7.84363 9.64387 7.93312 9.78085 8.08804C9.91771 8.24308 9.98614 8.42441 9.98614 8.63205C9.98614 8.85775 9.90718 9.04962 9.74925 9.20766C9.5912 9.36559 9.39933 9.44455 9.17364 9.44455H7.00697Z" fill="black" fill-opacity="0.65"/>
</g>
<defs>
<clipPath id="clip0_550_87852">
<rect width="13" height="13" fill="white" transform="translate(1.5 1.5)"/>
</clipPath>
</defs>
</svg>
